<svg width="500" height="500" viewBox="0 0 500 500" fill="none" xmlns="http://www.w3.org/2000/svg">
<path d="M227.77 50.5495C220.88 48.1644 213.871 46.1416 206.77 44.4895C124.69 26.1695 9.42984 84.7395 16.1698 179.52C17.7698 202.1 28.7098 220.66 35.5098 241.75C50.9698 289.75 39.8598 338.16 50.2398 386.4C58.2398 423.8 89.1898 451.73 121.73 469.01C157.09 487.78 191.15 491.8 230.06 482.21C273.68 471.45 299.06 438.03 323.64 403.21C334.69 387.52 346.12 371.38 360.89 358.92C379.39 343.33 401.24 331.62 420.74 317.32C441.01 302.45 460.12 285.03 472.08 262.92C510.41 192.11 444.79 98.4095 377.08 74.0095C353.08 65.3695 327.2 65.8995 302.08 65.2995C275 64.6195 253.4 59.1395 227.77 50.5495Z" fill="#FFD084"/>
<path opacity="0.8" d="M227.77 50.5495C220.88 48.1644 213.871 46.1416 206.77 44.4895C124.69 26.1695 9.42984 84.7395 16.1698 179.52C17.7698 202.1 28.7098 220.66 35.5098 241.75C50.9698 289.75 39.8598 338.16 50.2398 386.4C58.2398 423.8 89.1898 451.73 121.73 469.01C157.09 487.78 191.15 491.8 230.06 482.21C273.68 471.45 299.06 438.03 323.64 403.21C334.69 387.52 346.12 371.38 360.89 358.92C379.39 343.33 401.24 331.62 420.74 317.32C441.01 302.45 460.12 285.03 472.08 262.92C510.41 192.11 444.79 98.4095 377.08 74.0095C353.08 65.3695 327.2 65.8995 302.08 65.2995C275 64.6195 253.4 59.1395 227.77 50.5495Z" fill="white"/>
<path d="M436.52 59.0605L449.13 87.6505L480.19 84.2705L461.73 109.481L480.19 134.691L449.13 131.311L436.52 159.901L423.92 131.311L392.86 134.691L411.31 109.481L392.86 84.2705L423.92 87.6505L436.52 59.0605Z" stroke="#263238" stroke-linecap="round" stroke-linejoin="round"/>
<path d="M436.52 59.0605V159.901" stroke="#263238" stroke-linecap="round" stroke-linejoin="round"/>
<path d="M449.13 87.6504L436.95 108.28L423.92 87.6504" stroke="#263238" stroke-linecap="round" stroke-linejoin="round"/>
<path d="M423.92 131.31L436.95 108.28L449.13 131.31" stroke="#263238" stroke-linecap="round" stroke-linejoin="round"/>
<path d="M480.19 84.2705L436.95 108.281L480.19 134.691" stroke="#263238" stroke-linecap="round" stroke-linejoin="round"/>
<path d="M392.86 84.2705L436.95 108.281L392.86 134.691" stroke="#263238" stroke-linecap="round" stroke-linejoin="round"/>
<path d="M411.31 109.48H461.73" stroke="#263238" stroke-linecap="round" stroke-linejoin="round"/>
<path d="M79.1699 386.221L89.7999 410.321L115.99 407.481L100.43 428.731L115.99 449.991L89.7999 447.141L79.1699 471.241L68.5499 447.141L42.3599 449.991L57.9199 428.731L42.3599 407.481L68.5499 410.321L79.1699 386.221Z" stroke="#263238" stroke-linecap="round" stroke-linejoin="round"/>
<path d="M79.1699 386.221V471.241" stroke="#263238" stroke-linecap="round" stroke-linejoin="round"/>
<path d="M89.7998 410.32L79.5398 427.72L68.5498 410.32" stroke="#263238" stroke-linecap="round" stroke-linejoin="round"/>
<path d="M68.5498 447.141L79.5398 427.721L89.7998 447.141" stroke="#263238" stroke-linecap="round" stroke-linejoin="round"/>
<path d="M115.99 407.48L79.54 427.72L115.99 449.99" stroke="#263238" stroke-linecap="round" stroke-linejoin="round"/>
<path d="M42.3599 407.48L79.5399 427.72L42.3599 449.99" stroke="#263238" stroke-linecap="round" stroke-linejoin="round"/>
<path d="M57.9199 428.73H100.43" stroke="#263238" stroke-linecap="round" stroke-linejoin="round"/>
<path d="M419.17 407.36L426.87 424.82L445.84 422.76L434.57 438.16L445.84 453.56L426.87 451.49L419.17 468.96L411.47 451.49L392.5 453.56L403.77 438.16L392.5 422.76L411.47 424.82L419.17 407.36Z" stroke="#263238" stroke-linecap="round" stroke-linejoin="round"/>
<path d="M419.17 407.36V468.96" stroke="#263238" stroke-linecap="round" stroke-linejoin="round"/>
<path d="M426.87 424.82L419.44 437.42L411.47 424.82" stroke="#263238" stroke-linecap="round" stroke-linejoin="round"/>
<path d="M411.47 451.49L419.44 437.42L426.87 451.49" stroke="#263238" stroke-linecap="round" stroke-linejoin="round"/>
<path d="M445.84 422.761L419.44 437.421L445.84 453.561" stroke="#263238" stroke-linecap="round" stroke-linejoin="round"/>
<path d="M392.5 422.761L419.44 437.421L392.5 453.561" stroke="#263238" stroke-linecap="round" stroke-linejoin="round"/>
<path d="M403.77 438.16H434.57" stroke="#263238" stroke-linecap="round" stroke-linejoin="round"/>
<path d="M81.38 29.5703L89.08 47.0303L108.05 44.9703L96.78 60.3703L108.05 75.7703L89.08 73.7003L81.38 91.1703L73.68 73.7003L54.71 75.7703L65.98 60.3703L54.71 44.9703L73.68 47.0303L81.38 29.5703Z" stroke="#263238" stroke-linecap="round" stroke-linejoin="round"/>
<path d="M81.3799 29.5703V91.1703" stroke="#263238" stroke-linecap="round" stroke-linejoin="round"/>
<path d="M89.0797 47.0303L81.6397 59.6303L73.6797 47.0303" stroke="#263238" stroke-linecap="round" stroke-linejoin="round"/>
<path d="M73.6797 73.6999L81.6397 59.6299L89.0797 73.6999" stroke="#263238" stroke-linecap="round" stroke-linejoin="round"/>
<path d="M108.05 44.9707L81.6396 59.6307L108.05 75.7707" stroke="#263238" stroke-linecap="round" stroke-linejoin="round"/>
<path d="M54.71 44.9707L81.64 59.6307L54.71 75.7707" stroke="#263238" stroke-linecap="round" stroke-linejoin="round"/>
<path d="M65.98 60.3701H96.78" stroke="#263238" stroke-linecap="round" stroke-linejoin="round"/>
<path d="M209.07 422.67C208.23 421.72 207.46 420.72 206.67 419.73C210.19 404.45 212.67 390.3 211.46 374.52C209.4 372.52 205.77 372.36 205.95 376.07C206.727 388.887 205.584 401.749 202.56 414.23C202.08 413.49 201.56 412.73 201.06 412.01C204.185 397.566 204.676 382.677 202.51 368.06C200.51 366.14 196.45 366.2 196.89 369.77C198.46 382.35 199.1 394.26 197.05 406.77C196.62 406.19 196.15 405.63 195.7 405.05C197.448 391.092 196.672 376.933 193.41 363.25C191.29 361.59 187.13 361.78 187.83 365.25C190.23 377 192.08 388.38 191.29 400.34C190.808 399.831 190.301 399.347 189.77 398.89C190.3 384.89 187.34 371.36 183.66 357.97C181.38 356.44 177.19 357.09 177.98 360.37C180.76 371.81 184.7 382.76 184.74 394.58C184.3 394.19 183.82 393.84 183.36 393.46C182.96 380.51 178.16 367.53 174.36 355.28C172.04 353.86 167.84 354.8 168.7 357.96C171.59 368.59 176.12 378.68 177.81 389.47C177.31 389.1 176.81 388.78 176.27 388.47C174.16 376.57 168.72 364.61 164.99 353.11C162.6 351.8 158.45 352.95 159.31 356.11C162.13 366.23 165.99 375.58 169.25 385.43C168.61 385.18 167.93 384.96 167.25 384.72C163.25 373.63 159.25 362.54 155.62 351.35C153.18 350.11 149.13 351.45 149.98 354.54C152.64 364.14 156.46 372.94 159.69 382.25C159.05 382.02 158.37 381.83 157.69 381.63C153.69 371.13 149.94 360.52 146.35 349.88C143.88 348.71 139.92 350.17 140.78 353.22C143.35 362.34 146.88 370.74 150.1 379.54C149.47 379.35 148.79 379.19 148.1 379.01C144.17 369.01 140.66 358.78 137.15 348.6C134.72 347.54 130.73 348.98 131.59 352.01C134.07 360.7 137.46 368.75 140.59 377.12C139.96 376.94 139.29 376.8 138.64 376.63C134.89 367.01 131.34 357.3 128.06 347.5C125.37 346.77 122.15 347.63 122.33 350.96C125.11 358.96 128.24 366.9 131.33 374.82L129.42 374.36C125.85 365.21 121.56 355.96 119.14 346.42C116.57 345.6 113.5 346.15 113.3 349.35C115.21 357.44 119.36 364.84 122.25 372.6L120.41 372.1C116.99 362.89 112.13 354.43 110.85 344.53C108.48 343.37 105.58 343.34 105.05 346.47C105.92 354.86 109.05 362.1 112.62 369.66L110.32 368.83C106.15 359.83 103.32 351.18 103.59 341.15C101.65 339.15 98.9999 339.15 97.8699 341.94C96.9499 349.94 98.6999 357.43 101.45 364.94L99.2199 363.77C96.0924 354.848 95.5107 345.233 97.5399 336C95.9099 333.66 93.3499 333.06 91.8799 335.9C90.2299 343.46 89.6099 350.8 91.2299 358.45C90.5699 357.96 89.9399 357.45 89.3199 356.93C87.8999 347.52 90.0099 338.88 92.0699 329.75C90.5799 327.16 88.0699 326.4 86.3799 329.25C84.7199 336.14 82.3799 343.25 82.7399 350.39C81.7893 349.366 80.9074 348.28 80.0999 347.14C80.8799 340.37 83.0999 333.84 84.8099 327.25C83.6999 325.32 81.6799 324.56 80.3899 326.79C79.1799 331.86 77.8299 336.89 76.4899 341.93C76.1699 341.42 75.8499 340.93 75.5399 340.4C75.8999 335.73 76.1199 331.04 76.4099 326.4C75.3099 325.19 73.7499 324.99 73.1399 326.76C72.9599 330.61 72.8199 334.54 72.6999 338.36C69.5699 337.17 64.9399 334.58 62.2099 333.64C59.4799 332.7 60.0499 335.05 60.2099 336.22C64.7399 338.22 69.1199 340.16 73.6599 342.02C73.9599 342.55 74.3999 343.14 74.6599 343.63C69.9999 342.9 62.9999 340.71 58.9999 340.24C54.9999 339.77 56.6499 342.95 57.1599 344.42C64.3399 345.85 71.2899 347.19 78.3399 348.83C79.2599 350.06 80.3399 351.34 81.3399 352.4C74.7099 351.49 64.5799 347.98 58.8399 347.32C53.0999 346.66 56.2699 351.52 56.9099 353.32C67.4399 355.62 77.5699 358 88.1799 359.08C88.7799 359.58 89.6599 360.16 90.1799 360.56C82.3299 360.98 70.3599 357.19 63.8099 356.35C57.2599 355.51 62.4899 361.52 62.8099 362.81C74.6999 365.31 86.5099 367.3 98.5299 365.92C99.2399 366.3 100.19 366.79 100.75 367.1C92.0199 368.96 78.4699 366.87 70.9599 366.1C63.4499 365.33 70.7899 371.77 71.2099 372.8C84.0589 374.685 97.1497 374.101 109.78 371.08C110.45 371.33 111.44 371.66 111.93 371.87C102.93 375.1 88.2299 375.05 80.2199 375.36C72.2099 375.67 80.9299 380.99 81.3199 381.92C94.5448 382.085 107.659 379.497 119.83 374.32C120.38 374.5 121.27 374.7 121.63 374.86C113.16 379.51 98.6299 381.77 90.6999 383.09C82.7699 384.41 91.6999 388.3 92.2299 389.36C105.46 387.13 117.23 382.62 129.02 376.67C129.621 376.8 130.215 376.96 130.8 377.15C122.91 382.02 108.69 386.75 101.32 389.08C93.9499 391.41 102.03 393.72 102.8 394.81C115.44 390.87 126.8 384.91 138.27 378.89C138.91 379.05 139.56 379.23 140.2 379.37C130.41 384.66 120.64 389.23 110.39 393.78C106.92 395.32 109.51 398.46 112.39 398.84C124.53 393.92 135.98 387.25 147.65 381.29C148.3 381.45 148.97 381.65 149.65 381.8C139.65 387.08 129.52 392.14 119.48 397.39C116.21 399.1 118.3 401.94 121.16 402.39C133.3 396.47 145.16 389.94 157.22 383.92L159.22 384.52C148.72 389.75 138.1 395.08 127.88 400.77C124.69 402.54 126.62 405.25 129.37 405.77C141.81 399.42 154.07 392.7 166.79 386.96L168.79 387.66C157.79 392.84 146.58 398.26 135.98 404.19C132.79 405.97 134.63 408.7 137.37 409.28C149.97 402.91 162.49 396.05 175.6 390.81L177.1 391.81C165.753 396.512 154.682 401.854 143.94 407.81C140.84 409.49 142.33 412.36 145.1 413.07C157.38 406.86 169.71 400.9 182.5 395.84L183.84 396.9C172.84 401.44 162.01 406.19 151.54 411.76C148.6 413.32 149.54 416.31 152.33 417.21C164.21 411.21 176.14 405.4 188.8 401.21C189.4 401.77 189.97 402.37 190.52 402.97C180.111 406.218 170.033 410.444 160.42 415.59C157.72 417 158.08 420.02 160.72 421.14C171.72 415.8 182.88 410.63 194.72 407.7L195.56 408.7C185.718 411.173 176.187 414.752 167.15 419.37C166.598 419.609 166.128 420.003 165.794 420.503C165.46 421.004 165.278 421.589 165.268 422.191C165.259 422.792 165.423 423.383 165.74 423.894C166.058 424.404 166.516 424.813 167.06 425.07C177.39 420.36 188.14 415.55 199.43 413.88C199.87 414.53 200.32 415.21 200.76 415.88C191.28 417.24 182.58 420.51 173.76 424.41C171.26 425.51 171.61 428.84 173.76 430.19C183.95 426.37 193.58 422.43 204.51 421.33C205.37 422.41 206.27 423.41 207.23 424.41L209.07 422.67Z" fill="#FFD084"/>
<g opacity="0.3">
<path opacity="0.3" d="M209.07 422.67C208.23 421.72 207.46 420.72 206.67 419.73C210.19 404.45 212.67 390.3 211.46 374.52C209.4 372.52 205.77 372.36 205.95 376.07C206.727 388.887 205.584 401.749 202.56 414.23C202.08 413.49 201.56 412.73 201.06 412.01C204.185 397.566 204.676 382.677 202.51 368.06C200.51 366.14 196.45 366.2 196.89 369.77C198.46 382.35 199.1 394.26 197.05 406.77C196.62 406.19 196.15 405.63 195.7 405.05C197.448 391.092 196.672 376.933 193.41 363.25C191.29 361.59 187.13 361.78 187.83 365.25C190.23 377 192.08 388.38 191.29 400.34C190.808 399.831 190.301 399.347 189.77 398.89C190.3 384.89 187.34 371.36 183.66 357.97C181.38 356.44 177.19 357.09 177.98 360.37C180.76 371.81 184.7 382.76 184.74 394.58C184.3 394.19 183.82 393.84 183.36 393.46C182.96 380.51 178.16 367.53 174.36 355.28C172.04 353.86 167.84 354.8 168.7 357.96C171.59 368.59 176.12 378.68 177.81 389.47C177.31 389.1 176.81 388.78 176.27 388.47C174.16 376.57 168.72 364.61 164.99 353.11C162.6 351.8 158.45 352.95 159.31 356.11C162.13 366.23 165.99 375.58 169.25 385.43C168.61 385.18 167.93 384.96 167.25 384.72C163.25 373.63 159.25 362.54 155.62 351.35C153.18 350.11 149.13 351.45 149.98 354.54C152.64 364.14 156.46 372.94 159.69 382.25C159.05 382.02 158.37 381.83 157.69 381.63C153.69 371.13 149.94 360.52 146.35 349.88C143.88 348.71 139.92 350.17 140.78 353.22C143.35 362.34 146.88 370.74 150.1 379.54C149.47 379.35 148.79 379.19 148.1 379.01C144.17 369.01 140.66 358.78 137.15 348.6C134.72 347.54 130.73 348.98 131.59 352.01C134.07 360.7 137.46 368.75 140.59 377.12C139.96 376.94 139.29 376.8 138.64 376.63C134.89 367.01 131.34 357.3 128.06 347.5C125.37 346.77 122.15 347.63 122.33 350.96C125.11 358.96 128.24 366.9 131.33 374.82L129.42 374.36C125.85 365.21 121.56 355.96 119.14 346.42C116.57 345.6 113.5 346.15 113.3 349.35C115.21 357.44 119.36 364.84 122.25 372.6L120.41 372.1C116.99 362.89 112.13 354.43 110.85 344.53C108.48 343.37 105.58 343.34 105.05 346.47C105.92 354.86 109.05 362.1 112.62 369.66L110.32 368.83C106.15 359.83 103.32 351.18 103.59 341.15C101.65 339.15 98.9999 339.15 97.8699 341.94C96.9499 349.94 98.6999 357.43 101.45 364.94L99.2199 363.77C96.0924 354.848 95.5107 345.233 97.5399 336C95.9099 333.66 93.3499 333.06 91.8799 335.9C90.2299 343.46 89.6099 350.8 91.2299 358.45C90.5699 357.96 89.9399 357.45 89.3199 356.93C87.8999 347.52 90.0099 338.88 92.0699 329.75C90.5799 327.16 88.0699 326.4 86.3799 329.25C84.7199 336.14 82.3799 343.25 82.7399 350.39C81.7893 349.366 80.9074 348.28 80.0999 347.14C80.8799 340.37 83.0999 333.84 84.8099 327.25C83.6999 325.32 81.6799 324.56 80.3899 326.79C79.1799 331.86 77.8299 336.89 76.4899 341.93C76.1699 341.42 75.8499 340.93 75.5399 340.4C75.8999 335.73 76.1199 331.04 76.4099 326.4C75.3099 325.19 73.7499 324.99 73.1399 326.76C72.9599 330.61 72.8199 334.54 72.6999 338.36C69.5699 337.17 64.9399 334.58 62.2099 333.64C59.4799 332.7 60.0499 335.05 60.2099 336.22C64.7399 338.22 69.1199 340.16 73.6599 342.02C73.9599 342.55 74.3999 343.14 74.6599 343.63C69.9999 342.9 62.9999 340.71 58.9999 340.24C54.9999 339.77 56.6499 342.95 57.1599 344.42C64.3399 345.85 71.2899 347.19 78.3399 348.83C79.2599 350.06 80.3399 351.34 81.3399 352.4C74.7099 351.49 64.5799 347.98 58.8399 347.32C53.0999 346.66 56.2699 351.52 56.9099 353.32C67.4399 355.62 77.5699 358 88.1799 359.08C88.7799 359.58 89.6599 360.16 90.1799 360.56C82.3299 360.98 70.3599 357.19 63.8099 356.35C57.2599 355.51 62.4899 361.52 62.8099 362.81C74.6999 365.31 86.5099 367.3 98.5299 365.92C99.2399 366.3 100.19 366.79 100.75 367.1C92.0199 368.96 78.4699 366.87 70.9599 366.1C63.4499 365.33 70.7899 371.77 71.2099 372.8C84.0589 374.685 97.1497 374.101 109.78 371.08C110.45 371.33 111.44 371.66 111.93 371.87C102.93 375.1 88.2299 375.05 80.2199 375.36C72.2099 375.67 80.9299 380.99 81.3199 381.92C94.5448 382.085 107.659 379.497 119.83 374.32C120.38 374.5 121.27 374.7 121.63 374.86C113.16 379.51 98.6299 381.77 90.6999 383.09C82.7699 384.41 91.6999 388.3 92.2299 389.36C105.46 387.13 117.23 382.62 129.02 376.67C129.621 376.8 130.215 376.96 130.8 377.15C122.91 382.02 108.69 386.75 101.32 389.08C93.9499 391.41 102.03 393.72 102.8 394.81C115.44 390.87 126.8 384.91 138.27 378.89C138.91 379.05 139.56 379.23 140.2 379.37C130.41 384.66 120.64 389.23 110.39 393.78C106.92 395.32 109.51 398.46 112.39 398.84C124.53 393.92 135.98 387.25 147.65 381.29C148.3 381.45 148.97 381.65 149.65 381.8C139.65 387.08 129.52 392.14 119.48 397.39C116.21 399.1 118.3 401.94 121.16 402.39C133.3 396.47 145.16 389.94 157.22 383.92L159.22 384.52C148.72 389.75 138.1 395.08 127.88 400.77C124.69 402.54 126.62 405.25 129.37 405.77C141.81 399.42 154.07 392.7 166.79 386.96L168.79 387.66C157.79 392.84 146.58 398.26 135.98 404.19C132.79 405.97 134.63 408.7 137.37 409.28C149.97 402.91 162.49 396.05 175.6 390.81L177.1 391.81C165.753 396.512 154.682 401.854 143.94 407.81C140.84 409.49 142.33 412.36 145.1 413.07C157.38 406.86 169.71 400.9 182.5 395.84L183.84 396.9C172.84 401.44 162.01 406.19 151.54 411.76C148.6 413.32 149.54 416.31 152.33 417.21C164.21 411.21 176.14 405.4 188.8 401.21C189.4 401.77 189.97 402.37 190.52 402.97C180.111 406.218 170.033 410.444 160.42 415.59C157.72 417 158.08 420.02 160.72 421.14C171.72 415.8 182.88 410.63 194.72 407.7L195.56 408.7C185.718 411.173 176.187 414.752 167.15 419.37C166.598 419.609 166.128 420.003 165.794 420.503C165.46 421.004 165.278 421.589 165.268 422.191C165.259 422.792 165.423 423.383 165.74 423.894C166.058 424.404 166.516 424.813 167.06 425.07C177.39 420.36 188.14 415.55 199.43 413.88C199.87 414.53 200.32 415.21 200.76 415.88C191.28 417.24 182.58 420.51 173.76 424.41C171.26 425.51 171.61 428.84 173.76 430.19C183.95 426.37 193.58 422.43 204.51 421.33C205.37 422.41 206.27 423.41 207.23 424.41L209.07 422.67Z" fill="white"/>
</g>
<path d="M345.6 430.4C346.1 428.96 346.52 427.5 346.95 426.03C336.08 410.54 326.89 395.84 321.09 377.64C322.49 374.48 326.48 372.64 327.96 376.87C333.23 391.87 339.7 405.15 349.06 418.02C349.25 417.02 349.46 415.89 349.73 414.85C339.683 400.112 332.38 383.682 328.17 366.35C329.6 363.27 334.11 361.52 335.23 365.71C339.18 380.49 343.87 394.11 351.84 407.21C352.07 406.36 352.34 405.52 352.58 404.67C344.291 389.853 338.735 373.665 336.18 356.88C337.8 354.06 342.54 352.38 343.31 356.53C345.96 370.76 349.04 384.33 355.31 397.35C355.6 396.559 355.934 395.784 356.31 395.03C349.37 379.62 346.54 363.15 344.59 346.5C346.44 343.75 351.43 342.58 352.02 346.61C354.1 360.66 354.66 374.69 359.97 387.93C360.29 387.3 360.67 386.68 360.97 386.06C355.55 371.39 355.03 354.69 353.75 339.26C355.69 336.62 360.82 335.77 361.29 339.69C362.88 352.89 362.38 366.23 365.39 379.06C365.78 378.43 366.23 377.83 366.64 377.21C363.64 362.94 364.27 347.1 363.23 332.54C365.3 329.99 370.48 329.4 370.92 333.28C372.36 345.87 372.28 358.08 373.09 370.58C373.7 370.01 374.36 369.45 374.99 368.89C374.41 354.68 373.87 340.45 372.87 326.29C375.03 323.79 380.17 323.46 380.62 327.29C382 339.24 381.72 350.82 382.32 362.69C382.94 362.15 383.61 361.62 384.27 361.11C383.99 347.53 383.36 333.97 382.55 320.44C384.78 318.02 389.87 317.85 390.29 321.65C391.55 333.03 391.42 344.02 391.8 355.32C392.42 354.82 393.11 354.32 393.8 353.84C393.63 340.84 392.94 327.84 392.26 314.84C394.49 312.55 399.61 312.36 400.01 316.14C401.18 326.98 401.01 337.53 401.32 348.31C401.94 347.83 402.62 347.36 403.27 346.88C403.1 334.42 402.67 321.94 401.9 309.51C404.57 307.51 408.57 306.97 409.9 310.77C410.44 321.02 410.52 331.29 410.67 341.54L412.6 340.16C412.44 328.3 413.05 316.01 411.42 304.24C413.93 302.17 417.61 301.38 419.28 304.87C420.81 314.79 419.53 324.95 419.82 334.94L421.65 333.55C421.3 321.7 422.9 310.02 419.84 298.37C421.96 296 425.2 294.65 427.21 297.91C430.05 307.69 429.81 317.21 429.26 327.28C430 326.63 430.72 325.97 431.45 325.28C432.02 313.28 431.23 302.39 426.45 291.28C427.7 288.14 430.66 286.91 433.2 289.57C437.85 298.09 439.3 307.28 439.6 316.86L441.6 314.55C440.83 302.98 437.65 292.4 431.01 282.8C431.78 279.44 434.36 277.61 437.3 280.12C442.57 287.83 446.6 295.76 448.25 305.04C448.76 304.2 449.25 303.36 449.69 302.48C447.02 291.31 440.74 282.61 434.3 273.33C434.78 269.76 437.23 267.78 440.43 270.2C445.43 277.14 451.31 283.99 454.09 292.2C454.687 290.62 455.181 289.003 455.57 287.36C451.63 280.14 446.21 273.83 441.28 267.25C441.64 264.59 443.56 262.82 446.02 264.73C449.67 269.85 453.46 274.87 457.25 279.89C457.37 279.18 457.49 278.47 457.62 277.75C455.09 272.69 452.73 267.55 450.27 262.45C450.95 260.59 452.61 259.66 454.1 261.36C456.04 265.6 457.99 269.92 459.85 274.14C462.85 271.39 466.85 266.4 469.44 264.14C472.03 261.88 472.5 264.75 472.87 266.14C468.71 270.45 464.69 274.6 460.46 278.73C460.36 279.46 460.14 280.32 460.11 280.97C464.96 278.16 471.8 272.54 476.04 270.21C480.28 267.88 479.9 272.21 479.99 274.05C472.61 278.91 465.44 283.56 458.3 288.59C457.83 290.38 457.14 292.32 456.6 293.93C463.6 289.93 473.34 281.39 479.47 278.04C485.6 274.69 484.24 281.58 484.32 283.83C473.59 291.19 463.32 298.43 451.96 304.46C451.52 305.29 450.8 306.33 450.45 307.01C459.45 303.91 471.08 294.25 478.02 290.34C484.96 286.43 481.84 295.52 482.07 297.12C469.9 305.31 457.59 312.89 443.52 316.79C442.9 317.53 442.05 318.52 441.57 319.11C452.18 317.24 466.39 308.76 474.44 304.5C482.49 300.24 477.2 310.77 477.2 312.11C463.685 320.047 448.778 325.329 433.28 327.67C432.65 328.26 431.69 329.07 431.23 329.53C442.8 329.05 459.18 322.35 468.29 319.06C477.4 315.77 470.04 325.67 470.03 326.89C455.316 333.087 439.473 336.152 423.51 335.89C422.97 336.34 422.08 336.96 421.74 337.31C433.33 338.67 450.56 334.63 460.07 332.5C469.58 330.37 461.27 338.79 461.19 340.2C445.39 343.7 430.14 344.02 414.29 342.69C413.68 343.105 413.092 343.552 412.53 344.03C423.53 345.91 441.6 344.74 450.91 344.03C460.22 343.32 452.22 349.54 451.85 351.11C435.93 352.43 420.56 350.9 404.95 349.39C404.31 349.85 403.67 350.39 403.01 350.79C416.37 352.27 429.36 352.95 442.89 353.39C447.48 353.55 446 358.23 442.89 359.97C427.08 359.97 411.24 357.71 395.49 356.33C394.84 356.81 394.18 357.33 393.49 357.8C407.09 359.16 420.7 360.24 434.31 361.56C438.73 361.98 437.68 366.11 434.69 367.9C418.43 366.79 402.23 364.84 385.97 363.59L383.97 365.17C398.09 366.26 412.38 367.4 426.39 369.17C430.77 369.71 429.83 373.62 427.01 375.49C410.22 374.04 393.47 372.07 376.63 371.43L374.86 373C389.56 373.78 404.51 374.79 419.05 376.61C423.42 377.16 422.61 381.04 419.8 382.94C402.8 381.52 385.71 379.53 368.67 379.61L367.45 381.43C382.272 381.538 397.076 382.489 411.79 384.28C416.02 384.75 415.66 388.63 412.87 390.68C396.32 389.3 379.87 388.22 363.24 388.36C362.89 388.96 362.55 389.58 362.24 390.17C376.57 390.26 390.87 390.66 405.12 392.17C409.12 392.59 409.41 396.37 406.7 398.63C390.7 397.32 374.7 396.22 358.7 397.29C358.28 398.18 357.91 399.11 357.57 400.03C370.682 398.946 383.867 399.104 396.95 400.5C400.62 400.86 401.59 404.39 399.14 406.85C384.45 405.85 369.59 405.14 354.97 407.25C354.81 407.77 354.65 408.31 354.5 408.81C366.626 407.097 378.908 406.762 391.11 407.81C394.55 408.07 395.79 411.59 393.79 414.15C380.11 413.57 365.91 413.06 352.51 416.31C352.32 417.24 352.13 418.2 351.93 419.12C363.15 416.34 374.36 416.06 385.93 416.43C389.23 416.54 390.35 420.43 388.55 422.9C375.43 423.25 362.87 423.21 350.15 426.9C349.67 428.5 349.15 430.04 348.5 431.58C347.49 431.18 346.54 430.8 345.6 430.4Z" fill="#FFD084"/>
<g opacity="0.3">
<path opacity="0.3" d="M345.6 430.4C346.1 428.96 346.52 427.5 346.95 426.03C336.08 410.54 326.89 395.84 321.09 377.64C322.49 374.48 326.48 372.64 327.96 376.87C333.23 391.87 339.7 405.15 349.06 418.02C349.25 417.02 349.46 415.89 349.73 414.85C339.683 400.112 332.38 383.682 328.17 366.35C329.6 363.27 334.11 361.52 335.23 365.71C339.18 380.49 343.87 394.11 351.84 407.21C352.07 406.36 352.34 405.52 352.58 404.67C344.291 389.853 338.735 373.665 336.18 356.88C337.8 354.06 342.54 352.38 343.31 356.53C345.96 370.76 349.04 384.33 355.31 397.35C355.6 396.559 355.934 395.784 356.31 395.03C349.37 379.62 346.54 363.15 344.59 346.5C346.44 343.75 351.43 342.58 352.02 346.61C354.1 360.66 354.66 374.69 359.97 387.93C360.29 387.3 360.67 386.68 360.97 386.06C355.55 371.39 355.03 354.69 353.75 339.26C355.69 336.62 360.82 335.77 361.29 339.69C362.88 352.89 362.38 366.23 365.39 379.06C365.78 378.43 366.23 377.83 366.64 377.21C363.64 362.94 364.27 347.1 363.23 332.54C365.3 329.99 370.48 329.4 370.92 333.28C372.36 345.87 372.28 358.08 373.09 370.58C373.7 370.01 374.36 369.45 374.99 368.89C374.41 354.68 373.87 340.45 372.87 326.29C375.03 323.79 380.17 323.46 380.62 327.29C382 339.24 381.72 350.82 382.32 362.69C382.94 362.15 383.61 361.62 384.27 361.11C383.99 347.53 383.36 333.97 382.55 320.44C384.78 318.02 389.87 317.85 390.29 321.65C391.55 333.03 391.42 344.02 391.8 355.32C392.42 354.82 393.11 354.32 393.8 353.84C393.63 340.84 392.94 327.84 392.26 314.84C394.49 312.55 399.61 312.36 400.01 316.14C401.18 326.98 401.01 337.53 401.32 348.31C401.94 347.83 402.62 347.36 403.27 346.88C403.1 334.42 402.67 321.94 401.9 309.51C404.57 307.51 408.57 306.97 409.9 310.77C410.44 321.02 410.52 331.29 410.67 341.54L412.6 340.16C412.44 328.3 413.05 316.01 411.42 304.24C413.93 302.17 417.61 301.38 419.28 304.87C420.81 314.79 419.53 324.95 419.82 334.94L421.65 333.55C421.3 321.7 422.9 310.02 419.84 298.37C421.96 296 425.2 294.65 427.21 297.91C430.05 307.69 429.81 317.21 429.26 327.28C430 326.63 430.72 325.97 431.45 325.28C432.02 313.28 431.23 302.39 426.45 291.28C427.7 288.14 430.66 286.91 433.2 289.57C437.85 298.09 439.3 307.28 439.6 316.86L441.6 314.55C440.83 302.98 437.65 292.4 431.01 282.8C431.78 279.44 434.36 277.61 437.3 280.12C442.57 287.83 446.6 295.76 448.25 305.04C448.76 304.2 449.25 303.36 449.69 302.48C447.02 291.31 440.74 282.61 434.3 273.33C434.78 269.76 437.23 267.78 440.43 270.2C445.43 277.14 451.31 283.99 454.09 292.2C454.687 290.62 455.181 289.003 455.57 287.36C451.63 280.14 446.21 273.83 441.28 267.25C441.64 264.59 443.56 262.82 446.02 264.73C449.67 269.85 453.46 274.87 457.25 279.89C457.37 279.18 457.49 278.47 457.62 277.75C455.09 272.69 452.73 267.55 450.27 262.45C450.95 260.59 452.61 259.66 454.1 261.36C456.04 265.6 457.99 269.92 459.85 274.14C462.85 271.39 466.85 266.4 469.44 264.14C472.03 261.88 472.5 264.75 472.87 266.14C468.71 270.45 464.69 274.6 460.46 278.73C460.36 279.46 460.14 280.32 460.11 280.97C464.96 278.16 471.8 272.54 476.04 270.21C480.28 267.88 479.9 272.21 479.99 274.05C472.61 278.91 465.44 283.56 458.3 288.59C457.83 290.38 457.14 292.32 456.6 293.93C463.6 289.93 473.34 281.39 479.47 278.04C485.6 274.69 484.24 281.58 484.32 283.83C473.59 291.19 463.32 298.43 451.96 304.46C451.52 305.29 450.8 306.33 450.45 307.01C459.45 303.91 471.08 294.25 478.02 290.34C484.96 286.43 481.84 295.52 482.07 297.12C469.9 305.31 457.59 312.89 443.52 316.79C442.9 317.53 442.05 318.52 441.57 319.11C452.18 317.24 466.39 308.76 474.44 304.5C482.49 300.24 477.2 310.77 477.2 312.11C463.685 320.047 448.778 325.329 433.28 327.67C432.65 328.26 431.69 329.07 431.23 329.53C442.8 329.05 459.18 322.35 468.29 319.06C477.4 315.77 470.04 325.67 470.03 326.89C455.316 333.087 439.473 336.152 423.51 335.89C422.97 336.34 422.08 336.96 421.74 337.31C433.33 338.67 450.56 334.63 460.07 332.5C469.58 330.37 461.27 338.79 461.19 340.2C445.39 343.7 430.14 344.02 414.29 342.69C413.68 343.105 413.092 343.552 412.53 344.03C423.53 345.91 441.6 344.74 450.91 344.03C460.22 343.32 452.22 349.54 451.85 351.11C435.93 352.43 420.56 350.9 404.95 349.39C404.31 349.85 403.67 350.39 403.01 350.79C416.37 352.27 429.36 352.95 442.89 353.39C447.48 353.55 446 358.23 442.89 359.97C427.08 359.97 411.24 357.71 395.49 356.33C394.84 356.81 394.18 357.33 393.49 357.8C407.09 359.16 420.7 360.24 434.31 361.56C438.73 361.98 437.68 366.11 434.69 367.9C418.43 366.79 402.23 364.84 385.97 363.59L383.97 365.17C398.09 366.26 412.38 367.4 426.39 369.17C430.77 369.71 429.83 373.62 427.01 375.49C410.22 374.04 393.47 372.07 376.63 371.43L374.86 373C389.56 373.78 404.51 374.79 419.05 376.61C423.42 377.16 422.61 381.04 419.8 382.94C402.8 381.52 385.71 379.53 368.67 379.61L367.45 381.43C382.272 381.538 397.076 382.489 411.79 384.28C416.02 384.75 415.66 388.63 412.87 390.68C396.32 389.3 379.87 388.22 363.24 388.36C362.89 388.96 362.55 389.58 362.24 390.17C376.57 390.26 390.87 390.66 405.12 392.17C409.12 392.59 409.41 396.37 406.7 398.63C390.7 397.32 374.7 396.22 358.7 397.29C358.28 398.18 357.91 399.11 357.57 400.03C370.682 398.946 383.867 399.104 396.95 400.5C400.62 400.86 401.59 404.39 399.14 406.85C384.45 405.85 369.59 405.14 354.97 407.25C354.81 407.77 354.65 408.31 354.5 408.81C366.626 407.097 378.908 406.762 391.11 407.81C394.55 408.07 395.79 411.59 393.79 414.15C380.11 413.57 365.91 413.06 352.51 416.31C352.32 417.24 352.13 418.2 351.93 419.12C363.15 416.34 374.36 416.06 385.93 416.43C389.23 416.54 390.35 420.43 388.55 422.9C375.43 423.25 362.87 423.21 350.15 426.9C349.67 428.5 349.15 430.04 348.5 431.58C347.49 431.18 346.54 430.8 345.6 430.4Z" fill="white"/>
</g>
<path d="M273.85 374.28C274.48 372.55 275.01 370.79 275.55 369.04C262.73 350.21 251.9 332.36 245.22 310.35C246.97 306.58 251.79 304.43 253.51 309.54C259.6 327.66 267.17 343.78 278.22 359.43C278.47 358.17 278.74 356.88 279.08 355.63C266.93 337.43 259.03 318.12 253.94 296.89C255.71 293.2 261.16 291.16 262.44 296.23C266.96 314.09 272.38 330.56 281.75 346.46C282.04 345.46 282.38 344.46 282.68 343.46C273.06 325.29 266.42 306.08 263.73 285.65C265.73 282.29 271.47 280.35 272.33 285.35C275.28 302.52 278.76 318.91 286.14 334.69C286.524 333.741 286.958 332.813 287.44 331.91C279.34 313.25 276.21 293.37 274.14 273.3C276.42 270.01 282.43 268.69 283.09 273.55C285.36 290.5 285.79 307.41 291.97 323.43C292.36 322.67 292.83 321.94 293.25 321.19C286.97 303.44 286.63 283.34 285.33 264.74C287.72 261.59 293.9 260.65 294.4 265.38C296.09 281.3 295.28 297.38 298.69 312.84C299.17 312.09 299.69 311.37 300.22 310.63C296.81 293.4 297.87 274.35 296.86 256.81C299.4 253.81 305.63 253.14 306.1 257.81C307.63 272.98 307.33 287.67 308.1 302.74C308.84 302.06 309.65 301.41 310.41 300.74C309.95 283.62 309.54 266.48 308.57 249.42C311.22 246.42 317.41 246.14 317.88 250.76C319.34 265.16 318.81 279.09 319.34 293.4C320.09 292.75 320.91 292.13 321.71 291.52C321.61 275.18 321.06 258.85 320.31 242.52C323.05 239.64 329.18 239.52 329.62 244.11C330.94 257.82 330.62 271.05 330.87 284.66C331.63 284.07 332.47 283.5 333.26 282.92C333.26 267.25 332.66 251.59 332.05 235.92C334.77 233.2 340.94 233.05 341.36 237.61C342.58 250.67 342.24 263.37 342.36 276.36C343.11 275.78 343.95 275.23 344.73 274.67C344.73 259.67 344.43 244.67 343.73 229.67C346.99 227.27 351.8 226.73 353.31 231.33C353.78 243.67 353.72 256.03 353.73 268.38L356.07 266.75C356.07 252.47 357.01 237.68 355.25 223.5C358.3 221.04 362.74 220.15 364.7 224.38C366.38 236.38 364.7 248.56 364.84 260.58C365.59 260.04 366.33 259.49 367.07 258.94C366.85 244.67 368.97 230.64 365.48 216.57C368.07 213.75 371.99 212.18 374.36 216.13C377.61 227.95 377.17 239.41 376.36 251.53C377.26 250.75 378.14 249.96 379.03 249.18C379.91 234.76 379.14 221.63 373.55 208.18C375.11 204.43 378.69 202.99 381.7 206.23C387.16 216.56 388.75 227.65 388.96 239.23L391.37 236.47C390.64 222.54 386.98 209.74 379.14 198.08C380.14 194.08 383.26 191.89 386.77 194.96C392.98 204.33 397.69 213.96 399.53 225.14C400.16 224.14 400.76 223.14 401.31 222.09C398.31 208.59 390.86 198.01 383.31 186.73C383.94 182.44 386.92 180.1 390.73 183.06C396.61 191.51 403.6 199.84 406.81 209.76C407.559 207.87 408.18 205.932 408.67 203.96C404.05 195.21 397.67 187.53 391.81 179.52C392.29 176.32 394.63 174.22 397.55 176.52C401.86 182.75 406.34 188.85 410.82 194.96L411.3 192.39C408.3 186.25 405.58 180.03 402.71 173.85C403.56 171.63 405.58 170.53 407.34 172.6C409.61 177.73 411.87 182.97 414.05 188.08C417.65 184.82 422.56 178.87 425.76 176.16C428.96 173.45 429.43 176.93 429.85 178.58C424.78 183.7 419.85 188.63 414.71 193.58C414.57 194.46 414.29 195.49 414.24 196.27C420.13 192.98 428.46 186.27 433.6 183.58C438.74 180.89 438.21 186.01 438.29 188.27C429.29 194 420.63 199.47 411.94 205.42C411.35 207.56 410.49 209.89 409.8 211.82C418.3 207.09 430.17 197 437.6 193.07C445.03 189.14 443.28 197.41 443.35 200.12C430.35 208.8 417.85 217.35 404.04 224.42C403.5 225.42 402.62 226.65 402.18 227.42C413.02 223.85 427.23 212.42 435.66 207.82C444.09 203.22 440.17 214.12 440.41 216.04C425.63 225.7 410.69 234.62 393.68 239.09C392.92 239.97 391.89 241.09 391.3 241.85C404.1 239.77 421.35 229.85 431.11 224.85C440.87 219.85 434.33 232.44 434.3 234.06C417.899 243.392 399.865 249.501 381.17 252.06C380.4 252.77 379.24 253.73 378.68 254.26C392.61 253.88 412.44 246.09 423.46 242.26C434.48 238.43 425.46 250.26 425.46 251.71C407.645 258.909 388.525 262.314 369.32 261.71C368.66 262.24 367.57 262.98 367.16 263.39C381.09 265.22 401.9 260.65 413.38 258.23C424.86 255.81 414.73 265.83 414.61 267.52C395.53 271.47 377.16 271.6 358.11 269.75C357.363 270.234 356.645 270.761 355.96 271.33C369.21 273.77 390.96 272.66 402.16 271.94C413.36 271.22 403.65 278.59 403.16 280.48C383.97 281.8 365.49 279.7 346.73 277.63C345.96 278.17 345.17 278.76 344.37 279.29C360.43 281.29 376.06 282.29 392.37 283.08C397.89 283.34 396.03 288.95 392.29 291C373.29 290.74 354.23 287.75 335.29 285.83C334.49 286.4 333.69 287.01 332.89 287.56C349.24 289.43 365.6 290.95 381.96 292.76C387.28 293.35 385.96 298.3 382.32 300.4C362.76 298.8 343.32 296.19 323.74 294.4C322.95 295.02 322.15 295.66 321.37 296.26C338.37 297.81 355.53 299.43 372.37 301.74C377.64 302.46 376.45 307.15 373.02 309.36C352.83 307.36 332.7 304.69 312.44 303.63L310.13 305.63C327.81 306.82 345.79 308.29 363.27 310.72C368.52 311.45 367.48 316.11 364.07 318.34C343.65 316.34 323.07 313.67 302.57 313.49C302.08 314.21 301.57 314.96 301.08 315.66C318.8 315.84 336.88 317.66 354.4 319.82C359.48 320.46 358.99 325.13 355.6 327.55C335.7 325.61 315.87 324.04 295.88 323.94L294.62 326.09C311.87 326.44 329.08 327.16 346.2 329.17C350.99 329.73 351.3 334.29 348 336.97C328.76 335.13 309.53 333.54 290.19 334.55C289.67 335.63 289.19 336.74 288.78 337.83C304.552 336.735 320.391 337.127 336.09 339C340.49 339.48 341.61 343.76 338.62 346.67C320.95 345.23 303.07 344.13 285.43 346.43C285.23 347.04 285.04 347.69 284.84 348.29C299.47 346.455 314.259 346.274 328.93 347.75C333.06 348.12 334.5 352.37 332.06 355.43C315.6 354.5 298.51 353.65 282.33 357.34C282.08 358.46 281.84 359.61 281.58 360.71C295.13 357.56 308.63 357.4 322.58 358.04C326.58 358.23 327.83 362.91 325.63 365.87C309.82 366.08 294.7 365.82 279.33 370.09C278.73 372 278.04 373.84 277.27 375.7L273.85 374.28Z" fill="#FFD084"/>
<g opacity="0.3">
<path opacity="0.3" d="M273.85 374.28C274.48 372.55 275.01 370.79 275.55 369.04C262.73 350.21 251.9 332.36 245.22 310.35C246.97 306.58 251.79 304.43 253.51 309.54C259.6 327.66 267.17 343.78 278.22 359.43C278.47 358.17 278.74 356.88 279.08 355.63C266.93 337.43 259.03 318.12 253.94 296.89C255.71 293.2 261.16 291.16 262.44 296.23C266.96 314.09 272.38 330.56 281.75 346.46C282.04 345.46 282.38 344.46 282.68 343.46C273.06 325.29 266.42 306.08 263.73 285.65C265.73 282.29 271.47 280.35 272.33 285.35C275.28 302.52 278.76 318.91 286.14 334.69C286.524 333.741 286.958 332.813 287.44 331.91C279.34 313.25 276.21 293.37 274.14 273.3C276.42 270.01 282.43 268.69 283.09 273.55C285.36 290.5 285.79 307.41 291.97 323.43C292.36 322.67 292.83 321.94 293.25 321.19C286.97 303.44 286.63 283.34 285.33 264.74C287.72 261.59 293.9 260.65 294.4 265.38C296.09 281.3 295.28 297.38 298.69 312.84C299.17 312.09 299.69 311.37 300.22 310.63C296.81 293.4 297.87 274.35 296.86 256.81C299.4 253.81 305.63 253.14 306.1 257.81C307.63 272.98 307.33 287.67 308.1 302.74C308.84 302.06 309.65 301.41 310.41 300.74C309.95 283.62 309.54 266.48 308.57 249.42C311.22 246.42 317.41 246.14 317.88 250.76C319.34 265.16 318.81 279.09 319.34 293.4C320.09 292.75 320.91 292.13 321.71 291.52C321.61 275.18 321.06 258.85 320.31 242.52C323.05 239.64 329.18 239.52 329.62 244.11C330.94 257.82 330.62 271.05 330.87 284.66C331.63 284.07 332.47 283.5 333.26 282.92C333.26 267.25 332.66 251.59 332.05 235.92C334.77 233.2 340.94 233.05 341.36 237.61C342.58 250.67 342.24 263.37 342.36 276.36C343.11 275.78 343.95 275.23 344.73 274.67C344.73 259.67 344.43 244.67 343.73 229.67C346.99 227.27 351.8 226.73 353.31 231.33C353.78 243.67 353.72 256.03 353.73 268.38L356.07 266.75C356.07 252.47 357.01 237.68 355.25 223.5C358.3 221.04 362.74 220.15 364.7 224.38C366.38 236.38 364.7 248.56 364.84 260.58C365.59 260.04 366.33 259.49 367.07 258.94C366.85 244.67 368.97 230.64 365.48 216.57C368.07 213.75 371.99 212.18 374.36 216.13C377.61 227.95 377.17 239.41 376.36 251.53C377.26 250.75 378.14 249.96 379.03 249.18C379.91 234.76 379.14 221.63 373.55 208.18C375.11 204.43 378.69 202.99 381.7 206.23C387.16 216.56 388.75 227.65 388.96 239.23L391.37 236.47C390.64 222.54 386.98 209.74 379.14 198.08C380.14 194.08 383.26 191.89 386.77 194.96C392.98 204.33 397.69 213.96 399.53 225.14C400.16 224.14 400.76 223.14 401.31 222.09C398.31 208.59 390.86 198.01 383.31 186.73C383.94 182.44 386.92 180.1 390.73 183.06C396.61 191.51 403.6 199.84 406.81 209.76C407.559 207.87 408.18 205.932 408.67 203.96C404.05 195.21 397.67 187.53 391.81 179.52C392.29 176.32 394.63 174.22 397.55 176.52C401.86 182.75 406.34 188.85 410.82 194.96L411.3 192.39C408.3 186.25 405.58 180.03 402.71 173.85C403.56 171.63 405.58 170.53 407.34 172.6C409.61 177.73 411.87 182.97 414.05 188.08C417.65 184.82 422.56 178.87 425.76 176.16C428.96 173.45 429.43 176.93 429.85 178.58C424.78 183.7 419.85 188.63 414.71 193.58C414.57 194.46 414.29 195.49 414.24 196.27C420.13 192.98 428.46 186.27 433.6 183.58C438.74 180.89 438.21 186.01 438.29 188.27C429.29 194 420.63 199.47 411.94 205.42C411.35 207.56 410.49 209.89 409.8 211.82C418.3 207.09 430.17 197 437.6 193.07C445.03 189.14 443.28 197.41 443.35 200.12C430.35 208.8 417.85 217.35 404.04 224.42C403.5 225.42 402.62 226.65 402.18 227.42C413.02 223.85 427.23 212.42 435.66 207.82C444.09 203.22 440.17 214.12 440.41 216.04C425.63 225.7 410.69 234.62 393.68 239.09C392.92 239.97 391.89 241.09 391.3 241.85C404.1 239.77 421.35 229.85 431.11 224.85C440.87 219.85 434.33 232.44 434.3 234.06C417.899 243.392 399.865 249.501 381.17 252.06C380.4 252.77 379.24 253.73 378.68 254.26C392.61 253.88 412.44 246.09 423.46 242.26C434.48 238.43 425.46 250.26 425.46 251.71C407.645 258.909 388.525 262.314 369.32 261.71C368.66 262.24 367.57 262.98 367.16 263.39C381.09 265.22 401.9 260.65 413.38 258.23C424.86 255.81 414.73 265.83 414.61 267.52C395.53 271.47 377.16 271.6 358.11 269.75C357.363 270.234 356.645 270.761 355.96 271.33C369.21 273.77 390.96 272.66 402.16 271.94C413.36 271.22 403.65 278.59 403.16 280.48C383.97 281.8 365.49 279.7 346.73 277.63C345.96 278.17 345.17 278.76 344.37 279.29C360.43 281.29 376.06 282.29 392.37 283.08C397.89 283.34 396.03 288.95 392.29 291C373.29 290.74 354.23 287.75 335.29 285.83C334.49 286.4 333.69 287.01 332.89 287.56C349.24 289.43 365.6 290.95 381.96 292.76C387.28 293.35 385.96 298.3 382.32 300.4C362.76 298.8 343.32 296.19 323.74 294.4C322.95 295.02 322.15 295.66 321.37 296.26C338.37 297.81 355.53 299.43 372.37 301.74C377.64 302.46 376.45 307.15 373.02 309.36C352.83 307.36 332.7 304.69 312.44 303.63L310.13 305.63C327.81 306.82 345.79 308.29 363.27 310.72C368.52 311.45 367.48 316.11 364.07 318.34C343.65 316.34 323.07 313.67 302.57 313.49C302.08 314.21 301.57 314.96 301.08 315.66C318.8 315.84 336.88 317.66 354.4 319.82C359.48 320.46 358.99 325.13 355.6 327.55C335.7 325.61 315.87 324.04 295.88 323.94L294.62 326.09C311.87 326.44 329.08 327.16 346.2 329.17C350.99 329.73 351.3 334.29 348 336.97C328.76 335.13 309.53 333.54 290.19 334.55C289.67 335.63 289.19 336.74 288.78 337.83C304.552 336.735 320.391 337.127 336.09 339C340.49 339.48 341.61 343.76 338.62 346.67C320.95 345.23 303.07 344.13 285.43 346.43C285.23 347.04 285.04 347.69 284.84 348.29C299.47 346.455 314.259 346.274 328.93 347.75C333.06 348.12 334.5 352.37 332.06 355.43C315.6 354.5 298.51 353.65 282.33 357.34C282.08 358.46 281.84 359.61 281.58 360.71C295.13 357.56 308.63 357.4 322.58 358.04C326.58 358.23 327.83 362.91 325.63 365.87C309.82 366.08 294.7 365.82 279.33 370.09C278.73 372 278.04 373.84 277.27 375.7L273.85 374.28Z" fill="white"/>
</g>
<path d="M213.71 213.56C215.25 212.56 216.85 211.65 218.43 210.73C239.66 219.02 259.43 225.59 282.43 227.18C285.72 224.63 286.73 219.45 281.37 218.92C262.37 217.03 244.94 213.26 227.22 205.98C228.39 205.45 229.59 204.91 230.73 204.3C251.18 212.07 271.73 215.45 293.6 215.67C296.8 213.12 297.6 207.35 292.34 207.23C273.92 206.83 256.66 205.23 239.07 199.64C239.99 199.14 240.9 198.58 241.82 198.06C261.68 203.37 281.89 205.55 302.41 203.6C305.23 200.9 305.84 194.88 300.78 195.16C283.38 196.16 266.63 196.39 249.6 192.73C250.436 192.143 251.24 191.512 252.01 190.84C272.01 194.56 292.09 193.17 312.12 190.7C314.81 187.75 314.75 181.59 309.87 182.04C292.87 183.61 276.27 186.97 259.27 184.53C259.92 183.97 260.53 183.36 261.17 182.78C279.87 184.94 299.54 180.78 317.95 177.88C320.49 174.88 320.03 168.61 315.31 169.18C299.41 171.09 283.95 175.47 268.09 175.61C268.71 174.98 269.29 174.28 269.9 173.61C287.45 173.09 305.79 167.8 323.12 164.86C325.51 161.7 324.72 155.49 320.05 156.08C304.92 157.98 290.67 161.56 275.81 164.17C276.31 163.3 276.76 162.37 277.25 161.47C294.03 158.1 310.83 154.66 327.68 151.8C329.98 148.56 328.9 142.45 324.29 143.02C309.93 144.81 296.47 148.45 282.4 151.13C282.86 150.25 283.28 149.31 283.7 148.4C299.7 144.85 315.7 141.73 331.75 138.81C333.95 135.51 332.69 129.51 328.13 130.1C314.47 131.88 301.65 135.16 288.32 137.94C288.73 137.07 289.1 136.13 289.49 135.23C304.75 131.71 320.15 128.81 335.49 125.91C337.49 122.65 336.3 116.61 331.76 117.21C318.76 118.94 306.45 122.11 293.76 124.86C294.15 124 294.5 123.06 294.88 122.17C309.5 118.81 324.21 115.75 338.98 113.11C340.6 109.4 340.05 104.59 335.23 104.11C323.09 106.4 311.06 109.23 299.02 111.98C299.38 111.1 299.73 110.22 300.09 109.33C314 106.14 328.21 101.92 342.43 100.47C344.14 96.9399 344.01 92.4699 339.43 91.4699C327.43 92.4699 315.88 96.9099 304.11 99.4699L305.22 96.9299C319.22 93.9299 332.38 88.7599 346.88 89.0199C349.04 85.8599 349.7 81.6899 345.31 80.2599C333.07 79.7399 322 82.7299 310.37 86.2599C310.92 85.2599 311.5 84.1799 312.06 83.1399C326 78.9999 338.93 76.8299 353.31 79.2699C356.62 76.9099 357.22 73.0999 353.38 70.8899C342.1 67.8899 330.93 68.8099 319.63 71.1799C320.35 70.1799 321.06 69.1799 321.78 68.1799C335.53 65.7799 348.78 66.4799 361.93 71.5199C365.64 69.6599 367.05 66.1099 363.27 63.3899C352.75 59.3899 342.33 56.9799 331 57.6899C331.84 56.8499 332.68 56.0499 333.58 55.2699C347.41 55.2199 359.38 60.0799 372.07 64.9599C376.07 63.3799 377.73 59.9599 373.99 56.8999C364.44 53.0599 354.76 48.1099 344.37 47.1899C346.048 46.0422 347.798 45.0035 349.61 44.0799C359.17 46.6399 368.1 51.1799 377.2 55.0799C380.2 53.8899 381.74 51.1499 378.8 48.8199C371.8 46.0099 364.8 43.0099 357.86 40.0099L360.26 39.0099C366.9 40.5199 373.58 41.8199 380.26 43.2299C382.26 41.9099 382.86 39.6999 380.44 38.4499C374.94 37.3799 369.32 36.3399 363.86 35.3599C366.23 31.1199 370.93 25.0099 372.86 21.2899C374.79 17.5699 371.28 17.8799 369.58 17.8399C365.73 23.9299 362.02 29.8399 358.4 35.9399C357.57 36.2699 356.63 36.7699 355.88 36.9399C357.78 30.4699 362.4 20.8699 363.88 15.2399C365.36 9.60993 360.48 11.2899 358.26 11.7099C354.68 21.7099 351.26 31.4399 347.44 41.2299C345.44 42.2899 343.44 43.6499 341.68 44.7499C344.39 35.3999 351.57 21.5899 353.74 13.4599C355.91 5.32993 348.24 8.88993 345.58 9.45993C340.04 24.1099 334.49 38.1599 330.69 53.1999C329.84 53.9499 328.83 55.0899 328.14 55.6899C329.2 44.3299 337.14 27.9199 339.77 18.6899C342.4 9.45993 332.62 15.6899 330.69 15.8899C324.58 32.4599 319.23 49.0199 318.69 66.5999C318 67.5299 317.09 68.7999 316.53 69.5299C315.7 56.5899 321.53 37.5299 324.25 26.9199C326.97 16.3099 316.13 25.4799 314.56 25.8699C309.129 43.9382 307.204 62.8785 308.89 81.6699C308.38 82.5899 307.7 83.9299 307.3 84.5999C304.56 70.9399 307.73 49.8599 308.98 38.2699C310.23 26.6799 300.74 38.1099 299.32 38.4699C296.276 57.4572 297.226 76.8707 302.11 95.4699C301.74 96.2299 301.26 97.4699 300.96 97.9599C296.06 84.7899 295.86 63.4799 295.65 51.7499C295.44 40.0199 287.94 52.1399 286.32 52.6299C286.73 72.1099 290.71 90.0399 296.78 108.2C296.47 109.035 296.116 109.852 295.72 110.65C290.38 98.2799 286.6 76.8399 284.79 65.7499C282.98 54.6599 277.98 65.7499 276.24 66.6699C279.24 85.6699 285.42 103.21 291.64 121.02C291.28 121.9 290.88 122.8 290.55 123.7C285.01 108.5 280.55 93.4899 276.13 77.7899C274.64 72.4699 269.59 75.5399 268.43 79.6399C272.93 98.1299 280.1 116.01 286.21 134.04C285.83 134.94 285.41 135.86 285.05 136.76C279.58 121.24 274.44 105.63 269.05 90.0899C267.28 85.0899 262.75 87.4399 261.52 91.4499C267.46 110.16 274.35 128.55 280.45 147.2C280.03 148.11 279.58 149.04 279.17 149.94C273.87 133.74 268.45 117.35 262.43 101.46C260.55 96.4599 256.25 98.6899 254.86 102.53C261.35 121.75 268.42 140.79 273.99 160.3L272.55 163C267.44 146 261.99 128.83 255.72 112.34C253.83 107.34 249.52 109.44 248.11 113.27C254.6 132.73 261.82 152.16 266.58 172.12C265.99 172.77 265.37 173.43 264.8 174.12C260.66 156.88 254.88 139.66 248.8 123.07C247.04 118.26 242.6 119.79 241 123.63C247.34 142.63 253.3 161.57 257.87 181.03L256.06 182.74C251.86 166.01 247.31 149.39 241.53 133.15C239.91 128.61 235.4 129.33 233.53 133.15C239.63 151.5 245.47 169.88 248.81 188.96C247.88 189.7 246.9 190.4 245.92 191.07C243.463 175.375 239.522 159.95 234.15 145C232.69 140.82 228.27 140.69 226.1 144.25C231.46 161.15 236.53 178.33 238.23 196.04L236.54 197.04C235.061 182.368 231.931 167.91 227.21 153.94C225.93 150 221.46 149.55 219.03 152.61C223.62 168.45 228.27 184.92 228.28 201.51C227.28 202.01 226.18 202.51 225.16 203C225.21 189.08 222.35 175.89 218.61 162.46C217.54 158.64 212.69 158.46 210.3 161.24C213.63 176.69 217.3 191.37 216.53 207.31C214.8 208.31 213.16 209.4 211.53 210.57L213.71 213.56Z" fill="#FFD084"/>
<g opacity="0.3">
<path opacity="0.3" d="M213.71 213.56C215.25 212.56 216.85 211.65 218.43 210.73C239.66 219.02 259.43 225.59 282.43 227.18C285.72 224.63 286.73 219.45 281.37 218.92C262.37 217.03 244.94 213.26 227.22 205.98C228.39 205.45 229.59 204.91 230.73 204.3C251.18 212.07 271.73 215.45 293.6 215.67C296.8 213.12 297.6 207.35 292.34 207.23C273.92 206.83 256.66 205.23 239.07 199.64C239.99 199.14 240.9 198.58 241.82 198.06C261.68 203.37 281.89 205.55 302.41 203.6C305.23 200.9 305.84 194.88 300.78 195.16C283.38 196.16 266.63 196.39 249.6 192.73C250.436 192.143 251.24 191.512 252.01 190.84C272.01 194.56 292.09 193.17 312.12 190.7C314.81 187.75 314.75 181.59 309.87 182.04C292.87 183.61 276.27 186.97 259.27 184.53C259.92 183.97 260.53 183.36 261.17 182.78C279.87 184.94 299.54 180.78 317.95 177.88C320.49 174.88 320.03 168.61 315.31 169.18C299.41 171.09 283.95 175.47 268.09 175.61C268.71 174.98 269.29 174.28 269.9 173.61C287.45 173.09 305.79 167.8 323.12 164.86C325.51 161.7 324.72 155.49 320.05 156.08C304.92 157.98 290.67 161.56 275.81 164.17C276.31 163.3 276.76 162.37 277.25 161.47C294.03 158.1 310.83 154.66 327.68 151.8C329.98 148.56 328.9 142.45 324.29 143.02C309.93 144.81 296.47 148.45 282.4 151.13C282.86 150.25 283.28 149.31 283.7 148.4C299.7 144.85 315.7 141.73 331.75 138.81C333.95 135.51 332.69 129.51 328.13 130.1C314.47 131.88 301.65 135.16 288.32 137.94C288.73 137.07 289.1 136.13 289.49 135.23C304.75 131.71 320.15 128.81 335.49 125.91C337.49 122.65 336.3 116.61 331.76 117.21C318.76 118.94 306.45 122.11 293.76 124.86C294.15 124 294.5 123.06 294.88 122.17C309.5 118.81 324.21 115.75 338.98 113.11C340.6 109.4 340.05 104.59 335.23 104.11C323.09 106.4 311.06 109.23 299.02 111.98C299.38 111.1 299.73 110.22 300.09 109.33C314 106.14 328.21 101.92 342.43 100.47C344.14 96.9399 344.01 92.4699 339.43 91.4699C327.43 92.4699 315.88 96.9099 304.11 99.4699L305.22 96.9299C319.22 93.9299 332.38 88.7599 346.88 89.0199C349.04 85.8599 349.7 81.6899 345.31 80.2599C333.07 79.7399 322 82.7299 310.37 86.2599C310.92 85.2599 311.5 84.1799 312.06 83.1399C326 78.9999 338.93 76.8299 353.31 79.2699C356.62 76.9099 357.22 73.0999 353.38 70.8899C342.1 67.8899 330.93 68.8099 319.63 71.1799C320.35 70.1799 321.06 69.1799 321.78 68.1799C335.53 65.7799 348.78 66.4799 361.93 71.5199C365.64 69.6599 367.05 66.1099 363.27 63.3899C352.75 59.3899 342.33 56.9799 331 57.6899C331.84 56.8499 332.68 56.0499 333.58 55.2699C347.41 55.2199 359.38 60.0799 372.07 64.9599C376.07 63.3799 377.73 59.9599 373.99 56.8999C364.44 53.0599 354.76 48.1099 344.37 47.1899C346.048 46.0422 347.798 45.0035 349.61 44.0799C359.17 46.6399 368.1 51.1799 377.2 55.0799C380.2 53.8899 381.74 51.1499 378.8 48.8199C371.8 46.0099 364.8 43.0099 357.86 40.0099L360.26 39.0099C366.9 40.5199 373.58 41.8199 380.26 43.2299C382.26 41.9099 382.86 39.6999 380.44 38.4499C374.94 37.3799 369.32 36.3399 363.86 35.3599C366.23 31.1199 370.93 25.0099 372.86 21.2899C374.79 17.5699 371.28 17.8799 369.58 17.8399C365.73 23.9299 362.02 29.8399 358.4 35.9399C357.57 36.2699 356.63 36.7699 355.88 36.9399C357.78 30.4699 362.4 20.8699 363.88 15.2399C365.36 9.60993 360.48 11.2899 358.26 11.7099C354.68 21.7099 351.26 31.4399 347.44 41.2299C345.44 42.2899 343.44 43.6499 341.68 44.7499C344.39 35.3999 351.57 21.5899 353.74 13.4599C355.91 5.32993 348.24 8.88993 345.58 9.45993C340.04 24.1099 334.49 38.1599 330.69 53.1999C329.84 53.9499 328.83 55.0899 328.14 55.6899C329.2 44.3299 337.14 27.9199 339.77 18.6899C342.4 9.45993 332.62 15.6899 330.69 15.8899C324.58 32.4599 319.23 49.0199 318.69 66.5999C318 67.5299 317.09 68.7999 316.53 69.5299C315.7 56.5899 321.53 37.5299 324.25 26.9199C326.97 16.3099 316.13 25.4799 314.56 25.8699C309.129 43.9382 307.204 62.8785 308.89 81.6699C308.38 82.5899 307.7 83.9299 307.3 84.5999C304.56 70.9399 307.73 49.8599 308.98 38.2699C310.23 26.6799 300.74 38.1099 299.32 38.4699C296.276 57.4572 297.226 76.8707 302.11 95.4699C301.74 96.2299 301.26 97.4699 300.96 97.9599C296.06 84.7899 295.86 63.4799 295.65 51.7499C295.44 40.0199 287.94 52.1399 286.32 52.6299C286.73 72.1099 290.71 90.0399 296.78 108.2C296.47 109.035 296.116 109.852 295.72 110.65C290.38 98.2799 286.6 76.8399 284.79 65.7499C282.98 54.6599 277.98 65.7499 276.24 66.6699C279.24 85.6699 285.42 103.21 291.64 121.02C291.28 121.9 290.88 122.8 290.55 123.7C285.01 108.5 280.55 93.4899 276.13 77.7899C274.64 72.4699 269.59 75.5399 268.43 79.6399C272.93 98.1299 280.1 116.01 286.21 134.04C285.83 134.94 285.41 135.86 285.05 136.76C279.58 121.24 274.44 105.63 269.05 90.0899C267.28 85.0899 262.75 87.4399 261.52 91.4499C267.46 110.16 274.35 128.55 280.45 147.2C280.03 148.11 279.58 149.04 279.17 149.94C273.87 133.74 268.45 117.35 262.43 101.46C260.55 96.4599 256.25 98.6899 254.86 102.53C261.35 121.75 268.42 140.79 273.99 160.3L272.55 163C267.44 146 261.99 128.83 255.72 112.34C253.83 107.34 249.52 109.44 248.11 113.27C254.6 132.73 261.82 152.16 266.58 172.12C265.99 172.77 265.37 173.43 264.8 174.12C260.66 156.88 254.88 139.66 248.8 123.07C247.04 118.26 242.6 119.79 241 123.63C247.34 142.63 253.3 161.57 257.87 181.03L256.06 182.74C251.86 166.01 247.31 149.39 241.53 133.15C239.91 128.61 235.4 129.33 233.53 133.15C239.63 151.5 245.47 169.88 248.81 188.96C247.88 189.7 246.9 190.4 245.92 191.07C243.463 175.375 239.522 159.95 234.15 145C232.69 140.82 228.27 140.69 226.1 144.25C231.46 161.15 236.53 178.33 238.23 196.04L236.54 197.04C235.061 182.368 231.931 167.91 227.21 153.94C225.93 150 221.46 149.55 219.03 152.61C223.62 168.45 228.27 184.92 228.28 201.51C227.28 202.01 226.18 202.51 225.16 203C225.21 189.08 222.35 175.89 218.61 162.46C217.54 158.64 212.69 158.46 210.3 161.24C213.63 176.69 217.3 191.37 216.53 207.31C214.8 208.31 213.16 209.4 211.53 210.57L213.71 213.56Z" fill="white"/>
</g>
<path d="M227.38 338C226.53 336.37 225.78 334.7 225.01 333C235.3 312.67 243.72 293.57 247.5 270.88C245.28 267.36 240.22 265.88 239.18 271.14C235.48 289.9 230.06 306.86 221.13 323.81C220.71 322.6 220.28 321.35 219.78 320.15C229.48 300.54 234.78 280.36 237.12 258.66C234.88 255.23 229.21 253.92 228.6 259.11C226.43 277.4 223.19 294.43 215.94 311.41C215.53 310.41 215.06 309.48 214.63 308.51C221.82 289.25 225.92 269.35 225.95 248.74C223.53 245.67 217.59 244.48 217.38 249.55C216.68 266.96 215.38 283.66 210.07 300.26C209.61 299.36 208.97 298.54 208.42 297.68C214 278.14 214.57 258 214 237.85C211.32 234.85 205.18 234.35 205.16 239.26C205.1 256.36 206.86 273.18 202.8 289.86C202.31 289.16 201.8 288.5 201.25 287.81C205.18 269.4 202.92 249.41 201.79 230.81C199.02 227.99 192.79 227.86 192.88 232.62C193.26 248.62 196.15 264.43 194.77 280.23C194.2 279.55 193.56 278.91 192.96 278.23C194.12 260.71 190.61 241.95 189.34 224.42C186.43 221.74 180.17 221.92 180.34 226.63C180.79 241.88 182.99 256.4 184.17 271.45C183.35 270.87 182.47 270.32 181.62 269.75C179.87 252.75 178.06 235.68 176.81 218.63C173.81 216.03 167.63 216.52 167.76 221.16C168.17 235.63 170.5 249.38 171.82 263.63C170.99 263.09 170.1 262.58 169.23 262.08C167.23 245.86 165.65 229.59 164.28 213.33C161.2 210.83 155.11 211.51 155.28 216.11C155.74 229.87 157.79 242.95 159.28 256.48C158.45 255.99 157.54 255.54 156.69 255.06C154.69 239.53 153.23 223.92 151.82 208.35C148.76 206 142.63 206.66 142.82 211.23C143.3 224.34 145.28 236.89 146.82 249.79C146 249.32 145.1 248.88 144.25 248.42C142.31 233.54 140.67 218.6 139.45 203.65C135.91 201.65 131.07 201.77 130.17 206.53C131.29 218.82 132.96 231.08 134.55 243.32L131.94 242C130.09 227.84 127.25 213.29 127.16 199C123.81 197 119.3 196.65 117.91 201.1C117.79 213.18 121.07 225.1 122.44 237.02L120 235.7C118.38 221.51 114.46 207.88 116.1 193.47C113.17 191.01 109.1 189.96 107.24 194.19C105.54 206.33 107.46 217.64 109.85 229.54C108.85 228.89 107.85 228.22 106.85 227.54C104.11 213.35 103.18 200.24 106.98 186.16C104.98 182.64 101.21 181.68 98.6499 185.28C94.5699 196.23 94.4299 207.43 95.7099 218.91L92.9999 216.51C91.9199 202.59 93.8899 189.43 100.16 176.86C98.6599 172.98 95.2699 171.25 92.1599 174.75C87.1599 184.84 83.7799 194.98 83.4099 206.32C82.6499 205.41 81.9299 204.49 81.2499 203.52C82.5199 189.75 88.4999 178.3 94.5699 166.14C93.4499 162 90.1999 160 86.7999 163.46C82.0599 172.59 76.2199 181.76 74.3099 192.01C73.3229 190.232 72.4543 188.392 71.7099 186.5C75.1699 177.23 80.5399 168.77 85.2799 160.08C84.3899 156.97 81.7999 155.19 79.1999 157.89C75.7299 164.63 72.0799 171.25 68.4299 177.89L67.6199 175.4C69.7599 168.93 71.6899 162.4 73.7399 155.9C72.6099 153.8 70.4699 152.98 68.9899 155.26C67.3999 160.64 65.8299 166.13 64.3399 171.47C60.3399 168.71 54.6999 163.47 51.1799 161.17C47.6599 158.87 47.6399 162.41 47.4399 164.1C53.1299 168.52 58.6399 172.77 64.4399 176.97C64.6899 177.82 65.0999 178.81 65.2399 179.57C58.9899 177.07 49.8599 171.57 44.3999 169.49C38.9399 167.41 40.1499 172.49 40.3999 174.75C50.0299 179.27 59.3999 183.58 68.7499 188.35C69.6199 190.35 70.7499 192.59 71.7499 194.42C62.7499 190.83 49.6399 182.35 41.7499 179.42C33.8599 176.49 36.6799 184.42 36.9599 187.15C51.0199 194.07 64.4799 200.94 79.0799 206.15C79.7499 207.06 80.7799 208.15 81.3199 208.92C69.9999 206.8 54.4099 197.3 45.4599 193.83C36.5099 190.36 41.7999 200.66 41.8099 202.6C57.7199 210.27 73.6799 217.18 91.1299 219.42C91.9899 220.19 93.1299 221.22 93.8399 221.85C80.8399 221.44 62.4899 213.78 52.1599 210.09C41.8299 206.4 49.9499 218.03 50.1599 219.64C67.6255 226.775 86.2934 230.509 105.16 230.64C106.02 231.24 107.29 232.04 107.92 232.5C94.0499 233.93 73.3799 228.76 61.9199 226.41C50.4599 224.06 60.9199 234.59 61.1999 236.04C79.8076 240.883 99.2209 241.792 118.2 238.71C118.93 239.15 120.1 239.71 120.57 240.09C106.99 243.71 85.7599 241.87 74.0599 240.96C62.3599 240.05 73.7099 248.67 74.0599 250.33C93.4899 251.78 111.72 249.54 130.37 245.23C131.08 245.65 132.27 246.15 132.71 246.52C119.89 250.65 98.1799 252.37 86.9699 253.1C75.7599 253.83 86.3599 259.89 87.0699 261.7C106.27 260.53 124.32 256.06 142.65 251.58C143.49 252.02 144.35 252.5 145.21 252.92C129.54 256.98 114.21 260.02 98.1299 262.92C92.6899 263.92 95.2599 269.21 99.2299 270.76C118.07 268.05 136.55 262.62 155.08 258.27C155.95 258.73 156.82 259.27 157.68 259.67C141.68 263.67 125.68 267.27 109.68 271.18C104.49 272.45 106.45 277.18 110.32 278.8C129.51 274.68 148.47 269.57 167.63 265.28C168.49 265.79 169.37 266.33 170.22 266.82C153.59 270.55 136.76 274.38 120.36 278.82C115.24 280.21 117.02 284.71 120.71 286.46C140.46 281.84 160.09 276.61 180.04 272.94L182.59 274.61C165.2 278.08 147.59 281.85 130.59 286.52C125.47 287.93 127.11 292.41 130.78 294.18C150.78 289.58 170.78 284.26 191.13 281.42L192.9 283.42C175.35 285.88 157.65 289.99 140.56 294.42C135.56 295.71 136.7 300.27 140.37 302.23C159.85 297.74 179.31 293.62 199.12 290.93L200.65 292.93C183.59 295.51 166.65 298.45 149.9 302.65C145.22 303.83 145.51 308.39 149.12 310.65C167.97 306.34 186.83 302.28 206.12 300.78C206.78 301.78 207.38 302.78 207.95 303.85C192.134 304.821 176.445 307.278 161.09 311.19C156.79 312.25 156.24 316.63 159.58 319.13C176.92 315.42 194.5 312.01 212.29 312.01C212.56 312.6 212.85 313.21 213.12 313.79C198.41 313.68 183.66 315.79 169.32 318.95C165.32 319.85 164.4 324.25 167.22 326.95C183.42 323.9 200.22 320.85 216.78 322.42C217.17 323.5 217.56 324.61 217.96 325.67C204.11 324.29 190.7 325.88 176.96 328.32C173.06 329.02 172.39 333.82 174.96 336.48C190.66 334.64 205.61 332.43 221.41 334.67C222.25 336.5 223.18 338.23 224.18 339.97L227.38 338Z" fill="#FFD084"/>
<g opacity="0.3">
<path opacity="0.3" d="M227.38 338C226.53 336.37 225.78 334.7 225.01 333C235.3 312.67 243.72 293.57 247.5 270.88C245.28 267.36 240.22 265.88 239.18 271.14C235.48 289.9 230.06 306.86 221.13 323.81C220.71 322.6 220.28 321.35 219.78 320.15C229.48 300.54 234.78 280.36 237.12 258.66C234.88 255.23 229.21 253.92 228.6 259.11C226.43 277.4 223.19 294.43 215.94 311.41C215.53 310.41 215.06 309.48 214.63 308.51C221.82 289.25 225.92 269.35 225.95 248.74C223.53 245.67 217.59 244.48 217.38 249.55C216.68 266.96 215.38 283.66 210.07 300.26C209.61 299.36 208.97 298.54 208.42 297.68C214 278.14 214.57 258 214 237.85C211.32 234.85 205.18 234.35 205.16 239.26C205.1 256.36 206.86 273.18 202.8 289.86C202.31 289.16 201.8 288.5 201.25 287.81C205.18 269.4 202.92 249.41 201.79 230.81C199.02 227.99 192.79 227.86 192.88 232.62C193.26 248.62 196.15 264.43 194.77 280.23C194.2 279.55 193.56 278.91 192.96 278.23C194.12 260.71 190.61 241.95 189.34 224.42C186.43 221.74 180.17 221.92 180.34 226.63C180.79 241.88 182.99 256.4 184.17 271.45C183.35 270.87 182.47 270.32 181.62 269.75C179.87 252.75 178.06 235.68 176.81 218.63C173.81 216.03 167.63 216.52 167.76 221.16C168.17 235.63 170.5 249.38 171.82 263.63C170.99 263.09 170.1 262.58 169.23 262.08C167.23 245.86 165.65 229.59 164.28 213.33C161.2 210.83 155.11 211.51 155.28 216.11C155.74 229.87 157.79 242.95 159.28 256.48C158.45 255.99 157.54 255.54 156.69 255.06C154.69 239.53 153.23 223.92 151.82 208.35C148.76 206 142.63 206.66 142.82 211.23C143.3 224.34 145.28 236.89 146.82 249.79C146 249.32 145.1 248.88 144.25 248.42C142.31 233.54 140.67 218.6 139.45 203.65C135.91 201.65 131.07 201.77 130.17 206.53C131.29 218.82 132.96 231.08 134.55 243.32L131.94 242C130.09 227.84 127.25 213.29 127.16 199C123.81 197 119.3 196.65 117.91 201.1C117.79 213.18 121.07 225.1 122.44 237.02L120 235.7C118.38 221.51 114.46 207.88 116.1 193.47C113.17 191.01 109.1 189.96 107.24 194.19C105.54 206.33 107.46 217.64 109.85 229.54C108.85 228.89 107.85 228.22 106.85 227.54C104.11 213.35 103.18 200.24 106.98 186.16C104.98 182.64 101.21 181.68 98.6499 185.28C94.5699 196.23 94.4299 207.43 95.7099 218.91L92.9999 216.51C91.9199 202.59 93.8899 189.43 100.16 176.86C98.6599 172.98 95.2699 171.25 92.1599 174.75C87.1599 184.84 83.7799 194.98 83.4099 206.32C82.6499 205.41 81.9299 204.49 81.2499 203.52C82.5199 189.75 88.4999 178.3 94.5699 166.14C93.4499 162 90.1999 160 86.7999 163.46C82.0599 172.59 76.2199 181.76 74.3099 192.01C73.3229 190.232 72.4543 188.392 71.7099 186.5C75.1699 177.23 80.5399 168.77 85.2799 160.08C84.3899 156.97 81.7999 155.19 79.1999 157.89C75.7299 164.63 72.0799 171.25 68.4299 177.89L67.6199 175.4C69.7599 168.93 71.6899 162.4 73.7399 155.9C72.6099 153.8 70.4699 152.98 68.9899 155.26C67.3999 160.64 65.8299 166.13 64.3399 171.47C60.3399 168.71 54.6999 163.47 51.1799 161.17C47.6599 158.87 47.6399 162.41 47.4399 164.1C53.1299 168.52 58.6399 172.77 64.4399 176.97C64.6899 177.82 65.0999 178.81 65.2399 179.57C58.9899 177.07 49.8599 171.57 44.3999 169.49C38.9399 167.41 40.1499 172.49 40.3999 174.75C50.0299 179.27 59.3999 183.58 68.7499 188.35C69.6199 190.35 70.7499 192.59 71.7499 194.42C62.7499 190.83 49.6399 182.35 41.7499 179.42C33.8599 176.49 36.6799 184.42 36.9599 187.15C51.0199 194.07 64.4799 200.94 79.0799 206.15C79.7499 207.06 80.7799 208.15 81.3199 208.92C69.9999 206.8 54.4099 197.3 45.4599 193.83C36.5099 190.36 41.7999 200.66 41.8099 202.6C57.7199 210.27 73.6799 217.18 91.1299 219.42C91.9899 220.19 93.1299 221.22 93.8399 221.85C80.8399 221.44 62.4899 213.78 52.1599 210.09C41.8299 206.4 49.9499 218.03 50.1599 219.64C67.6255 226.775 86.2934 230.509 105.16 230.64C106.02 231.24 107.29 232.04 107.92 232.5C94.0499 233.93 73.3799 228.76 61.9199 226.41C50.4599 224.06 60.9199 234.59 61.1999 236.04C79.8076 240.883 99.2209 241.792 118.2 238.71C118.93 239.15 120.1 239.71 120.57 240.09C106.99 243.71 85.7599 241.87 74.0599 240.96C62.3599 240.05 73.7099 248.67 74.0599 250.33C93.4899 251.78 111.72 249.54 130.37 245.23C131.08 245.65 132.27 246.15 132.71 246.52C119.89 250.65 98.1799 252.37 86.9699 253.1C75.7599 253.83 86.3599 259.89 87.0699 261.7C106.27 260.53 124.32 256.06 142.65 251.58C143.49 252.02 144.35 252.5 145.21 252.92C129.54 256.98 114.21 260.02 98.1299 262.92C92.6899 263.92 95.2599 269.21 99.2299 270.76C118.07 268.05 136.55 262.62 155.08 258.27C155.95 258.73 156.82 259.27 157.68 259.67C141.68 263.67 125.68 267.27 109.68 271.18C104.49 272.45 106.45 277.18 110.32 278.8C129.51 274.68 148.47 269.57 167.63 265.28C168.49 265.79 169.37 266.33 170.22 266.82C153.59 270.55 136.76 274.38 120.36 278.82C115.24 280.21 117.02 284.71 120.71 286.46C140.46 281.84 160.09 276.61 180.04 272.94L182.59 274.61C165.2 278.08 147.59 281.85 130.59 286.52C125.47 287.93 127.11 292.41 130.78 294.18C150.78 289.58 170.78 284.26 191.13 281.42L192.9 283.42C175.35 285.88 157.65 289.99 140.56 294.42C135.56 295.71 136.7 300.27 140.37 302.23C159.85 297.74 179.31 293.62 199.12 290.93L200.65 292.93C183.59 295.51 166.65 298.45 149.9 302.65C145.22 303.83 145.51 308.39 149.12 310.65C167.97 306.34 186.83 302.28 206.12 300.78C206.78 301.78 207.38 302.78 207.95 303.85C192.134 304.821 176.445 307.278 161.09 311.19C156.79 312.25 156.24 316.63 159.58 319.13C176.92 315.42 194.5 312.01 212.29 312.01C212.56 312.6 212.85 313.21 213.12 313.79C198.41 313.68 183.66 315.79 169.32 318.95C165.32 319.85 164.4 324.25 167.22 326.95C183.42 323.9 200.22 320.85 216.78 322.42C217.17 323.5 217.56 324.61 217.96 325.67C204.11 324.29 190.7 325.88 176.96 328.32C173.06 329.02 172.39 333.82 174.96 336.48C190.66 334.64 205.61 332.43 221.41 334.67C222.25 336.5 223.18 338.23 224.18 339.97L227.38 338Z" fill="white"/>
</g>
<path d="M305.795 47.808L170.233 67.4636C156.186 69.5003 146.45 82.5386 148.487 96.5854L198.494 441.479C200.53 455.526 213.569 465.262 227.616 463.225L363.178 443.57C377.225 441.533 386.961 428.495 384.924 414.448L334.917 69.5543C332.88 55.5074 319.842 45.7713 305.795 47.808Z" fill="#263238" stroke="#263238" stroke-miterlimit="10"/>
<path d="M328.72 72.6003L378.11 413.29C378.93 418.959 377.465 424.722 374.037 429.311C370.609 433.9 365.499 436.939 359.83 437.76L229.16 456.71C228.186 456.847 227.204 456.921 226.22 456.93C220.999 456.972 215.939 455.121 211.977 451.72C208.015 448.319 205.419 443.598 204.67 438.43L155.28 97.7403C154.46 92.0687 155.926 86.3036 159.356 81.7129C162.786 77.1221 167.899 74.0817 173.57 73.2603L177.37 72.7103C189.12 71.0103 200.93 69.5203 212.63 67.5903C212.63 67.6703 212.63 67.8203 212.63 67.9303C215.76 66.9303 220.96 67.6303 223.63 69.6103C227.85 72.7603 232.9 77.1803 238.63 76.9503C244.63 76.7003 248.63 71.2603 251.88 66.9503C255.56 62.0703 261.22 60.5903 267.04 59.7503L304.28 54.3503C309.94 53.5354 315.693 54.9993 320.275 58.4208C324.857 61.8423 327.894 66.9418 328.72 72.6003V72.6003Z" fill="white" stroke="#263238" stroke-linejoin="round"/>
<path opacity="0.1" d="M328.72 72.5998L335 116C319.58 141.22 278.28 176.8 230.46 211.37C204.58 230.09 188.54 246.52 178.67 259.15L163.45 154.15C164.73 151.63 166.14 149.04 167.68 146.38C186.18 114.54 238.42 88.2598 273.68 58.6798L304.23 54.2498C307.044 53.84 309.911 53.9901 312.667 54.6914C315.422 55.3927 318.012 56.6314 320.288 58.3365C322.563 60.0415 324.48 62.1793 325.927 64.627C327.374 67.0747 328.323 69.7842 328.72 72.5998V72.5998Z" fill="black"/>
<path opacity="0.1" d="M347.07 199.13L366.31 331.85C350.88 357.07 309.58 392.65 261.77 427.22C249.175 436.196 237.289 446.128 226.22 456.93C220.999 456.972 215.939 455.121 211.977 451.72C208.015 448.319 205.419 443.597 204.67 438.43L194.75 370C196.043 367.48 197.457 364.893 198.99 362.24C224.91 317.6 317.15 283.88 335.99 236.72C340.663 224.5 344.368 211.931 347.07 199.13Z" fill="black"/>
<path d="M242.25 68.0602C242.144 67.3147 241.82 66.6174 241.318 66.0561C240.816 65.4949 240.159 65.095 239.43 64.9069C238.701 64.7188 237.932 64.751 237.221 64.9993C236.511 65.2477 235.889 65.701 235.436 66.3022C234.983 66.9034 234.718 67.6255 234.674 68.3772C234.631 69.1289 234.811 69.8765 235.193 70.5258C235.574 71.175 236.139 71.6967 236.817 72.025C237.495 72.3532 238.254 72.4734 239 72.3702C240.002 72.2289 240.907 71.6956 241.517 70.8875C242.126 70.0794 242.39 69.0626 242.25 68.0602V68.0602Z" fill="#7D7D7D" stroke="white" stroke-miterlimit="10"/>
<path d="M347.67 158L340.53 108.74C341.427 108.611 342.337 108.843 343.063 109.385C343.788 109.927 344.269 110.734 344.4 111.63L350.56 154.14C350.689 155.035 350.457 155.944 349.915 156.668C349.373 157.392 348.565 157.871 347.67 158Z" fill="#263238" stroke="#263238" stroke-miterlimit="10"/>
<path d="M353.83 200.43L350.26 175.85C351.156 175.721 352.067 175.953 352.793 176.495C353.518 177.037 353.999 177.844 354.13 178.74L356.71 196.56C356.775 197.003 356.753 197.455 356.643 197.89C356.534 198.324 356.34 198.732 356.072 199.092C355.805 199.451 355.469 199.754 355.084 199.984C354.7 200.214 354.274 200.365 353.83 200.43V200.43Z" fill="#263238" stroke="#263238" stroke-miterlimit="10"/>
<path d="M309.103 62.8287L292.768 65.1387L294.035 74.0982L310.37 71.7882L309.103 62.8287Z" stroke="#263238" stroke-width="0.820944" stroke-linecap="round" stroke-linejoin="round"/>
<path d="M305.629 62.249L292.892 64.0957L294.191 73.052L306.928 71.2053L305.629 62.249Z" fill="#263238" stroke="#263238" stroke-width="0.725073" stroke-linecap="round" stroke-linejoin="round"/>
<path d="M311.841 63.8976L309.545 64.2305L310.117 68.1792L312.413 67.8463L311.841 63.8976Z" fill="#263238" stroke="#263238" stroke-width="0.725073" stroke-linecap="round" stroke-linejoin="round"/>
<path d="M168.094 85.0125L165.095 85.4473L165.84 90.5836L168.839 90.1488L168.094 85.0125Z" fill="#263238" stroke="#263238" stroke-width="0.883086" stroke-linecap="round" stroke-linejoin="round"/>
<path d="M172.529 82.533L169.53 82.9678L170.536 89.9052L173.535 89.4704L172.529 82.533Z" fill="#263238" stroke="#263238" stroke-width="0.883086" stroke-linecap="round" stroke-linejoin="round"/>
<path d="M176.927 79.7293L173.929 80.1641L175.243 89.2293L178.242 88.7945L176.927 79.7293Z" fill="#263238" stroke="#263238" stroke-width="0.883086" stroke-linecap="round" stroke-linejoin="round"/>
<path d="M306.78 361.2C306.594 361.023 306.371 360.89 306.127 360.81C305.883 360.731 305.624 360.707 305.37 360.74L270.97 365.74L268.97 361.1C268.829 360.762 268.58 360.479 268.261 360.298C267.942 360.117 267.573 360.048 267.21 360.1L255.83 361.75C255.391 361.814 254.995 362.049 254.73 362.404C254.464 362.76 254.351 363.206 254.415 363.645C254.478 364.084 254.714 364.48 255.069 364.745C255.425 365.01 255.871 365.124 256.31 365.06L266.43 363.59L275.37 383.92C275.417 384.159 275.516 384.384 275.66 384.58L279.19 392.58C279.334 392.918 279.585 393.2 279.905 393.38C280.225 393.561 280.596 393.631 280.96 393.58L300.17 390.8C300.609 390.736 301.004 390.501 301.27 390.146C301.535 389.79 301.648 389.344 301.585 388.905C301.521 388.466 301.286 388.07 300.93 387.805C300.575 387.54 300.129 387.426 299.69 387.49L281.74 390.09L279.46 384.92L303.69 381.41C304.051 381.356 304.385 381.185 304.639 380.923C304.894 380.661 305.056 380.323 305.1 379.96L307.3 362.59C307.325 362.334 307.292 362.075 307.202 361.834C307.111 361.593 306.967 361.376 306.78 361.2ZM303 369.64L299.84 370.09L297.84 365.21L303.69 364.36L303 369.64ZM302.22 375.8L301.17 373.28L302.56 373.08L302.22 375.8ZM294.1 379.43L292.1 374.6L297.76 373.77L299.76 378.61L294.1 379.43ZM285 380.75L283 375.91L288.66 375.09L290.66 379.93L285 380.75ZM285.29 367.02L287.29 371.91L281.62 372.73L279.62 367.85L285.29 367.02ZM294.37 365.71L296.37 370.59L290.7 371.41L288.7 366.53L294.37 365.71ZM276.22 368.34L278.22 373.22L274.45 373.77L272.31 368.9L276.22 368.34ZM275.88 376.94L279.58 376.41L281.58 381.24L277.99 381.76L275.88 376.94Z" fill="#263238"/>
<path d="M283.81 393.3C283.254 393.381 282.735 393.624 282.318 394C281.901 394.376 281.604 394.866 281.466 395.41C281.327 395.954 281.353 396.527 281.54 397.057C281.727 397.586 282.067 398.048 282.516 398.384C282.966 398.721 283.505 398.916 284.065 398.946C284.626 398.977 285.183 398.84 285.666 398.554C286.149 398.268 286.536 397.845 286.779 397.339C287.021 396.833 287.109 396.266 287.03 395.71C286.977 395.34 286.852 394.984 286.661 394.663C286.471 394.341 286.219 394.061 285.92 393.837C285.621 393.613 285.28 393.45 284.918 393.358C284.556 393.266 284.179 393.246 283.81 393.3V393.3Z" fill="#263238"/>
<path d="M297.49 391.32C296.934 391.401 296.415 391.645 295.997 392.021C295.58 392.397 295.284 392.889 295.146 393.433C295.009 393.978 295.035 394.551 295.223 395.08C295.411 395.61 295.752 396.071 296.202 396.407C296.653 396.743 297.193 396.937 297.754 396.966C298.315 396.995 298.871 396.857 299.354 396.569C299.836 396.282 300.223 395.857 300.464 395.35C300.705 394.843 300.791 394.276 300.71 393.72C300.601 392.975 300.201 392.303 299.597 391.853C298.993 391.403 298.235 391.211 297.49 391.32V391.32Z" fill="#263238"/>
<path d="M223.85 41.1404C223.85 41.1404 192.7 28.4504 181.85 23.6504C171 18.8504 134.39 17.1504 122.85 25.2004C111.31 33.2504 90.1198 72.6404 84.3498 85.5804C78.5798 98.5204 56.8598 124.62 58.9998 139C61.1398 153.38 79.6598 223.4 81.3698 226.34C83.0798 229.28 88.8698 234.17 93.1398 228.46C97.4098 222.75 122.71 152.07 122.97 149.46C123.23 146.85 126.45 134.32 126.45 134.32C126.19 135.985 126.356 137.689 126.931 139.273C127.506 140.857 128.472 142.27 129.74 143.38C134.12 147.2 147.04 139.6 153.61 127.81C160.18 116.02 161.06 104.42 184.14 92.1504C207.22 79.8804 226.64 68.7904 231.14 60.4804C235.64 52.1704 223.85 41.1404 223.85 41.1404Z" fill="#263238" stroke="#263238" stroke-miterlimit="10"/>
<path d="M118.52 249.911C120.39 262.841 108.77 282.911 95.84 284.751C82.91 286.591 69.84 270.171 67.95 257.241C67.0521 251.035 68.6542 244.727 72.4042 239.702C76.1543 234.677 81.7456 231.346 87.95 230.441C100.9 228.571 116.64 237.001 118.52 249.911Z" fill="white" stroke="#263238" stroke-linejoin="round"/>
<path d="M167.24 179.35C167.24 179.35 170.69 174.73 178.07 160.71C185.45 146.69 196 129.87 216 109.9C236 89.93 242.3 84.31 256.36 71.68C270.42 59.05 266.99 59.68 266.99 59.68L251.99 61.85C251.99 61.85 185.69 116.01 173.99 137.12C167.05 150.035 164.672 164.915 167.24 179.35V179.35Z" fill="#263238"/>
<path d="M205.33 50.8202C203.134 53.5077 200.772 56.0559 198.26 58.4502C194 62.5202 187.78 68.3002 184.38 70.8002C178.88 74.8002 162.19 85.8002 150.9 94.7302C139.61 103.66 127.42 130.87 125 136.82C123.28 141.07 124.71 145.12 127.16 148.02C129.61 150.92 136.5 159.25 137.24 161.58C137.98 163.91 137.24 169.74 140 175.02C143.09 180.86 156.83 193.38 163.87 187.02C166.03 185.08 169.47 175.24 170.21 171.89C170.95 168.54 179.79 137.2 194.26 124.95C208.73 112.7 236.07 88.4402 248.49 76.0802C255.925 68.6996 262.936 60.9037 269.49 52.7302C269.49 52.7302 269.94 47.3902 266.18 43.8802C262.42 40.3702 254.57 39.4702 246.85 39.3702C239.13 39.2702 237.57 34.2202 226.72 34.9802C218.75 35.5802 209.63 45.5302 205.33 50.8202Z" fill="white" stroke="#263238" stroke-linejoin="round"/>
<path d="M181.35 108.22C184.281 105.345 187.033 102.293 189.59 99.0801Z" fill="white"/>
<path d="M181.35 108.22C184.281 105.345 187.033 102.293 189.59 99.0801" stroke="#263238" stroke-linejoin="round"/>
<path d="M140.84 159.311C140.84 159.311 142.48 148.311 153.84 132.641C161.78 121.711 167.3 120.241 177.18 111.971" fill="white"/>
<path d="M140.84 159.311C140.84 159.311 142.48 148.311 153.84 132.641C161.78 121.711 167.3 120.241 177.18 111.971" stroke="#263238" stroke-linejoin="round"/>
<path d="M242.73 41.79C242.73 41.79 238.11 44.62 230 55.5Z" fill="white"/>
<path d="M242.73 41.79C242.73 41.79 238.11 44.62 230 55.5" stroke="#263238" stroke-linejoin="round"/>
<path d="M227.93 58.6699C227.93 58.6699 224.52 62.3999 222.66 64.4599Z" fill="white"/>
<path d="M227.93 58.6699C227.93 58.6699 224.52 62.3999 222.66 64.4599" stroke="#263238" stroke-linejoin="round"/>
<path d="M126.19 137.611L129.73 83.3906" stroke="white" stroke-linejoin="round"/>
<path d="M136.69 78.68L138.04 74.25" stroke="white" stroke-linejoin="round"/>
<path d="M128.05 107.021L135.82 81.5508" stroke="white" stroke-linejoin="round"/>
<path d="M339.016 183.68L175.629 208.623L186.768 281.588L350.155 256.644L339.016 183.68Z" fill="#263238"/>
<path d="M205.41 199.58L199.92 161.72C199.53 162.01 199.07 162.32 198.56 162.63L196.93 163.63L195.28 164.63C194.74 164.95 194.28 165.26 193.82 165.56L192.82 158.28C193.206 157.98 193.766 157.57 194.5 157.05C195.22 156.52 195.99 155.94 196.82 155.3C197.65 154.66 198.41 154.02 199.12 153.38C199.689 152.886 200.211 152.34 200.68 151.75L208.37 150.63L215.26 198.18L205.41 199.58Z" fill="#263238"/>
<path d="M222.84 197.051L221.84 190.131L230.69 171.001C231.357 169.594 231.987 168.224 232.58 166.891C233.158 165.604 233.61 164.264 233.93 162.891C234.228 161.578 234.282 160.223 234.09 158.891C234.015 157.799 233.57 156.766 232.83 155.961C232.512 155.672 232.132 155.46 231.72 155.342C231.307 155.224 230.872 155.203 230.45 155.281C229.997 155.32 229.556 155.451 229.154 155.664C228.752 155.877 228.397 156.168 228.11 156.521C227.586 157.26 227.287 158.135 227.25 159.041C227.184 160.156 227.235 161.276 227.4 162.381L227.74 164.731L218.23 166.101L217.87 163.581C217.448 161.009 217.533 158.38 218.12 155.841C218.657 153.573 219.891 151.53 221.65 150.001C223.779 148.3 226.358 147.257 229.07 147.001C233.33 146.394 236.707 147.034 239.2 148.921C241.693 150.807 243.227 153.731 243.8 157.691C244.079 159.511 244.035 161.366 243.67 163.171C243.289 164.939 242.712 166.66 241.95 168.301C241.183 169.987 240.35 171.757 239.45 173.611L232.65 187.841L246.56 185.841L247.67 193.531L222.84 197.051Z" fill="#263238"/>
<path d="M253.31 192.64L252 183.64L261 182.33L262.31 191.33L253.31 192.64Z" fill="#263238"/>
<path d="M272.74 189.82L267.25 152C266.85 152.29 266.4 152.6 265.88 152.91L264.26 153.91L262.6 154.91C262.07 155.23 261.6 155.54 261.15 155.84L260.15 148.56C260.54 148.26 261.1 147.85 261.82 147.33C262.54 146.81 263.32 146.22 264.15 145.58C264.98 144.94 265.74 144.3 266.45 143.66C267.012 143.15 267.53 142.595 268 142L275.69 140.88L282.58 188.43L272.74 189.82Z" fill="#263238"/>
<path d="M290.17 187.29L289.17 180.36L298 161.22C298.666 159.814 299.296 158.444 299.89 157.11C300.469 155.825 300.918 154.485 301.23 153.11C301.536 151.799 301.594 150.442 301.4 149.11C301.326 148.017 300.877 146.982 300.13 146.18C299.814 145.891 299.436 145.679 299.025 145.561C298.613 145.443 298.18 145.422 297.76 145.5C297.306 145.54 296.866 145.67 296.464 145.883C296.062 146.096 295.707 146.388 295.42 146.74C294.896 147.48 294.597 148.355 294.56 149.26C294.484 150.376 294.534 151.496 294.71 152.6L295.05 154.95L285.54 156.32L285.18 153.8C284.758 151.229 284.843 148.599 285.43 146.06C285.966 143.792 287.201 141.75 288.96 140.22C291.086 138.521 293.661 137.479 296.37 137.22C300.643 136.607 304.023 137.247 306.51 139.14C308.996 141.034 310.53 143.957 311.11 147.91C311.391 149.731 311.343 151.587 310.97 153.39C310.587 155.157 310.014 156.877 309.26 158.52C308.49 160.21 307.65 161.98 306.76 163.83L300 178L313.91 176L315.02 183.69L290.17 187.29Z" fill="#263238"/>
<path d="M218.47 351.88C214.692 352.555 210.806 352.297 207.15 351.13C203.952 349.974 201.239 347.771 199.45 344.88C197.209 341.1 195.732 336.918 195.1 332.57L208.1 328.67C208.441 331.115 209.069 333.511 209.97 335.81C210.487 337.263 211.406 338.539 212.62 339.49C213.623 340.166 214.847 340.431 216.04 340.23C217.65 340 218.63 339.3 218.96 338.13C219.291 336.97 219.369 335.753 219.19 334.56C218.897 331.959 217.803 329.513 216.06 327.56C214.122 325.562 211.942 323.815 209.57 322.36L202.7 318C199.775 316.176 197.142 313.92 194.89 311.31C192.518 308.394 191.039 304.856 190.63 301.12C189.77 295.18 190.87 290.383 193.93 286.73C196.99 283.077 201.546 280.813 207.6 279.94C210.703 279.354 213.905 279.556 216.91 280.53C219.228 281.37 221.272 282.83 222.82 284.75C224.28 286.591 225.417 288.667 226.18 290.89C226.909 292.982 227.471 295.129 227.86 297.31L214.78 300.88C214.42 298.807 214.03 297.023 213.61 295.53C213.318 294.277 212.708 293.12 211.84 292.17C211.424 291.791 210.924 291.518 210.381 291.374C209.838 291.229 209.268 291.218 208.72 291.34C208.069 291.4 207.45 291.647 206.937 292.052C206.424 292.457 206.04 293.001 205.83 293.62C205.356 294.817 205.194 296.114 205.36 297.39C205.588 299.672 206.565 301.813 208.14 303.48C209.867 305.137 211.753 306.62 213.77 307.91L220.31 312.18C223.677 314.28 226.71 316.872 229.31 319.87C232.048 323.228 233.759 327.304 234.24 331.61C234.731 334.73 234.403 337.924 233.29 340.88C232.185 343.763 230.302 346.284 227.85 348.16C225.1 350.195 221.867 351.478 218.47 351.88Z" fill="#263238"/>
<path d="M240.11 347.68L243.19 275.68L260.83 273.13L284 341.31L269.73 343.38L265.25 328.93L255 330.42L254.73 345.56L240.11 347.68ZM255 321L262.44 319.92L254.76 293.14L255 321Z" fill="#263238"/>
<path d="M290.44 340.381L280.28 270.381L295.76 268.141L304.4 327.721L320.48 325.391L322 335.811L290.44 340.381Z" fill="#263238"/>
<path d="M328.05 334.93L317.9 264.93L349.37 260.37L350.9 270.92L334.9 273.24L337.42 290.62L349.62 288.85L351.17 299.57L339 301.3L342 322.23L358.17 319.88L359.69 330.34L328.05 334.93Z" fill="#263238"/>
<path d="M184.4 212.81L200.4 210.49L209.23 236.19L210.78 208.99L226.28 206.74L235.87 265.71L224.11 267.41L219.95 243.46L219.25 268.12L208.93 269.61L200.83 245.66L203.85 270.35L191.95 272.07L184.4 212.81Z" fill="#FFD084"/>
<path d="M225 208.44L234.11 264.44L225.31 265.72L218.85 228.51L217.75 266.81L210 268L197.61 231.36L202.24 269.12L193.3 270.42L186.13 214.13L199.44 212.2L210.34 243.96L212.26 210.35L225 208.44ZM227.49 205.04L224.57 205.47L211.75 207.33L209.32 207.68L209.18 210.12L208.13 228.48L202.19 211.18L201.39 208.83L198.93 209.18L185.62 211.11L182.7 211.54L183.07 214.46L190.24 270.75L190.63 273.75L193.63 273.31L202.57 272.01L205.47 271.59L205.12 268.68L204.1 260L207.1 268.9L207.9 271.26L210.37 270.91L218.2 269.77L220.7 269.41L220.77 266.89L221.02 258.4L222.37 266.22L222.87 269.09L225.76 268.68L234.56 267.4L237.56 266.96L237.07 263.96L228 208L227.53 205.09L227.49 205.04Z" fill="#263238"/>
<path d="M231.58 205.97L259.78 201.88L261.44 213.31L248.61 215.17L250.2 226.13L259.98 224.71L261.65 236.28L251.88 237.69L253.88 251.5L266.84 249.62L268.49 260.98L240.15 265.08L231.58 205.97Z" fill="#FFD084"/>
<path d="M258.51 203.58L259.74 212.04L246.91 213.9L248.91 227.83L258.69 226.41L260 235L250.23 236.42L252.66 253.19L265.66 251.31L266.88 259.7L241.51 263.37L233.37 207.23L258.6 203.57L258.51 203.58ZM261.14 200.17L258.14 200.6L232.91 204.26L229.91 204.69L230.34 207.69L238.48 263.84L238.91 266.84L241.91 266.41L267.28 262.74L270.28 262.31L269.85 259.31L268.63 250.92L268.2 247.92L265.2 248.35L255.2 249.8L253.58 239L260.38 238L263.38 237.57L262.95 234.57L261.71 225.97L261.27 222.97L258.27 223.4L251.46 224.4L250.3 216.4L260.16 214.97L263.16 214.54L262.73 211.54L261.5 203.08L261.07 200.08L261.14 200.17Z" fill="#263238"/>
<path d="M283.81 259.36C281.008 259.461 278.24 258.718 275.865 257.227C273.49 255.736 271.618 253.567 270.49 251C268.962 247.708 267.95 244.2 267.49 240.6L264.76 221.75C264.146 218.109 264.146 214.391 264.76 210.75C265.337 207.503 267.01 204.553 269.5 202.39C271.95 200.25 275.5 198.84 280.01 198.18C281.49 197.957 282.983 197.84 284.48 197.83C286.667 197.783 288.843 198.157 290.89 198.93C293.675 200.017 296.019 202.002 297.55 204.57C299.127 207.321 300.146 210.355 300.55 213.5L301.28 218.59L286.18 220.77L285.31 214.71C285.161 213.674 284.934 212.651 284.63 211.65C284.461 211.036 284.113 210.486 283.63 210.07C283.313 209.873 282.942 209.782 282.57 209.81C282.327 209.797 282.083 209.797 281.84 209.81C281.518 209.819 281.202 209.895 280.911 210.032C280.62 210.17 280.361 210.367 280.15 210.61C279.783 211.233 279.6 211.947 279.62 212.67C279.611 213.721 279.685 214.771 279.84 215.81L283.61 241.81C283.753 242.875 284.021 243.919 284.41 244.92C284.655 245.622 285.095 246.24 285.68 246.7C286.05 246.96 286.498 247.087 286.95 247.06C287.164 247.057 287.378 247.04 287.59 247.01C287.94 246.991 288.284 246.903 288.599 246.75C288.915 246.598 289.198 246.383 289.43 246.12C289.884 245.483 290.15 244.731 290.2 243.95C290.307 242.878 290.28 241.796 290.12 240.73L289.38 235.62L284.32 236.36L282.83 226.11L302 223.36L306.65 255.44L295.74 257L295.07 254.79C294.682 255.309 294.254 255.797 293.79 256.25C291.997 257.842 289.746 258.825 287.36 259.06C286.185 259.245 284.999 259.345 283.81 259.36V259.36Z" fill="#FFD084"/>
<path d="M284.49 199.32C286.486 199.275 288.472 199.615 290.34 200.32C292.821 201.276 294.909 203.036 296.27 205.32C297.725 207.905 298.653 210.754 299 213.7L299.52 217.31L287.39 219.06L286.73 214.49C286.579 213.376 286.338 212.275 286.01 211.2C285.762 210.303 285.249 209.502 284.54 208.9C283.963 208.475 283.256 208.263 282.54 208.3C282.225 208.3 281.911 208.323 281.6 208.37C281.057 208.397 280.527 208.545 280.049 208.805C279.571 209.065 279.158 209.429 278.84 209.87C278.331 210.725 278.068 211.705 278.08 212.7C278.081 213.825 278.165 214.948 278.33 216.06L282.09 242.06C282.254 243.24 282.552 244.398 282.98 245.51C283.326 246.473 283.94 247.316 284.75 247.94C285.379 248.396 286.143 248.629 286.92 248.6C287.205 248.595 287.488 248.572 287.77 248.53C288.316 248.488 288.848 248.336 289.334 248.083C289.821 247.83 290.251 247.482 290.6 247.06C291.216 246.202 291.586 245.193 291.67 244.14C291.78 242.944 291.747 241.738 291.57 240.55L290.62 233.96L285.55 234.7L284.55 227.42L300.77 225.07L305 254.17L296.82 255.36L295.45 250.81C294.944 252.479 294.018 253.991 292.76 255.2C291.201 256.576 289.242 257.417 287.17 257.6C286.065 257.771 284.948 257.858 283.83 257.86C281.308 257.973 278.811 257.319 276.668 255.984C274.526 254.648 272.839 252.694 271.83 250.38C270.355 247.234 269.38 243.877 268.94 240.43L266.2 221.57C265.616 218.081 265.616 214.519 266.2 211.03C266.711 208.11 268.212 205.454 270.45 203.51C272.69 201.563 275.937 200.28 280.19 199.66C281.6 199.441 283.023 199.327 284.45 199.32H284.49ZM284.45 196.32C282.88 196.332 281.313 196.456 279.76 196.69C274.95 197.38 271.15 198.92 268.48 201.25C265.743 203.633 263.902 206.879 263.26 210.45C262.596 214.27 262.575 218.174 263.2 222L266 240.86C266.487 244.616 267.556 248.273 269.17 251.7C270.422 254.514 272.487 256.89 275.099 258.522C277.711 260.154 280.752 260.968 283.83 260.86C285.092 260.853 286.352 260.756 287.6 260.57C290.091 260.301 292.454 259.326 294.41 257.76L294.69 258.7L297.25 258.33L305.43 257.14L308.43 256.71L308 253.71L303.78 224.6L303.35 221.6L300.35 222.03L284.13 224.38L282.66 224.59L281.35 215.59C281.213 214.626 281.143 213.654 281.14 212.68C281.134 212.264 281.226 211.853 281.41 211.48C281.626 211.386 281.856 211.326 282.09 211.3C282.26 211.287 282.43 211.287 282.6 211.3H282.8C282.989 211.527 283.126 211.794 283.2 212.08C283.48 213.006 283.687 213.952 283.82 214.91L284.48 219.48L284.92 222.48L287.92 222.05L300 220.27L303 219.84L302.57 216.84L302.05 213.23C301.627 209.894 300.554 206.673 298.89 203.75C297.196 200.9 294.598 198.697 291.51 197.49C289.275 196.644 286.899 196.233 284.51 196.28L284.45 196.32ZM284.52 237.87L285.98 237.66L288.08 237.35L288.6 240.97C288.745 241.916 288.772 242.877 288.68 243.83C288.653 244.338 288.487 244.83 288.2 245.25C287.951 245.436 287.651 245.541 287.34 245.55C287.2 245.558 287.06 245.558 286.92 245.55C286.79 245.562 286.659 245.542 286.54 245.49C286.188 245.194 285.925 244.806 285.78 244.37C285.434 243.47 285.193 242.534 285.06 241.58L284.52 237.83V237.87Z" fill="#263238"/>
<path d="M311.06 194.45L327.66 192.04L347.25 249.56L332.76 251.66L329.17 240.08L323.45 240.91L323.23 253L308.46 255.14L311.06 194.45ZM323.49 230.3L326.05 229.93L323.41 220.7L323.49 230.3Z" fill="#FFD084"/>
<path d="M326.64 193.711L345.25 248.331L333.81 250.001L330.22 238.421L322 239.601L321.78 251.741L310 253.441L312.46 195.761L326.6 193.761L326.64 193.711ZM322 232.001L328 231.131L321.84 209.661L322 232.001ZM328.67 190.351L326.2 190.711L312.06 192.711L309.6 193.061L309.5 195.551L307 253.311L306.85 256.931L310.43 256.411L322.14 254.711L324.66 254.341L324.71 251.791L324.89 242.211L328.08 241.751L330.91 250.881L331.67 253.331L334.2 252.961L345.64 251.301L349.21 250.781L348.05 247.371L329.44 192.741L328.64 190.381L328.67 190.351Z" fill="#263238"/>
<path d="M244.88 50.5803C252.822 50.5803 259.26 44.1422 259.26 36.2003C259.26 28.2585 252.822 21.8203 244.88 21.8203C236.938 21.8203 230.5 28.2585 230.5 36.2003C230.5 44.1422 236.938 50.5803 244.88 50.5803Z" fill="white"/>
<path d="M244.88 50.5803C252.822 50.5803 259.26 44.1422 259.26 36.2003C259.26 28.2585 252.822 21.8203 244.88 21.8203C236.938 21.8203 230.5 28.2585 230.5 36.2003C230.5 44.1422 236.938 50.5803 244.88 50.5803Z" stroke="#263238" stroke-linecap="round" stroke-linejoin="round"/>
<path d="M373.66 268.37C381.602 268.37 388.04 261.932 388.04 253.99C388.04 246.049 381.602 239.61 373.66 239.61C365.718 239.61 359.28 246.049 359.28 253.99C359.28 261.932 365.718 268.37 373.66 268.37Z" fill="white"/>
<path d="M373.66 268.37C381.602 268.37 388.04 261.932 388.04 253.99C388.04 246.049 381.602 239.61 373.66 239.61C365.718 239.61 359.28 246.049 359.28 253.99C359.28 261.932 365.718 268.37 373.66 268.37Z" stroke="#263238" stroke-linecap="round" stroke-linejoin="round"/>
<path d="M82.8164 169.614C90.6724 168.449 96.0972 161.137 94.9329 153.281C93.7686 145.425 86.4562 140 78.6001 141.164C70.7441 142.329 65.3193 149.641 66.4836 157.497C67.6479 165.353 74.9603 170.778 82.8164 169.614Z" fill="white"/>
<path d="M82.8164 169.614C90.6724 168.449 96.0972 161.137 94.9329 153.281C93.7686 145.425 86.4562 140 78.6001 141.164C70.7441 142.329 65.3193 149.641 66.4836 157.497C67.6479 165.353 74.9603 170.778 82.8164 169.614Z" stroke="#263238" stroke-linecap="round" stroke-linejoin="round"/>
<path d="M413.17 72.7706C417.141 72.7706 420.36 69.5516 420.36 65.5806C420.36 61.6097 417.141 58.3906 413.17 58.3906C409.199 58.3906 405.98 61.6097 405.98 65.5806C405.98 69.5516 409.199 72.7706 413.17 72.7706Z" fill="white"/>
<path d="M413.17 72.7706C417.141 72.7706 420.36 69.5516 420.36 65.5806C420.36 61.6097 417.141 58.3906 413.17 58.3906C409.199 58.3906 405.98 61.6097 405.98 65.5806C405.98 69.5516 409.199 72.7706 413.17 72.7706Z" stroke="#263238" stroke-linecap="round" stroke-linejoin="round"/>
<path d="M386.14 382.84C390.111 382.84 393.33 379.621 393.33 375.65C393.33 371.679 390.111 368.46 386.14 368.46C382.169 368.46 378.95 371.679 378.95 375.65C378.95 379.621 382.169 382.84 386.14 382.84Z" fill="white"/>
<path d="M386.14 382.84C390.111 382.84 393.33 379.621 393.33 375.65C393.33 371.679 390.111 368.46 386.14 368.46C382.169 368.46 378.95 371.679 378.95 375.65C378.95 379.621 382.169 382.84 386.14 382.84Z" stroke="#263238" stroke-linecap="round" stroke-linejoin="round"/>
<path d="M301.17 345.12C305.141 345.12 308.36 341.901 308.36 337.93C308.36 333.959 305.141 330.74 301.17 330.74C297.199 330.74 293.98 333.959 293.98 337.93C293.98 341.901 297.199 345.12 301.17 345.12Z" fill="white"/>
<path d="M301.17 345.12C305.141 345.12 308.36 341.901 308.36 337.93C308.36 333.959 305.141 330.74 301.17 330.74C297.199 330.74 293.98 333.959 293.98 337.93C293.98 341.901 297.199 345.12 301.17 345.12Z" stroke="#263238" stroke-linecap="round" stroke-linejoin="round"/>
<path d="M400.61 235.27C394.95 234.43 394.26 233.75 393.42 228.08C392.58 233.75 391.9 234.43 386.23 235.27C391.9 236.11 392.58 236.8 393.42 242.46C394.26 236.8 395 236.11 400.61 235.27Z" fill="white"/>
<path d="M400.61 235.27C394.95 234.43 394.26 233.75 393.42 228.08C392.58 233.75 391.9 234.43 386.23 235.27C391.9 236.11 392.58 236.8 393.42 242.46C394.26 236.8 395 236.11 400.61 235.27Z" stroke="#263238" stroke-linecap="round" stroke-linejoin="round"/>
<path d="M107.18 377.72C111.151 377.72 114.37 374.501 114.37 370.53C114.37 366.559 111.151 363.34 107.18 363.34C103.209 363.34 99.9897 366.559 99.9897 370.53C99.9897 374.501 103.209 377.72 107.18 377.72Z" fill="white"/>
<path d="M107.18 377.72C111.151 377.72 114.37 374.501 114.37 370.53C114.37 366.559 111.151 363.34 107.18 363.34C103.209 363.34 99.9897 366.559 99.9897 370.53C99.9897 374.501 103.209 377.72 107.18 377.72Z" stroke="#263238" stroke-linecap="round" stroke-linejoin="round"/>
<path d="M159.46 269.5C163.431 269.5 166.65 266.281 166.65 262.31C166.65 258.339 163.431 255.12 159.46 255.12C155.489 255.12 152.27 258.339 152.27 262.31C152.27 266.281 155.489 269.5 159.46 269.5Z" fill="white"/>
<path d="M159.46 269.5C163.431 269.5 166.65 266.281 166.65 262.31C166.65 258.339 163.431 255.12 159.46 255.12C155.489 255.12 152.27 258.339 152.27 262.31C152.27 266.281 155.489 269.5 159.46 269.5Z" stroke="#263238" stroke-linecap="round" stroke-linejoin="round"/>
</svg>
