<svg width="500" height="500" viewBox="0 0 500 500" fill="none" xmlns="http://www.w3.org/2000/svg">
<path d="M450.92 247.751C407.08 149.381 256.31 66.0006 165.42 78.8006C125.88 84.3806 71.32 120.511 45.65 191.081C28.78 237.481 -29.2 410.291 232.78 400.661C494.76 391.031 450.92 247.751 450.92 247.751Z" fill="#FFD084"/>
<path opacity="0.7" d="M232.78 400.66C-29.22 410.29 28.78 237.48 45.65 191.08C71.32 120.5 125.88 84.3802 165.42 78.8002C197.79 74.2302 237.75 81.8702 277.78 98.0402C291.825 103.736 305.516 110.268 318.78 117.6C376.13 149.23 428.06 196.46 450.92 247.75C450.92 247.75 494.76 391 232.78 400.66Z" fill="white"/>
<path d="M255.84 447.72C344.504 447.72 416.38 437.937 416.38 425.87C416.38 413.802 344.504 404.02 255.84 404.02C167.176 404.02 95.2998 413.802 95.2998 425.87C95.2998 437.937 167.176 447.72 255.84 447.72Z" fill="#FFD084"/>
<path opacity="0.5" d="M255.84 447.72C344.504 447.72 416.38 437.937 416.38 425.87C416.38 413.802 344.504 404.02 255.84 404.02C167.176 404.02 95.2998 413.802 95.2998 425.87C95.2998 437.937 167.176 447.72 255.84 447.72Z" fill="white"/>
<path d="M98.9199 360.05C98.8299 360.2 99.6099 360.93 97.0499 361.05C90.7299 361.33 79.5599 360.94 75.3499 355.21C69.3499 347.03 83.1499 347.74 81.7999 343.21C80.4499 338.68 65.6199 342.43 62.6999 335.99C59.7799 329.55 70.5799 330.77 70.0699 327.45C69.5599 324.13 58.2499 328.45 54.4999 321.63C50.7499 314.81 60.6499 318.43 59.0399 315.63C57.4299 312.83 44.8399 301.03 49.9199 298.38C54.9999 295.73 66.8299 308.03 70.7199 309.38C74.6099 310.73 75.4799 298.59 80.6099 302.62C85.7399 306.65 82.4299 324.91 88.3999 327.16C92.8499 328.83 90.3999 322.3 95.8899 322.54C103.33 322.79 105.86 348.37 98.9199 360.05Z" fill="#FFD084"/>
<g opacity="0.1">
<path opacity="0.1" d="M98.9199 360.05C98.8299 360.2 99.6099 360.93 97.0499 361.05C90.7299 361.33 79.5599 360.94 75.3499 355.21C69.3499 347.03 83.1499 347.74 81.7999 343.21C80.4499 338.68 65.6199 342.43 62.6999 335.99C59.7799 329.55 70.5799 330.77 70.0699 327.45C69.5599 324.13 58.2499 328.45 54.4999 321.63C50.7499 314.81 60.6499 318.43 59.0399 315.63C57.4299 312.83 44.8399 301.03 49.9199 298.38C54.9999 295.73 66.8299 308.03 70.7199 309.38C74.6099 310.73 75.4799 298.59 80.6099 302.62C85.7399 306.65 82.4299 324.91 88.3999 327.16C92.8499 328.83 90.3999 322.3 95.8899 322.54C103.33 322.79 105.86 348.37 98.9199 360.05Z" fill="black"/>
</g>
<path d="M117.53 361.08C122.62 362.13 132.22 359 136.53 355.02C140.84 351.04 130.53 352.08 132.25 348.59C133.97 345.1 145.48 350.05 148.68 345.2C151.88 340.35 142.97 339.94 143.81 337.31C144.65 334.68 153.56 336.9 157.49 331.84C161.42 326.78 152.92 328.45 154.59 326.36C156.26 324.27 168.01 316.36 164.23 313.54C160.45 310.72 149.23 319.18 145.92 319.73C142.61 320.28 143.17 313.13 138.49 315.73C133.81 318.33 134.12 333.58 128.98 334.63C125.15 335.41 127.91 328.97 123.5 329.91C115.75 331.56 115.46 360.66 117.53 361.08Z" fill="#FFD084"/>
<path d="M150.23 322.289C150.23 322.289 120.12 342.539 111.73 379.599" stroke="#263238" stroke-linecap="round" stroke-linejoin="round"/>
<path d="M148.7 333.999C145.039 333.288 141.27 333.339 137.63 334.149V334.149" stroke="#263238" stroke-linecap="round" stroke-linejoin="round"/>
<path d="M141.6 319C136.93 324.426 133.993 331.128 133.17 338.24" stroke="#263238" stroke-linecap="round" stroke-linejoin="round"/>
<path d="M128.34 343.82C129.97 342.795 131.832 342.197 133.754 342.08C135.676 341.963 137.597 342.331 139.34 343.15" stroke="#263238" stroke-linecap="round" stroke-linejoin="round"/>
<path d="M121.78 353.329C120.648 348.745 120.724 343.946 122 339.399" stroke="#263238" stroke-linecap="round" stroke-linejoin="round"/>
<path d="M109.23 358.29C115.32 356.61 124.01 347.93 126.46 341.29C128.91 334.65 118.36 341.39 118.27 336.68C118.18 331.97 133.42 330.96 134.27 323.94C135.12 316.92 125.17 321.39 124.64 318.07C124.11 314.75 134.98 312.25 136.45 304.6C137.92 296.95 129.62 303.44 130.28 300.25C130.94 297.06 139.28 281.99 133.67 281.03C128.06 280.07 120.54 295.41 117.23 297.85C113.92 300.29 110.6 292.199 106.96 297.609C103.32 303.019 112.07 319.389 107.08 323.359C103.36 326.359 102.8 317.81 98.5299 321.26C90.9999 327.25 106.75 359 109.23 358.29Z" fill="#FFD084"/>
<g opacity="0.2">
<path opacity="0.2" d="M109.23 358.29C115.32 356.61 124.01 347.93 126.46 341.29C128.91 334.65 118.36 341.39 118.27 336.68C118.18 331.97 133.42 330.96 134.27 323.94C135.12 316.92 125.17 321.39 124.64 318.07C124.11 314.75 134.98 312.25 136.45 304.6C137.92 296.95 129.62 303.44 130.28 300.25C130.94 297.06 139.28 281.99 133.67 281.03C128.06 280.07 120.54 295.41 117.23 297.85C113.92 300.29 110.6 292.199 106.96 297.609C103.32 303.019 112.07 319.389 107.08 323.359C103.36 326.359 102.8 317.81 98.5299 321.26C90.9999 327.25 106.75 359 109.23 358.29Z" fill="white"/>
</g>
<path d="M113.82 430.929C113.48 431.009 101.96 431.009 101.63 430.929C93.17 429.079 63.16 419.219 90.21 387.279H124.84C151.88 419.199 122.27 429.079 113.82 430.929Z" fill="white" stroke="#263238" stroke-miterlimit="10"/>
<path d="M73.8301 322.52C73.8301 322.52 98.3501 339.26 103.7 382" stroke="#263238" stroke-linecap="round" stroke-linejoin="round"/>
<path d="M70.0898 327.75C76.0098 326.48 79.6298 327.65 79.6298 327.65" stroke="#263238" stroke-linecap="round" stroke-linejoin="round"/>
<path d="M76.7998 310.109C76.7998 310.109 84.2398 319.949 84.1598 332.789" stroke="#263238" stroke-linecap="round" stroke-linejoin="round"/>
<path d="M91.4599 343.62C91.4599 343.62 86.1599 338.62 79.1299 341.19" stroke="#263238" stroke-linecap="round" stroke-linejoin="round"/>
<path d="M95.29 351.19C97.0608 346.157 97.4916 340.75 96.54 335.5" stroke="#263238" stroke-linecap="round" stroke-linejoin="round"/>
<path d="M123.47 303.109C123.47 303.109 103 331.769 109.75 383.929" stroke="#263238" stroke-linecap="round" stroke-linejoin="round"/>
<path d="M135.45 307.199C124.72 307.199 119.06 311.319 118.72 311.579" stroke="#263238" stroke-linecap="round" stroke-linejoin="round"/>
<path d="M115.4 319.549C113.128 312.426 112.513 304.877 113.6 297.479" stroke="#263238" stroke-linecap="round" stroke-linejoin="round"/>
<path d="M111.07 335.36C111.07 335.36 115.33 327.26 124.52 327.18" stroke="#263238" stroke-linecap="round" stroke-linejoin="round"/>
<path d="M109.54 345.829C109.54 345.829 103.8 339.429 102.01 328.079" stroke="#263238" stroke-linecap="round" stroke-linejoin="round"/>
<path d="M89.47 387.289H125.86L128.07 376.979H87.27L89.47 387.289Z" fill="white" stroke="#263238" stroke-miterlimit="10"/>
<path d="M128.06 400.1C129.744 403.704 130.464 407.684 130.15 411.65C129.92 414.47 128.88 417.59 126.3 418.76" stroke="#263238" stroke-linecap="round" stroke-linejoin="round"/>
<path d="M124 394C124.898 394.951 125.711 395.978 126.43 397.07" stroke="#263238" stroke-linecap="round" stroke-linejoin="round"/>
<path d="M247.52 315.58H176.12L189.29 369.28H260.7L247.52 315.58Z" fill="#263238" stroke="#263238" stroke-linecap="round" stroke-linejoin="round"/>
<path d="M244.14 318.69H181.02L192.68 366.16H255.79L244.14 318.69Z" fill="white" stroke="#263238" stroke-linecap="round" stroke-linejoin="round"/>
<path d="M244.14 318.69H181.02L182.12 323.13H245.23L244.14 318.69Z" fill="#FFD084" stroke="#263238" stroke-linecap="round" stroke-linejoin="round"/>
<path d="M292.69 364.48H188.16V369.28H292.69V364.48Z" fill="white" stroke="#263238" stroke-linecap="round" stroke-linejoin="round"/>
<path d="M292.71 364.48H235.48V369.28H292.71V364.48Z" fill="#263238" stroke="#263238" stroke-linecap="round" stroke-linejoin="round"/>
<path d="M236.91 340.71L237.63 343.72H190.4L189.68 340.71H236.91Z" fill="#FFD084"/>
<path d="M247.77 345.2H190.38L188.96 339.2H246.35L247.77 345.2ZM190.94 344.51H246.94L245.84 339.86H189.84L190.94 344.51Z" fill="#263238"/>
<path d="M220.68 336.47H213.7L211.96 329.49H213.95L214.1 330.08H212.7L214.14 335.88H219.94L218.49 330.08H217.06L216.91 329.49H218.94L220.68 336.47Z" fill="#FFD084" stroke="#FFD084" stroke-width="0.2" stroke-miterlimit="10"/>
<path d="M216.62 332.981H216.03L214.37 326.311H214.96L216.62 332.981Z" fill="#FFD084" stroke="#FFD084" stroke-width="0.2" stroke-miterlimit="10"/>
<path d="M216.42 333.32L213.92 332.17L214.06 331.65L216.23 332.64L217.81 331.54L218.24 332.05L216.42 333.32Z" fill="#FFD084" stroke="#FFD084" stroke-width="0.2" stroke-miterlimit="10"/>
<path d="M364.71 163.811L333.98 247.361H338.38L368.41 165.721L364.71 163.811Z" stroke="#263238" stroke-linecap="round" stroke-linejoin="round"/>
<path d="M369.58 149.461L313.58 87.5205C313.575 87.7283 313.555 87.9355 313.52 88.1405C313.327 89.1042 312.846 89.9865 312.14 90.6705C314.732 92.8201 316.824 95.5093 318.27 98.5505L364.35 149.551L364.94 144.651L369.58 149.461Z" stroke="#263238" stroke-linecap="round" stroke-linejoin="round"/>
<path d="M308.4 88.1703L308.96 88.5103L312.17 90.0003L311.88 90.5303L312.1 90.7003C312.806 90.0163 313.287 89.134 313.48 88.1703C313.515 87.9653 313.535 87.7581 313.54 87.5503C313.649 86.3089 313.277 85.0729 312.499 84.0989C311.722 83.1248 310.599 82.4875 309.364 82.319C308.13 82.1505 306.877 82.4638 305.867 83.1939C304.857 83.924 304.167 85.0149 303.94 86.2403L304.56 86.5203C305.887 86.9536 307.172 87.5058 308.4 88.1703V88.1703Z" fill="#FFD084" stroke="#263238" stroke-miterlimit="10"/>
<path d="M327.92 247.36V271.19H342.01V262.85H330.98V255.05H342.01V247.36H338.38H333.98H327.92Z" stroke="#263238" stroke-linecap="round" stroke-linejoin="round"/>
<path d="M304.56 86.49L303.94 86.21L303.89 86.27L304.56 86.49Z" stroke="#263238" stroke-linecap="round" stroke-linejoin="round"/>
<path d="M309 88.5205C310.007 89.1173 310.969 89.7857 311.88 90.5205L312.17 89.9905L309 88.5205Z" stroke="#263238" stroke-linecap="round" stroke-linejoin="round"/>
<path d="M368.76 165.9L374.41 154.45L369.58 149.46L364.9 144.62L364.31 149.52L362.73 162.79L364.71 163.81L368.41 165.72L368.76 165.9Z" stroke="#263238" stroke-linecap="round" stroke-linejoin="round"/>
<path d="M288.4 110.43C289.22 112.226 290.511 113.765 292.136 114.885C293.761 116.005 295.66 116.664 297.629 116.791C299.599 116.918 301.566 116.509 303.322 115.608C305.077 114.706 306.556 113.345 307.6 111.67C301.107 108.337 294.58 105.234 288.02 102.36C287.111 105 287.247 107.888 288.4 110.43V110.43Z" fill="white" stroke="#263238" stroke-miterlimit="10"/>
<path d="M312.1 90.6703L311.88 90.5003C310.969 89.7655 310.007 89.0971 309 88.5003L308.44 88.1603C307.213 87.4854 305.928 86.9232 304.6 86.4803L303.93 86.2603C298.798 84.7082 293.288 84.9682 288.325 86.9965C283.361 89.0247 279.246 92.698 276.67 97.4003C276.67 97.4003 276.67 97.4003 276.67 97.4003L277.79 98.0203C281.21 99.4003 284.623 100.84 288.03 102.34C294.583 105.227 301.11 108.33 307.61 111.65C311.35 113.557 315.077 115.534 318.79 117.58C320.683 112.964 321.057 107.865 319.855 103.022C318.654 98.1799 315.941 93.8462 312.11 90.6503L312.1 90.6703Z" fill="#FFD084" stroke="#263238" stroke-miterlimit="10"/>
<path d="M443.47 256.021H328.66V408.431H443.47V256.021Z" fill="#BFBFBF" stroke="#263238" stroke-linecap="round" stroke-linejoin="round"/>
<path d="M428.22 269.23H341.86V298.7H428.22V269.23Z" fill="#757575" stroke="#263238" stroke-linecap="round" stroke-linejoin="round"/>
<path d="M428.22 307.84H341.86V393.19H428.22V307.84Z" fill="#757575" stroke="#263238" stroke-linecap="round" stroke-linejoin="round"/>
<path d="M450.91 246.811H320.53V255.951H450.91V246.811Z" fill="#757575" stroke="#263238" stroke-linecap="round" stroke-linejoin="round"/>
<path d="M388.94 276.68C388.94 277.418 388.721 278.14 388.311 278.754C387.9 279.367 387.317 279.845 386.635 280.127C385.953 280.409 385.202 280.483 384.479 280.338C383.755 280.193 383.09 279.837 382.569 279.314C382.048 278.792 381.693 278.126 381.55 277.402C381.408 276.678 381.483 275.927 381.767 275.246C382.051 274.564 382.53 273.983 383.145 273.574C383.76 273.165 384.482 272.948 385.22 272.95C385.709 272.95 386.194 273.047 386.646 273.234C387.098 273.422 387.508 273.697 387.854 274.043C388.2 274.39 388.473 274.801 388.66 275.254C388.846 275.706 388.941 276.191 388.94 276.68Z" fill="#BFBFBF" stroke="#263238" stroke-linecap="round" stroke-linejoin="round"/>
<path d="M418.41 361.75C421.591 361.75 424.17 356.141 424.17 349.22C424.17 342.3 421.591 336.69 418.41 336.69C415.229 336.69 412.65 342.3 412.65 349.22C412.65 356.141 415.229 361.75 418.41 361.75Z" fill="#BFBFBF" stroke="#263238" stroke-linecap="round" stroke-linejoin="round"/>
<path d="M418.41 367.78C418.012 367.787 417.616 367.714 417.246 367.566C416.877 367.419 416.54 367.199 416.256 366.919C415.972 366.64 415.747 366.307 415.593 365.94C415.439 365.573 415.36 365.179 415.36 364.78V334.93C415.353 334.528 415.427 334.128 415.578 333.755C415.729 333.382 415.953 333.043 416.238 332.759C416.523 332.474 416.862 332.25 417.235 332.099C417.608 331.948 418.007 331.874 418.41 331.88C418.808 331.88 419.202 331.959 419.57 332.113C419.937 332.267 420.27 332.493 420.549 332.777C420.828 333.06 421.048 333.397 421.196 333.767C421.344 334.137 421.416 334.532 421.41 334.93V364.74C421.415 365.138 421.341 365.532 421.193 365.901C421.045 366.269 420.825 366.605 420.545 366.888C420.266 367.17 419.934 367.395 419.567 367.548C419.201 367.701 418.807 367.78 418.41 367.78V367.78Z" fill="#BFBFBF" stroke="#263238" stroke-linecap="round" stroke-linejoin="round"/>
<path d="M430.11 235.991L438.67 213.721H437.35L428.19 235.991H430.11Z" fill="#263238" stroke="#263238" stroke-miterlimit="10"/>
<path d="M392.78 235.93L384.22 213.66H385.54L394.69 235.93H392.78Z" fill="#263238" stroke="#263238" stroke-miterlimit="10"/>
<path d="M393.13 235.931L393.56 236.931H394.84L394.43 235.931H393.13Z" fill="#263238" stroke="#263238" stroke-miterlimit="10"/>
<path d="M429.79 235.931L429.35 236.931H428.07L428.48 235.931H429.79Z" fill="#263238" stroke="#263238" stroke-miterlimit="10"/>
<path d="M396.22 242.75H390.92V246.05H396.22V242.75Z" fill="white" stroke="#263238" stroke-miterlimit="10"/>
<path d="M432.14 242.75H426.84V246.05H432.14V242.75Z" fill="white" stroke="#263238" stroke-miterlimit="10"/>
<path d="M434 244.21L422.5 245.46C415.188 246.253 407.812 246.253 400.5 245.46L389 244.21V237.07L398.35 235.86C407.074 234.73 415.906 234.73 424.63 235.86L433.97 237.07L434 244.21Z" fill="#263238" stroke="#263238" stroke-miterlimit="10"/>
<path d="M395.7 240.851C395.702 241.275 395.578 241.69 395.343 242.043C395.109 242.397 394.775 242.673 394.383 242.836C393.992 242.999 393.561 243.042 393.145 242.96C392.729 242.878 392.347 242.674 392.047 242.374C391.747 242.074 391.543 241.692 391.461 241.276C391.378 240.86 391.422 240.429 391.585 240.037C391.748 239.646 392.024 239.312 392.377 239.077C392.731 238.843 393.146 238.719 393.57 238.721C394.134 238.723 394.674 238.949 395.073 239.347C395.472 239.746 395.697 240.287 395.7 240.851V240.851Z" fill="white" stroke="#263238" stroke-miterlimit="10"/>
<path d="M405.63 240.861C405.632 240.996 405.593 241.129 405.52 241.242C405.446 241.355 405.339 241.444 405.215 241.497C405.09 241.549 404.953 241.564 404.82 241.538C404.687 241.512 404.565 241.447 404.469 241.351C404.373 241.256 404.309 241.133 404.283 241.001C404.257 240.868 404.271 240.73 404.324 240.606C404.376 240.481 404.465 240.375 404.578 240.301C404.692 240.227 404.825 240.189 404.96 240.191C405.048 240.191 405.135 240.208 405.216 240.241C405.298 240.275 405.371 240.325 405.434 240.387C405.496 240.449 405.545 240.523 405.579 240.604C405.613 240.685 405.63 240.773 405.63 240.861V240.861Z" fill="white"/>
<path d="M410.43 240.86C410.43 240.993 410.391 241.122 410.317 241.233C410.243 241.343 410.139 241.429 410.016 241.479C409.894 241.53 409.759 241.543 409.629 241.518C409.499 241.492 409.38 241.428 409.286 241.334C409.192 241.24 409.129 241.121 409.103 240.991C409.077 240.861 409.09 240.726 409.141 240.604C409.192 240.482 409.277 240.377 409.388 240.303C409.498 240.23 409.627 240.19 409.76 240.19C409.848 240.19 409.935 240.208 410.016 240.241C410.098 240.275 410.171 240.324 410.234 240.387C410.296 240.449 410.345 240.523 410.379 240.604C410.413 240.685 410.43 240.772 410.43 240.86V240.86Z" fill="white"/>
<path d="M415.24 240.861C415.242 240.995 415.204 241.128 415.13 241.241C415.057 241.354 414.951 241.443 414.827 241.496C414.703 241.549 414.566 241.564 414.433 241.539C414.301 241.514 414.179 241.45 414.083 241.355C413.987 241.26 413.921 241.139 413.894 241.007C413.867 240.875 413.88 240.737 413.931 240.613C413.982 240.488 414.069 240.381 414.181 240.306C414.293 240.231 414.425 240.191 414.56 240.191C414.649 240.189 414.737 240.206 414.819 240.239C414.902 240.272 414.977 240.321 415.04 240.383C415.103 240.446 415.154 240.52 415.188 240.602C415.222 240.684 415.24 240.772 415.24 240.861Z" fill="white"/>
<path d="M420 240.861C420.001 240.949 419.985 241.038 419.952 241.12C419.919 241.202 419.869 241.278 419.807 241.341C419.745 241.404 419.67 241.454 419.588 241.489C419.506 241.523 419.419 241.541 419.33 241.541C419.234 241.552 419.137 241.543 419.045 241.515C418.953 241.486 418.869 241.438 418.797 241.375C418.725 241.311 418.667 241.232 418.627 241.145C418.588 241.057 418.567 240.962 418.567 240.866C418.567 240.769 418.588 240.674 418.627 240.586C418.667 240.499 418.725 240.42 418.797 240.356C418.869 240.293 418.953 240.245 419.045 240.216C419.137 240.188 419.234 240.179 419.33 240.191C419.507 240.191 419.678 240.261 419.803 240.387C419.929 240.512 420 240.683 420 240.861V240.861Z" fill="white"/>
<path d="M365.91 246.36H369.77C369.686 246.246 369.625 246.117 369.59 245.98C368.371 246.174 367.143 246.301 365.91 246.36Z" stroke="#263238" stroke-miterlimit="10"/>
<path opacity="0.3" d="M365.91 246.36H369.77C369.686 246.246 369.625 246.117 369.59 245.98C368.371 246.174 367.143 246.301 365.91 246.36Z" stroke="#263238" stroke-miterlimit="10"/>
<path d="M371.72 244.271C371.72 244.401 371.96 244.411 372.05 244.531C372.42 244.981 371.9 246.061 371.75 246.361H377L373 239.471C372.44 241.471 371.4 243.271 371.72 244.271Z" stroke="#263238" stroke-miterlimit="10"/>
<path opacity="0.3" d="M371.72 244.271C371.72 244.401 371.96 244.411 372.05 244.531C372.42 244.981 371.9 246.061 371.75 246.361H377L373 239.471C372.44 241.471 371.4 243.271 371.72 244.271Z" stroke="#263238" stroke-miterlimit="10"/>
<path d="M372.05 244.53C371.96 244.41 371.76 244.4 371.72 244.27C371.4 243.27 372.44 241.47 372.97 239.47C373.044 239.197 373.103 238.927 373.15 238.66C373.56 236.34 372.95 234.19 373.71 233.06C374.01 232.61 374.6 232.38 374.71 231.85C374.82 231.32 374.29 231.08 374.15 230.63C373.8 229.5 375.15 227.35 375.58 225.03C376.01 222.71 375.39 220.55 376.14 219.42C376.23 219.29 376.43 219.28 376.57 219.17C377.19 218.64 376.91 217.26 376.91 217.26C376.91 217.26 375.62 216.73 375 217.26C374.84 217.39 374.79 217.62 374.62 217.7C373.04 218.49 370.07 217.19 366.62 217.19C363.17 217.19 359.73 218.47 358.42 217.68C358.28 217.6 358.31 217.36 358.21 217.23C357.77 216.71 356.3 217.23 356.3 217.23C356.3 217.23 355.53 218.61 355.96 219.14C356.05 219.25 356.25 219.26 356.29 219.4C356.65 220.53 355.29 222.68 354.86 225C354.43 227.32 355.06 229.47 354.3 230.6C354 231.05 353.41 231.28 353.3 231.82C353.19 232.36 353.72 232.58 353.86 233.03C354.22 234.16 352.86 236.31 352.43 238.63C352 240.95 352.63 243.11 351.87 244.24C351.78 244.37 351.58 244.38 351.44 244.5C350.82 245.02 351.1 246.4 351.1 246.4C351.1 246.4 352.39 246.93 353.01 246.4C353.161 246.276 353.289 246.127 353.39 245.96C356.039 246.345 358.714 246.516 361.39 246.47C363.02 246.47 364.56 246.47 365.91 246.36C367.143 246.301 368.371 246.174 369.59 245.98C369.625 246.117 369.686 246.246 369.77 246.36C369.77 246.36 369.77 246.36 369.77 246.43C370.2 246.96 371.67 246.43 371.67 246.43V246.36C371.9 246.06 372.42 245 372.05 244.53ZM362 243.47C361.038 243.501 360.081 243.31 359.204 242.913C358.326 242.515 357.552 241.922 356.94 241.178C356.329 240.434 355.896 239.559 355.676 238.622C355.456 237.684 355.454 236.709 355.67 235.77L357 228.32C357.424 226.208 358.548 224.301 360.191 222.908C361.833 221.514 363.897 220.715 366.05 220.64C367.014 220.609 367.972 220.8 368.85 221.198C369.728 221.596 370.503 222.19 371.115 222.936C371.727 223.681 372.159 224.557 372.378 225.495C372.598 226.434 372.598 227.411 372.38 228.35L371 235.79C370.58 237.895 369.463 239.797 367.831 241.19C366.198 242.583 364.145 243.386 362 243.47V243.47Z" stroke="#263238" stroke-miterlimit="10"/>
<path d="M371 235.79L372.33 228.35C372.548 227.411 372.547 226.434 372.328 225.495C372.108 224.556 371.676 223.681 371.064 222.935C370.453 222.19 369.678 221.596 368.8 221.198C367.921 220.8 366.963 220.609 366 220.64C363.847 220.715 361.783 221.514 360.14 222.907C358.498 224.301 357.374 226.208 356.95 228.32L355.62 235.77C355.403 236.708 355.405 237.684 355.626 238.622C355.846 239.559 356.279 240.434 356.89 241.178C357.502 241.922 358.276 242.515 359.153 242.913C360.03 243.31 360.987 243.501 361.95 243.47V243.47C364.103 243.397 366.168 242.599 367.811 241.205C369.454 239.811 370.577 237.903 371 235.79V235.79Z" stroke="#263238" stroke-miterlimit="10"/>
<path d="M224.77 118.75C224.77 124.651 222.517 130.329 218.471 134.625C214.424 138.92 208.891 141.508 203 141.86C202.53 141.86 140.89 141.86 140.3 141.86C134.495 141.431 129.064 138.832 125.088 134.58C121.113 130.328 118.885 124.734 118.847 118.913C118.809 113.092 120.964 107.471 124.884 103.167C128.804 98.8637 134.201 96.1942 140 95.6899C140.461 87.1959 144.173 79.2048 150.365 73.372C156.557 67.5392 164.755 64.3116 173.261 64.3579C181.768 64.4042 189.931 67.7207 196.059 73.6205C202.187 79.5204 205.811 87.5513 206.18 96.0499C211.423 97.1053 216.139 99.9428 219.528 104.081C222.917 108.218 224.769 113.402 224.77 118.75V118.75Z" fill="white" stroke="#263238" stroke-miterlimit="10"/>
<path d="M147.35 86.3998C149.613 81.0339 153.408 76.4546 158.26 73.235C163.112 70.0155 168.807 68.2988 174.63 68.2998" stroke="#263238" stroke-linecap="round" stroke-linejoin="round"/>
<path d="M145.08 96.2299C145.17 94.5114 145.414 92.8045 145.81 91.1299" stroke="#263238" stroke-linecap="round" stroke-linejoin="round"/>
<path d="M173 254.76C174.53 258.22 176.08 261.61 177.67 264.9" stroke="#263238" stroke-linecap="round" stroke-linejoin="round"/>
<path d="M139.91 156.66C139.91 156.66 151.91 203.66 169.01 245.38" stroke="#263238" stroke-linecap="round" stroke-linejoin="round"/>
<path d="M207.28 191.65C207.36 193.45 207.35 194.78 207.46 196.39" stroke="#263238" stroke-linecap="round" stroke-linejoin="round"/>
<path d="M207.28 148.439C207.19 149.289 206.54 170.199 207.02 187.059" stroke="#263238" stroke-linecap="round" stroke-linejoin="round"/>
<path d="M236.28 287.13L215 319.58L174.22 289.43L194.54 288.68L193.24 285.51C173.922 238.545 159.886 189.578 151.39 139.51L147.31 115.51L197.38 114.99L197.14 122.56C197.057 178.269 203.773 233.779 217.14 287.86L236.28 287.13Z" fill="#FFD084" stroke="#263238" stroke-miterlimit="10"/>
<path d="M169.64 116.89H188.24L188.3 123.44C188.409 136.199 189.2 148.944 190.67 161.62V161.62L162.67 163.02L161.22 154.71C159.8 146.625 158.991 138.446 158.8 130.24V130.24L169.7 116.92" fill="white"/>
<path d="M169.64 116.89H188.24L188.3 123.44C188.409 136.199 189.2 148.944 190.67 161.62V161.62L162.67 163.02L161.22 154.71C159.8 146.625 158.991 138.446 158.8 130.24V130.24L169.7 116.92" stroke="#263238" stroke-linecap="round" stroke-linejoin="round"/>
<path d="M170.85 129.97L158.86 130.14L169.65 116.92L170.85 129.97Z" fill="white" stroke="#263238" stroke-linecap="round" stroke-linejoin="round"/>
<path d="M200.76 304.21C199.359 304.198 197.97 303.938 196.66 303.44C195.776 303.035 194.991 302.442 194.359 301.703C193.727 300.964 193.264 300.096 193 299.16C192.94 298.95 192.89 298.74 192.85 298.52C192.596 296.918 192.751 295.277 193.3 293.75C194.3 290.75 196.63 289.17 200.13 289.17C201.369 289.184 202.602 289.352 203.8 289.67H203.98L193.06 258.59C193.013 258.448 192.998 258.296 193.017 258.148C193.036 257.999 193.088 257.856 193.17 257.73C193.251 257.623 193.355 257.535 193.475 257.473C193.594 257.41 193.726 257.375 193.86 257.37V257.37C194.119 257.368 194.371 257.445 194.586 257.589C194.8 257.734 194.965 257.94 195.06 258.18L195.33 258.94C196.955 260.839 199.157 262.153 201.6 262.68C203.938 263.183 206.086 264.333 207.8 266C208.845 266.951 209.624 268.157 210.06 269.5L212.86 277.44C212.905 277.544 212.928 277.657 212.928 277.77C212.928 277.884 212.905 277.996 212.86 278.1C212.813 278.194 212.746 278.277 212.665 278.344C212.585 278.411 212.491 278.461 212.39 278.49H212.27H212.07C211.808 278.471 211.56 278.362 211.37 278.18C209.711 276.046 207.359 274.557 204.72 273.97C203.093 273.628 201.573 272.897 200.29 271.84L207.59 292.64C208.497 295.249 208.397 298.102 207.31 300.64C206.654 301.782 205.695 302.72 204.539 303.35C203.383 303.98 202.075 304.278 200.76 304.21V304.21Z" fill="white"/>
<path d="M193.92 257.91C194.068 257.919 194.211 257.969 194.331 258.056C194.452 258.143 194.545 258.262 194.6 258.4L194.9 259.24C196.599 261.27 198.924 262.677 201.51 263.24C203.744 263.706 205.802 264.791 207.45 266.37C208.435 267.258 209.17 268.389 209.58 269.65L212.39 277.65C212.406 277.688 212.414 277.729 212.413 277.77C212.413 277.811 212.404 277.852 212.387 277.889C212.37 277.927 212.346 277.96 212.315 277.988C212.285 278.016 212.249 278.037 212.21 278.05H212.11C211.952 278.04 211.802 277.973 211.69 277.86C209.962 275.665 207.527 274.135 204.8 273.53C202.641 273.023 200.681 271.885 199.17 270.26L207.1 292.85C207.938 295.319 207.853 298.009 206.86 300.42C206.256 301.487 205.368 302.366 204.294 302.959C203.221 303.552 202.005 303.836 200.78 303.78C199.444 303.769 198.12 303.522 196.87 303.05C196.058 302.675 195.336 302.129 194.754 301.449C194.173 300.769 193.745 299.971 193.5 299.11C193.446 298.919 193.403 298.726 193.37 298.53C193.12 297.002 193.268 295.435 193.8 293.98C194.88 290.62 197.61 289.75 200.15 289.75C201.345 289.767 202.534 289.928 203.69 290.23C203.9 290.23 204.08 290.33 204.25 290.37H204.37L204.8 290.51L193.55 258.51C193.47 258.21 193.61 257.96 193.91 257.95L193.92 257.91ZM193.91 256.95H193.83C193.62 256.957 193.414 257.011 193.229 257.11C193.043 257.209 192.883 257.349 192.76 257.52C192.631 257.702 192.546 257.911 192.512 258.132C192.477 258.352 192.494 258.577 192.56 258.79V258.84L203.21 289C202.198 288.783 201.166 288.669 200.13 288.66C196.39 288.66 193.87 290.36 192.82 293.58C192.255 295.183 192.097 296.901 192.36 298.58C192.398 298.806 192.448 299.03 192.51 299.25C192.795 300.267 193.302 301.209 193.993 302.008C194.685 302.806 195.544 303.442 196.51 303.87C197.878 304.389 199.327 304.66 200.79 304.67C202.19 304.73 203.58 304.401 204.805 303.72C206.03 303.039 207.043 302.032 207.73 300.81C208.877 298.151 208.995 295.161 208.06 292.42L201.26 273.07C202.287 273.713 203.422 274.163 204.61 274.4C207.116 274.956 209.348 276.371 210.92 278.4V278.46V278.51C211.192 278.77 211.545 278.929 211.92 278.96V278.96H212.17L212.42 278.89C212.751 278.786 213.027 278.556 213.19 278.25C213.339 277.937 213.36 277.579 213.25 277.25L210.44 269.25C209.977 267.837 209.153 266.568 208.05 265.57C206.266 263.863 204.038 262.692 201.62 262.19C199.323 261.686 197.249 260.46 195.7 258.69L195.47 258.03C195.345 257.696 195.123 257.408 194.832 257.201C194.542 256.994 194.196 256.879 193.84 256.87L193.91 256.95Z" fill="#263238"/>
<path d="M153.25 222.08L180.39 216.23C177.023 201.51 174.333 186.66 172.32 171.68L142.23 178.17C145.23 192.97 148.903 207.606 153.25 222.08Z" fill="white" stroke="#263238" stroke-linecap="round" stroke-linejoin="round"/>
<path d="M175.38 206.83L153.38 211.58C150.82 202.13 149.66 197.38 147.58 187.82L170.89 182.82C172.42 192.46 173.33 197.27 175.38 206.83Z" fill="#263238" stroke="#263238" stroke-linecap="round" stroke-linejoin="round"/>
<path d="M166 196.05C164.33 201.53 163.53 204.27 162 209.72L175.38 206.84C171.53 202.54 169.65 200.38 166 196.05Z" fill="white" stroke="#263238" stroke-linecap="round" stroke-linejoin="round"/>
<path d="M158 194.84C156 201.56 155.1 204.91 153.32 211.58L169.66 208.06C164.91 202.79 162.58 200.15 158 194.84Z" fill="white" stroke="#263238" stroke-linecap="round" stroke-linejoin="round"/>
<path d="M170.2 189.48C170.331 190.102 170.217 190.751 169.881 191.291C169.546 191.831 169.015 192.221 168.4 192.38C168.096 192.436 167.784 192.43 167.482 192.363C167.181 192.296 166.896 192.17 166.644 191.991C166.392 191.812 166.179 191.584 166.017 191.321C165.855 191.058 165.747 190.765 165.7 190.46C165.563 189.834 165.674 189.179 166.009 188.632C166.345 188.086 166.879 187.691 167.5 187.53C167.806 187.473 168.12 187.479 168.424 187.547C168.728 187.615 169.015 187.744 169.268 187.927C169.52 188.109 169.733 188.341 169.893 188.608C170.053 188.875 170.158 189.172 170.2 189.48V189.48Z" fill="white" stroke="#263238" stroke-linecap="round" stroke-linejoin="round"/>
<path d="M191.66 250.64L222.49 253C217.575 238.781 215.485 223.739 216.34 208.72L186.29 201.47C184.848 218.053 186.673 234.758 191.66 250.64V250.64Z" fill="white" stroke="#263238" stroke-linecap="round" stroke-linejoin="round"/>
<path d="M214 230.54C214.92 237.25 210.83 241.99 204.08 241.22C197.33 240.45 190.55 234 189.73 226.7C188.91 219.4 194.34 214.58 200.99 215.92C207.64 217.26 213.13 223.84 214 230.54Z" fill="#263238" stroke="#263238" stroke-linecap="round" stroke-linejoin="round"/>
<path d="M208.93 229.74C204.05 226.36 201.66 224.62 196.93 221.03C197.169 225.666 197.724 230.28 198.59 234.84C202.69 232.7 204.75 231.68 208.93 229.74Z" fill="white" stroke="#263238" stroke-linecap="round" stroke-linejoin="round"/>
<path d="M206 370.32C221.69 362.88 280.76 382.32 280.76 382.32L277 390.52C277 390.52 185.74 379.93 206 370.32Z" fill="#263238" stroke="#263238" stroke-linecap="round" stroke-linejoin="round"/>
<path d="M276.91 391.25C271.713 389.482 266.63 387.394 261.69 385C245.89 377.24 214.88 363.68 203.58 370.62C188.13 380.09 198.43 406.27 233.35 423.56C268.27 440.85 294.23 441.11 302.56 433.01C310.16 425.66 296.26 397.94 276.91 391.25Z" fill="#263238" stroke="#263238" stroke-linecap="round" stroke-linejoin="round"/>
<path d="M284.61 219C284.61 219 282.96 224.91 283.61 227C284.26 229.09 286.78 231.54 286.27 234C285.76 236.46 283 239.42 283.27 241.36C283.54 243.3 286.79 244.24 286.79 244.24C286.79 244.24 291.42 253.16 292.79 256.24C294.16 259.32 295.14 258.44 298.2 258.24C301.26 258.04 308.57 253.9 312.93 250.48C317.29 247.06 314.02 233.24 308.17 223.22C302.32 213.2 290.77 211 287.79 212.94C284.81 214.88 284.61 219 284.61 219Z" fill="white"/>
<path d="M302.19 216.58C300.28 221.06 297.68 228.89 299.44 234.92C302.09 243.98 304.57 248.92 300.8 255.19C300.12 256.27 299.46 257.25 298.8 258.1C302.15 257.41 308.8 253.63 312.8 250.45C317.15 247.03 313.89 233.21 308.04 223.19C306.55 220.619 304.561 218.371 302.19 216.58V216.58Z" fill="#FFD084"/>
<path opacity="0.5" d="M302.19 216.58C300.28 221.06 297.68 228.89 299.44 234.92C302.09 243.98 304.57 248.92 300.8 255.19C300.12 256.27 299.46 257.25 298.8 258.1C302.15 257.41 308.8 253.63 312.8 250.45C317.15 247.03 313.89 233.21 308.04 223.19C306.55 220.619 304.561 218.371 302.19 216.58V216.58Z" fill="white"/>
<path d="M287.34 228.85C287.34 228.85 287.97 225.74 291.28 228.57" stroke="#263238" stroke-linecap="round" stroke-linejoin="round"/>
<path d="M290 234.13C290.32 235.19 290.18 236.13 289.67 236.32C289.16 236.51 288.51 235.74 288.19 234.68C287.87 233.62 288.01 232.68 288.5 232.51C288.99 232.34 289.7 233.08 290 234.13Z" fill="#263238"/>
<path d="M284.61 219C284.61 219 282.96 224.91 283.61 227C284.26 229.09 286.78 231.54 286.27 234C285.76 236.46 283 239.42 283.27 241.36C283.54 243.3 286.79 244.24 286.79 244.24C286.79 244.24 291.42 253.16 292.79 256.24C294.16 259.32 295.14 258.44 298.2 258.24C301.26 258.04 308.57 253.9 312.93 250.48C317.29 247.06 314.02 233.24 308.17 223.22C302.32 213.2 290.77 211 287.79 212.94C284.81 214.88 284.61 219 284.61 219Z" stroke="#263238" stroke-linecap="round" stroke-linejoin="round"/>
<path d="M286.76 353.36C286.76 353.36 280.61 347.651 278.76 347.491C276.91 347.331 274.19 348.301 273.49 348.241C272.79 348.181 271.18 347.571 269.95 348.181C269.027 348.711 268.179 349.363 267.43 350.121C266.169 350.562 264.939 351.09 263.75 351.701C261.75 352.701 256.87 357.751 256.07 358.871C255.27 359.991 255.91 360.751 257.14 360.141C258.37 359.531 265.07 355.141 265.07 355.141C265.07 355.141 270.71 358.441 272 360.011C273.542 361.979 275.628 363.45 278 364.241C280.287 364.891 282.631 365.323 285 365.531C285 365.531 289.63 361.431 289.16 358.071C289.097 357.164 288.852 356.28 288.44 355.471C288.027 354.662 287.456 353.944 286.76 353.36V353.36Z" fill="white" stroke="#263238" stroke-linecap="round" stroke-linejoin="round"/>
<path d="M329.6 275.22C327.982 275.94 326.429 276.8 324.96 277.79C322.24 279.62 319.56 283.6 318.63 292.17C317.7 300.74 317.8 321.06 317.7 329.69C317.47 349.69 291.21 349.5 286.63 351.27C282.05 353.04 277.75 358.08 279.9 362.5C281.81 366.43 287.15 366.82 291.51 366.61C297.36 366.32 327.51 364.71 331.95 361.15C338.41 355.97 336.95 348.8 337.76 340.55C340.35 315.55 340.69 289.72 340.69 289.72C340.746 286.407 339.681 283.172 337.668 280.54C335.655 277.908 332.812 276.033 329.6 275.22V275.22Z" fill="white" stroke="#263238" stroke-linecap="round" stroke-linejoin="round"/>
<path d="M306.17 256.36C306.17 256.36 310.57 257.71 309.9 261.44C309.23 265.17 308.54 268.55 308.54 268.55C308.54 268.55 332.54 269.23 332.25 267.87C331.96 266.51 325.14 243.49 325.14 243.49C325.14 243.49 312.27 242.81 306.17 256.36Z" fill="white"/>
<path d="M327.59 253.63L309.9 261.44L309.59 263.26C309.59 263.26 324.39 261.26 328.66 257.2L327.59 253.63Z" fill="#FFD084"/>
<path opacity="0.5" d="M327.59 253.63L309.9 261.44L309.59 263.26C309.59 263.26 324.39 261.26 328.66 257.2L327.59 253.63Z" fill="white"/>
<path d="M306.17 256.36C306.17 256.36 310.57 257.71 309.9 261.44C309.23 265.17 308.54 268.55 308.54 268.55C308.54 268.55 332.54 269.23 332.25 267.87C331.96 266.51 325.14 243.49 325.14 243.49C325.14 243.49 312.27 242.81 306.17 256.36Z" stroke="#263238" stroke-linecap="round" stroke-linejoin="round"/>
<path d="M283.82 272.61C276.82 277.04 278.89 281.87 280.58 290.26C284.4 309.17 289.52 345.71 287.58 354.91C285.3 365.67 278.89 372.53 270.08 372.53C265.99 372.53 265.03 376.46 260.6 374.53C251.12 370.46 243.98 373.43 240.6 376.22C226.71 387.74 244.26 428.42 264.6 438.22C282.8 446.95 302.31 441.22 311.92 437.33C315.36 435.93 319.01 436.59 322.61 437.51C341.49 442.28 356.73 426.03 358.42 411.51C361.02 389.15 354.02 388.14 350.5 363.42C350.207 360.721 350.097 358.005 350.17 355.29C350.06 338.19 356.95 322.29 355.24 296.36C354.56 286.13 352.95 273.01 346.1 269.27C317.4 253.55 284.05 272.47 283.82 272.61Z" fill="#FFD084"/>
<path opacity="0.2" d="M302.58 324.32L298.17 350.8C297.58 354.35 296.92 358.06 294.71 360.89C292.5 363.72 288.2 365.29 285.2 363.31C284.92 359.31 288.32 356.25 290.78 353.13C297.42 344.75 298.23 333.29 298.53 322.6C298.8 312.71 298.15 293.95 308.53 288.44C307.52 300.37 304.55 312.49 302.58 324.32Z" fill="black"/>
<path opacity="0.2" d="M309.38 365.521L309.84 366.121C308.98 367.191 307.48 367.461 306.12 367.681C304.76 367.901 303.25 368.211 302.43 369.311C301.61 370.411 302.24 372.491 303.62 372.381C301.86 372.521 288.81 372.041 291 367.711C292.14 365.481 306.66 365.781 309.38 365.521Z" fill="black"/>
<path opacity="0.2" d="M283 388.001C283.69 388.601 284.44 389.551 283.94 390.311C283.44 391.071 282.25 390.771 281.45 390.311C277.83 388.231 274.45 384.581 273.33 380.511C276.44 380.521 280.67 385.901 283 388.001Z" fill="black"/>
<path opacity="0.2" d="M269.47 384.65C269.474 387.159 270.166 389.618 271.47 391.76L267.63 386.64C272.079 396.037 279.304 403.841 288.33 409C284.554 406.828 281.774 403.269 280.58 399.08C280.98 400.49 284.27 398.88 283.72 397C283.22 395.34 280.99 395.87 279.67 395.3C275.19 393.42 272.08 388.53 269.47 384.65Z" fill="black"/>
<g opacity="0.2">
<path opacity="0.2" d="M236.08 391.131C244.93 407.361 261.28 419.671 276.69 429.891C295 442.001 313 435.421 329.55 432.001C325.99 434.141 326.86 435.911 330.45 436.631C336.08 436.531 341.12 433.471 345.59 430.041C350.06 426.611 353.79 421.481 358.43 412.751C356.29 426.751 339.53 441.091 325.1 438.061C320.1 437.061 315.92 436.541 312.64 437.521C308.78 438.671 307.92 438.921 300.86 440.911C288.21 444.471 270.22 444.191 258.46 434.801C251.304 428.931 245.674 421.417 242.05 412.901C239.034 406.037 237.033 398.771 236.11 391.331L236.08 391.131Z" fill="black"/>
</g>
<path opacity="0.2" d="M351.64 333.801C351.57 339.851 350.09 345.801 349.77 351.851C350.04 346.781 348.52 341.291 348.54 336.111C348.54 332.241 347.8 324.201 350.19 321.061C351.307 325.211 351.796 329.505 351.64 333.801V333.801Z" fill="black"/>
<path d="M283.82 272.61C276.82 277.04 278.89 281.87 280.58 290.26C284.4 309.17 289.52 345.71 287.58 354.91C285.3 365.67 278.89 372.53 270.08 372.53C265.99 372.53 265.03 376.46 260.6 374.53C251.12 370.46 243.98 373.43 240.6 376.22C226.71 387.74 244.26 428.42 264.6 438.22C282.8 446.95 302.31 441.22 311.92 437.33C315.36 435.93 319.01 436.59 322.61 437.51C341.49 442.28 356.73 426.03 358.42 411.51C361.02 389.15 354.02 388.14 350.5 363.42C350.207 360.721 350.097 358.005 350.17 355.29C350.06 338.19 356.95 322.29 355.24 296.36C354.56 286.13 352.95 273.01 346.1 269.27C317.4 253.55 284.05 272.47 283.82 272.61Z" stroke="#263238" stroke-linecap="round" stroke-linejoin="round"/>
<path d="M248.33 352.65C248.33 352.65 241.26 348.12 239.39 348.3C237.52 348.48 235.04 349.9 234.39 349.96C233.74 350.02 232 349.72 230.89 350.53C230.078 351.219 229.362 352.013 228.76 352.89C227.593 353.548 226.474 354.287 225.41 355.1C223.65 356.45 219.72 362.27 219.13 363.52C218.54 364.77 219.31 365.39 220.41 364.58C221.22 363.97 224.6 360.8 226.32 359.18C226.624 358.892 227.003 358.697 227.414 358.617C227.825 358.537 228.25 358.577 228.64 358.73C230.53 359.47 233.91 360.86 235 361.79C236.883 363.461 239.217 364.539 241.71 364.89C244.071 365.115 246.448 365.115 248.81 364.89C248.81 364.89 252.65 360.03 251.58 356.82C251.349 355.941 250.942 355.118 250.384 354.401C249.825 353.684 249.126 353.088 248.33 352.65Z" fill="white"/>
<path d="M294.08 331.471C291.48 338.401 287.41 344.951 281.47 349.361C277.03 352.651 271.76 354.611 266.47 356.361C261.637 357.987 256.763 359.494 251.85 360.881C250.28 361.321 248.45 361.711 247.12 360.761C246.566 360.289 246.16 359.667 245.952 358.969C245.744 358.271 245.744 357.529 245.95 356.831C246.379 355.44 247.079 354.149 248.01 353.031C246.838 353.369 245.765 353.981 244.878 354.818C243.99 355.654 243.316 356.691 242.91 357.841C242.48 359.081 242.31 360.551 241.25 361.351C240.923 361.552 240.559 361.687 240.179 361.745C239.8 361.804 239.412 361.787 239.039 361.694C238.667 361.6 238.316 361.434 238.009 361.203C237.702 360.972 237.444 360.682 237.25 360.351C236.888 359.672 236.698 358.915 236.698 358.146C236.698 357.376 236.888 356.619 237.25 355.941C237.984 354.592 238.937 353.376 240.07 352.341C238.93 351.991 237.85 353.021 237.25 354.051C236.65 355.081 236.14 356.301 235.05 356.771C233.71 357.341 232.23 356.501 230.82 356.161C229.535 355.923 228.212 356.004 226.965 356.396C225.719 356.789 224.587 357.48 223.67 358.411C221.845 360.28 220.437 362.516 219.54 364.971C220.08 363.635 220.936 362.45 222.034 361.516C223.132 360.583 224.439 359.93 225.845 359.613C227.25 359.295 228.712 359.323 230.104 359.694C231.496 360.064 232.778 360.766 233.84 361.741C234.724 362.762 235.732 363.669 236.84 364.441C238.055 364.967 239.38 365.19 240.7 365.091C253.802 365.078 266.831 363.123 279.36 359.291C284.69 357.651 290.24 355.451 293.49 350.911C296.03 347.381 296.81 342.911 297.37 338.601C297.963 334.047 298.377 329.484 298.61 324.911C298.83 320.791 299.41 316.131 298.73 312.061C297.37 318.621 296.45 325.161 294.08 331.471Z" fill="#FFD084"/>
<path opacity="0.5" d="M294.08 331.471C291.48 338.401 287.41 344.951 281.47 349.361C277.03 352.651 271.76 354.611 266.47 356.361C261.637 357.987 256.763 359.494 251.85 360.881C250.28 361.321 248.45 361.711 247.12 360.761C246.566 360.289 246.16 359.667 245.952 358.969C245.744 358.271 245.744 357.529 245.95 356.831C246.379 355.44 247.079 354.149 248.01 353.031C246.838 353.369 245.765 353.981 244.878 354.818C243.99 355.654 243.316 356.691 242.91 357.841C242.48 359.081 242.31 360.551 241.25 361.351C240.923 361.552 240.559 361.687 240.179 361.745C239.8 361.804 239.412 361.787 239.039 361.694C238.667 361.6 238.316 361.434 238.009 361.203C237.702 360.972 237.444 360.682 237.25 360.351C236.888 359.672 236.698 358.915 236.698 358.146C236.698 357.376 236.888 356.619 237.25 355.941C237.984 354.592 238.937 353.376 240.07 352.341C238.93 351.991 237.85 353.021 237.25 354.051C236.65 355.081 236.14 356.301 235.05 356.771C233.71 357.341 232.23 356.501 230.82 356.161C229.535 355.923 228.212 356.004 226.965 356.396C225.719 356.789 224.587 357.48 223.67 358.411C221.845 360.28 220.437 362.516 219.54 364.971C220.08 363.635 220.936 362.45 222.034 361.516C223.132 360.583 224.439 359.93 225.845 359.613C227.25 359.295 228.712 359.323 230.104 359.694C231.496 360.064 232.778 360.766 233.84 361.741C234.724 362.762 235.732 363.669 236.84 364.441C238.055 364.967 239.38 365.19 240.7 365.091C253.802 365.078 266.831 363.123 279.36 359.291C284.69 357.651 290.24 355.451 293.49 350.911C296.03 347.381 296.81 342.911 297.37 338.601C297.963 334.047 298.377 329.484 298.61 324.911C298.83 320.791 299.41 316.131 298.73 312.061C297.37 318.621 296.45 325.161 294.08 331.471Z" fill="white"/>
<path d="M248.33 352.65C248.33 352.65 241.26 348.12 239.39 348.3C237.52 348.48 235.04 349.9 234.39 349.96C233.74 350.02 232 349.72 230.89 350.53C230.078 351.219 229.362 352.013 228.76 352.89C227.593 353.548 226.474 354.287 225.41 355.1C223.65 356.45 219.72 362.27 219.13 363.52C218.54 364.77 219.31 365.39 220.41 364.58C221.22 363.97 224.6 360.8 226.32 359.18C226.624 358.892 227.003 358.697 227.414 358.617C227.825 358.537 228.25 358.577 228.64 358.73C230.53 359.47 233.91 360.86 235 361.79C236.883 363.461 239.217 364.539 241.71 364.89C244.071 365.115 246.448 365.115 248.81 364.89C248.81 364.89 252.65 360.03 251.58 356.82C251.349 355.941 250.942 355.118 250.384 354.401C249.825 353.684 249.126 353.088 248.33 352.65Z" stroke="#263238" stroke-linecap="round" stroke-linejoin="round"/>
<path d="M299 292.71C298.55 285.9 292.25 272.64 285.52 271.51C283.97 272.364 282.495 273.348 281.11 274.45C278.55 276.5 277.78 280.59 277.55 289.21C277.32 297.83 278.91 317.66 277.89 335.95C277.89 336.29 252.38 350.06 247.96 352.2C243.54 354.34 240.68 358.37 243.19 362.6C245.42 366.35 250.19 365.54 254.52 364.96C260.33 364.19 287.52 358.51 292.46 353.45C302.24 343.29 299 292.71 299 292.71Z" fill="white"/>
<path d="M294.08 331.471C291.48 338.401 287.41 344.951 281.47 349.361C277.03 352.651 271.76 354.611 266.47 356.361C261.637 357.987 256.763 359.494 251.85 360.881C250.28 361.321 248.45 361.711 247.12 360.761C246.566 360.289 246.16 359.667 245.952 358.969C245.744 358.271 245.744 357.529 245.95 356.831C246.379 355.44 247.079 354.149 248.01 353.031C246.838 353.369 245.765 353.981 244.878 354.818C243.99 355.654 243.316 356.691 242.91 357.841C242.48 359.081 242.31 360.551 241.25 361.351C240.923 361.552 240.559 361.687 240.179 361.745C239.8 361.804 239.412 361.787 239.039 361.694C238.667 361.6 238.316 361.434 238.009 361.203C237.702 360.972 237.444 360.682 237.25 360.351C236.888 359.672 236.698 358.915 236.698 358.146C236.698 357.376 236.888 356.619 237.25 355.941C237.984 354.592 238.937 353.376 240.07 352.341C238.93 351.991 237.85 353.021 237.25 354.051C236.65 355.081 236.14 356.301 235.05 356.771C233.71 357.341 232.23 356.501 230.82 356.161C229.535 355.923 228.212 356.004 226.965 356.396C225.719 356.789 224.587 357.48 223.67 358.411C221.845 360.28 220.437 362.516 219.54 364.971C220.08 363.635 220.936 362.45 222.034 361.516C223.132 360.583 224.439 359.93 225.845 359.613C227.25 359.295 228.712 359.323 230.104 359.694C231.496 360.064 232.778 360.766 233.84 361.741C234.724 362.762 235.732 363.669 236.84 364.441C238.055 364.967 239.38 365.19 240.7 365.091C253.802 365.078 266.831 363.123 279.36 359.291C284.69 357.651 290.24 355.451 293.49 350.911C296.03 347.381 296.81 342.911 297.37 338.601C297.963 334.047 298.377 329.484 298.61 324.911C298.83 320.791 299.41 316.131 298.73 312.061C297.37 318.621 296.45 325.161 294.08 331.471Z" fill="#FFD084"/>
<path opacity="0.5" d="M294.08 331.471C291.48 338.401 287.41 344.951 281.47 349.361C277.03 352.651 271.76 354.611 266.47 356.361C261.637 357.987 256.763 359.494 251.85 360.881C250.28 361.321 248.45 361.711 247.12 360.761C246.566 360.289 246.16 359.667 245.952 358.969C245.744 358.271 245.744 357.529 245.95 356.831C246.379 355.44 247.079 354.149 248.01 353.031C246.838 353.369 245.765 353.981 244.878 354.818C243.99 355.654 243.316 356.691 242.91 357.841C242.48 359.081 242.31 360.551 241.25 361.351C240.923 361.552 240.559 361.687 240.179 361.745C239.8 361.804 239.412 361.787 239.039 361.694C238.667 361.6 238.316 361.434 238.009 361.203C237.702 360.972 237.444 360.682 237.25 360.351C236.888 359.672 236.698 358.915 236.698 358.146C236.698 357.376 236.888 356.619 237.25 355.941C237.984 354.592 238.937 353.376 240.07 352.341C238.93 351.991 237.85 353.021 237.25 354.051C236.65 355.081 236.14 356.301 235.05 356.771C233.71 357.341 232.23 356.501 230.82 356.161C229.535 355.923 228.212 356.004 226.965 356.396C225.719 356.789 224.587 357.48 223.67 358.411C221.845 360.28 220.437 362.516 219.54 364.971C220.08 363.635 220.936 362.45 222.034 361.516C223.132 360.583 224.439 359.93 225.845 359.613C227.25 359.295 228.712 359.323 230.104 359.694C231.496 360.064 232.778 360.766 233.84 361.741C234.724 362.762 235.732 363.669 236.84 364.441C238.055 364.967 239.38 365.19 240.7 365.091C253.802 365.078 266.831 363.123 279.36 359.291C284.69 357.651 290.24 355.451 293.49 350.911C296.03 347.381 296.81 342.911 297.37 338.601C297.963 334.047 298.377 329.484 298.61 324.911C298.83 320.791 299.41 316.131 298.73 312.061C297.37 318.621 296.45 325.161 294.08 331.471Z" fill="white"/>
<path d="M299 292.71C298.55 285.9 292.25 272.64 285.52 271.51C283.97 272.364 282.495 273.348 281.11 274.45C278.55 276.5 277.78 280.59 277.55 289.21C277.32 297.83 278.91 317.66 277.89 335.95C277.89 336.29 252.38 350.06 247.96 352.2C243.54 354.34 240.68 358.37 243.19 362.6C245.42 366.35 250.19 365.54 254.52 364.96C260.33 364.19 287.52 358.51 292.46 353.45C302.24 343.29 299 292.71 299 292.71Z" stroke="#263238" stroke-linecap="round" stroke-linejoin="round"/>
<path d="M348.17 233.54C352.46 225.17 348.67 214.3 343.09 206.72C333.91 194.23 314.43 190.53 299.78 192.51C292.92 193.44 286.04 196.77 282.48 202.71C278.92 208.65 279.78 217.38 285.48 221.37C290.79 225.12 299.22 224.51 302.48 230.16C305.92 236.16 300.21 243.38 300.12 250.32C300.05 254.69 302.27 258.84 302.29 263.22C302.21 263.22 336 257.37 348.17 233.54Z" fill="#263238" stroke="#263238" stroke-linecap="round" stroke-linejoin="round"/>
<path d="M249.83 351.36C249.83 351.36 249.93 352.36 245.83 349.66C241.93 347.12 231.77 356.44 235.68 362.8L236.01 363.89C236.45 365.37 239.29 364.41 240.75 364.89C242.542 365.521 244.464 365.693 246.34 365.39C249.4 365.07 240.94 360 249.83 351.36Z" fill="white"/>
<path d="M294.08 331.471C291.48 338.401 287.41 344.951 281.47 349.361C277.03 352.651 271.76 354.611 266.47 356.361C261.637 357.987 256.763 359.494 251.85 360.881C250.28 361.321 248.45 361.711 247.12 360.761C246.566 360.289 246.16 359.667 245.952 358.969C245.744 358.271 245.744 357.529 245.95 356.831C246.379 355.44 247.079 354.149 248.01 353.031C246.838 353.369 245.765 353.981 244.878 354.818C243.99 355.654 243.316 356.691 242.91 357.841C242.48 359.081 242.31 360.551 241.25 361.351C240.923 361.552 240.559 361.687 240.179 361.745C239.8 361.804 239.412 361.787 239.039 361.694C238.667 361.6 238.316 361.434 238.009 361.203C237.702 360.972 237.444 360.682 237.25 360.351C236.888 359.672 236.698 358.915 236.698 358.146C236.698 357.376 236.888 356.619 237.25 355.941C237.984 354.592 238.937 353.376 240.07 352.341C238.93 351.991 237.85 353.021 237.25 354.051C236.65 355.081 236.14 356.301 235.05 356.771C233.71 357.341 232.23 356.501 230.82 356.161C229.535 355.923 228.212 356.004 226.965 356.396C225.719 356.789 224.587 357.48 223.67 358.411C221.845 360.28 220.437 362.516 219.54 364.971C220.08 363.635 220.936 362.45 222.034 361.516C223.132 360.583 224.439 359.93 225.845 359.613C227.25 359.295 228.712 359.323 230.104 359.694C231.496 360.064 232.778 360.766 233.84 361.741C234.724 362.762 235.732 363.669 236.84 364.441C238.055 364.967 239.38 365.19 240.7 365.091C253.802 365.078 266.831 363.123 279.36 359.291C284.69 357.651 290.24 355.451 293.49 350.911C296.03 347.381 296.81 342.911 297.37 338.601C297.963 334.047 298.377 329.484 298.61 324.911C298.83 320.791 299.41 316.131 298.73 312.061C297.37 318.621 296.45 325.161 294.08 331.471Z" fill="#FFD084"/>
<path opacity="0.5" d="M294.08 331.471C291.48 338.401 287.41 344.951 281.47 349.361C277.03 352.651 271.76 354.611 266.47 356.361C261.637 357.987 256.763 359.494 251.85 360.881C250.28 361.321 248.45 361.711 247.12 360.761C246.566 360.289 246.16 359.667 245.952 358.969C245.744 358.271 245.744 357.529 245.95 356.831C246.379 355.44 247.079 354.149 248.01 353.031C246.838 353.369 245.765 353.981 244.878 354.818C243.99 355.654 243.316 356.691 242.91 357.841C242.48 359.081 242.31 360.551 241.25 361.351C240.923 361.552 240.559 361.687 240.179 361.745C239.8 361.804 239.412 361.787 239.039 361.694C238.667 361.6 238.316 361.434 238.009 361.203C237.702 360.972 237.444 360.682 237.25 360.351C236.888 359.672 236.698 358.915 236.698 358.146C236.698 357.376 236.888 356.619 237.25 355.941C237.984 354.592 238.937 353.376 240.07 352.341C238.93 351.991 237.85 353.021 237.25 354.051C236.65 355.081 236.14 356.301 235.05 356.771C233.71 357.341 232.23 356.501 230.82 356.161C229.535 355.923 228.212 356.004 226.965 356.396C225.719 356.789 224.587 357.48 223.67 358.411C221.845 360.28 220.437 362.516 219.54 364.971C220.08 363.635 220.936 362.45 222.034 361.516C223.132 360.583 224.439 359.93 225.845 359.613C227.25 359.295 228.712 359.323 230.104 359.694C231.496 360.064 232.778 360.766 233.84 361.741C234.724 362.762 235.732 363.669 236.84 364.441C238.055 364.967 239.38 365.19 240.7 365.091C253.802 365.078 266.831 363.123 279.36 359.291C284.69 357.651 290.24 355.451 293.49 350.911C296.03 347.381 296.81 342.911 297.37 338.601C297.963 334.047 298.377 329.484 298.61 324.911C298.83 320.791 299.41 316.131 298.73 312.061C297.37 318.621 296.45 325.161 294.08 331.471Z" fill="white"/>
<path d="M249.83 351.36C249.83 351.36 249.93 352.36 245.83 349.66C241.93 347.12 231.77 356.44 235.68 362.8L236.01 363.89C236.45 365.37 239.29 364.41 240.75 364.89C242.542 365.521 244.464 365.693 246.34 365.39C249.4 365.07 240.94 360 249.83 351.36Z" stroke="#263238" stroke-linecap="round" stroke-linejoin="round"/>
<path d="M294.93 197.46C292 201.08 292.22 206.4 293.87 210.75C295.52 215.1 298.36 218.9 300.43 223.07C302.5 227.24 305.06 231.54 303.33 235.87C305.897 226.543 306.203 216.738 304.22 207.27" stroke="#757575" stroke-linecap="round" stroke-linejoin="round"/>
<path d="M307.9 194.53C323.2 209.26 327.81 223.6 328.5 236.82" stroke="#757575" stroke-linecap="round" stroke-linejoin="round"/>
<path d="M300.15 201.84C303.854 211.208 305.017 221.388 303.52 231.35" stroke="#757575" stroke-linecap="round" stroke-linejoin="round"/>
<path d="M286.73 200.71C284.521 202.779 283.088 205.542 282.67 208.54" stroke="#757575" stroke-linecap="round" stroke-linejoin="round"/>
<path d="M290.57 199.53C289.791 201.237 289.362 203.084 289.311 204.96C289.259 206.836 289.586 208.703 290.27 210.45" stroke="#757575" stroke-linecap="round" stroke-linejoin="round"/>
<path d="M323.5 199.14C327.415 201.472 330.715 204.707 333.126 208.574C335.537 212.441 336.989 216.828 337.36 221.37" stroke="#757575" stroke-linecap="round" stroke-linejoin="round"/>
<path d="M334.58 201.75C336.39 202.938 337.88 204.552 338.92 206.45" stroke="#757575" stroke-linecap="round" stroke-linejoin="round"/>
<path d="M266.32 379.91C267.569 385.964 270.086 391.685 273.705 396.695C277.325 401.706 281.965 405.893 287.32 408.98" stroke="#263238" stroke-linecap="round" stroke-linejoin="round"/>
<path d="M272.05 376.26C272.188 379.54 273.346 382.695 275.362 385.285C277.379 387.875 280.154 389.772 283.3 390.71" stroke="#263238" stroke-linecap="round" stroke-linejoin="round"/>
<path d="M310.47 365.2L293.37 367.43C292.52 367.54 291.53 367.75 291.18 368.54C291.063 368.887 291.06 369.263 291.172 369.612C291.283 369.961 291.503 370.265 291.8 370.48C292.397 370.897 293.081 371.174 293.8 371.29C301.232 373.012 308.815 373.997 316.44 374.23" stroke="#263238" stroke-linecap="round" stroke-linejoin="round"/>
<path d="M309.13 438.46C314.593 435.887 320.406 434.132 326.38 433.25" stroke="#263238" stroke-linecap="round" stroke-linejoin="round"/>
<path d="M248.82 352C247.586 352.422 246.479 353.147 245.6 354.11C244.69 355.04 243.92 356.11 243.05 357.06C242.909 357.246 242.728 357.396 242.52 357.5C242.415 357.55 242.297 357.567 242.182 357.547C242.068 357.528 241.962 357.473 241.88 357.39C241.818 357.273 241.785 357.143 241.785 357.01C241.785 356.878 241.818 356.747 241.88 356.63C242.324 355.384 243.073 354.27 244.06 353.39" fill="white"/>
<path d="M248.82 352C247.586 352.422 246.479 353.147 245.6 354.11C244.69 355.04 243.92 356.11 243.05 357.06C242.909 357.246 242.728 357.396 242.52 357.5C242.415 357.55 242.297 357.567 242.182 357.547C242.068 357.528 241.962 357.473 241.88 357.39C241.818 357.273 241.785 357.143 241.785 357.01C241.785 356.878 241.818 356.747 241.88 356.63C242.324 355.384 243.073 354.27 244.06 353.39" stroke="#263238" stroke-linecap="round" stroke-linejoin="round"/>
<path d="M304.91 290.89L299.39 310.17Z" fill="white"/>
<path d="M304.91 290.89L299.39 310.17" stroke="#263238" stroke-linecap="round" stroke-linejoin="round"/>
<path d="M350.35 318.75C348.02 336.49 349.55 358 352.7 374.56" stroke="#263238" stroke-linecap="round" stroke-linejoin="round"/>
<path d="M351.18 312.36L350.83 315.22" stroke="#263238" stroke-linecap="round" stroke-linejoin="round"/>
</svg>
