<svg width="500" height="500" viewBox="0 0 500 500" fill="none" xmlns="http://www.w3.org/2000/svg">
<path opacity="0.7" d="M67.93 167.091C67.93 167.091 40.05 239.091 79.23 311.591C118.41 384.091 199.11 422.391 263.7 455.141C328.29 487.891 395.36 471.941 427.23 418.301C459.1 364.661 415.39 326.371 415.33 249.881C415.27 173.391 426.78 153.141 385.33 88.5206C343.88 23.9006 242.27 9.59056 165.43 57.5206C88.59 105.451 67.93 167.091 67.93 167.091Z" fill="white"/>
<path d="M248.12 26.1303C25.6301 38.5803 -22.1299 333.68 52.3801 423.93C110.21 493.98 213.32 482.42 267.74 413.85C312.56 357.4 385.1 399.1 444.9 338.06C522.81 258.53 497.77 12.1603 248.12 26.1303Z" fill="#FFD084"/>
<path opacity="0.7" d="M248.12 26.1303C25.6301 38.5803 -22.1299 333.68 52.3801 423.93C110.21 493.98 213.32 482.42 267.74 413.85C312.56 357.4 385.1 399.1 444.9 338.06C522.81 258.53 497.77 12.1603 248.12 26.1303Z" fill="white"/>
<path d="M434.36 76.5097V358.45C434.36 359.199 434.063 359.917 433.535 360.447C433.006 360.978 432.289 361.277 431.54 361.28H262.31C261.559 361.28 260.84 360.982 260.309 360.451C259.778 359.92 259.48 359.2 259.48 358.45V76.5097C259.48 75.7591 259.778 75.0393 260.309 74.5086C260.84 73.9778 261.559 73.6797 262.31 73.6797H309L310.53 78.8797H383.41L384.95 73.6797H431.59C432.33 73.6954 433.035 74.0005 433.552 74.5295C434.07 75.0585 434.36 75.7694 434.36 76.5097Z" fill="#FFD084"/>
<path opacity="0.5" d="M434.36 100.939V358.449C434.36 359.198 434.063 359.917 433.535 360.447C433.006 360.977 432.289 361.277 431.54 361.279H262.31C261.559 361.279 260.84 360.981 260.309 360.451C259.778 359.92 259.48 359.2 259.48 358.449V100.939H434.36Z" fill="white"/>
<g opacity="0.2">
<path opacity="0.2" d="M404.69 127.119H259.22V190.389H404.69C405.592 190.389 406.457 190.031 407.094 189.393C407.732 188.756 408.09 187.891 408.09 186.989V130.519C408.09 129.617 407.732 128.753 407.094 128.115C406.457 127.477 405.592 127.119 404.69 127.119Z" fill="black"/>
<path opacity="0.2" d="M389.64 194.589H259.22V261.069H389.64C390.587 261.069 391.495 260.693 392.164 260.023C392.834 259.354 393.21 258.446 393.21 257.499V198.149C393.21 197.681 393.118 197.217 392.938 196.784C392.758 196.352 392.495 195.959 392.164 195.628C391.832 195.297 391.438 195.035 391.005 194.857C390.572 194.679 390.108 194.588 389.64 194.589V194.589Z" fill="black"/>
<path opacity="0.2" d="M404.69 259.759H259.22V322.999H404.69C405.59 322.999 406.453 322.642 407.091 322.006C407.728 321.371 408.087 320.509 408.09 319.609V263.159C408.09 262.257 407.732 261.392 407.094 260.755C406.457 260.117 405.592 259.759 404.69 259.759V259.759Z" fill="black"/>
<path opacity="0.2" d="M408.08 329.479V361.279H262.31C261.559 361.279 260.84 360.981 260.309 360.45C259.778 359.919 259.48 359.2 259.48 358.449V326.079H404.69C405.59 326.082 406.452 326.441 407.088 327.078C407.723 327.716 408.08 328.579 408.08 329.479Z" fill="black"/>
<path opacity="0.2" d="M421.74 131V147.26C421.738 147.932 421.56 148.593 421.223 149.176C420.886 149.758 420.402 150.242 419.82 150.58V361.28H416V150.54C415.418 150.202 414.934 149.718 414.597 149.136C414.26 148.553 414.082 147.892 414.08 147.22V131C414.13 130.014 414.557 129.085 415.273 128.405C415.989 127.725 416.938 127.346 417.925 127.346C418.912 127.346 419.862 127.725 420.577 128.405C421.293 129.085 421.72 130.014 421.77 131H421.74Z" fill="black"/>
</g>
<path d="M434.36 76.5097V358.45C434.36 359.199 434.063 359.917 433.535 360.447C433.006 360.978 432.289 361.277 431.54 361.28H262.31C261.559 361.28 260.84 360.982 260.309 360.451C259.778 359.92 259.48 359.2 259.48 358.45V76.5097C259.48 75.7591 259.778 75.0393 260.309 74.5086C260.84 73.9778 261.559 73.6797 262.31 73.6797H309L310.53 78.8797H383.41L384.95 73.6797H431.59C432.33 73.6954 433.035 74.0005 433.552 74.5295C434.07 75.0585 434.36 75.7694 434.36 76.5097Z" stroke="#263238" stroke-width="1.14453" stroke-linecap="round" stroke-linejoin="round"/>
<path d="M259.48 101.18H434.36" stroke="#263238" stroke-width="1.14453" stroke-linecap="round" stroke-linejoin="round"/>
<path d="M386.37 119.109H242.86C240.982 119.109 239.46 120.632 239.46 122.509V175.909C239.46 177.787 240.982 179.309 242.86 179.309H386.37C388.248 179.309 389.77 177.787 389.77 175.909V122.509C389.77 120.632 388.248 119.109 386.37 119.109Z" fill="white"/>
<path d="M295.64 126.12H246.76V172.29H295.64V126.12Z" fill="white" stroke="#263238" stroke-width="1.14453" stroke-linecap="round" stroke-linejoin="round"/>
<path d="M350 130.18H306.26C305.73 130.18 305.221 129.969 304.846 129.594C304.471 129.219 304.26 128.71 304.26 128.18C304.26 127.649 304.471 127.141 304.846 126.765C305.221 126.39 305.73 126.18 306.26 126.18H350C350.53 126.18 351.039 126.39 351.414 126.765C351.789 127.141 352 127.649 352 128.18C352 128.71 351.789 129.219 351.414 129.594C351.039 129.969 350.53 130.18 350 130.18Z" fill="#263238"/>
<path d="M324.26 139.14H306.26C305.73 139.14 305.221 138.929 304.846 138.554C304.471 138.179 304.26 137.67 304.26 137.14C304.26 136.609 304.471 136.101 304.846 135.725C305.221 135.35 305.73 135.14 306.26 135.14H324.26C324.79 135.14 325.299 135.35 325.674 135.725C326.049 136.101 326.26 136.609 326.26 137.14C326.26 137.67 326.049 138.179 325.674 138.554C325.299 138.929 324.79 139.14 324.26 139.14Z" fill="#263238"/>
<path d="M361.86 161.69C361.105 161.437 360.286 161.448 359.538 161.721C358.79 161.993 358.156 162.511 357.74 163.19C357.334 162.504 356.708 161.976 355.964 161.69C355.219 161.405 354.4 161.381 353.64 161.62C351.26 162.34 350.42 165.35 352.39 168.13C353.712 169.809 355.389 171.175 357.3 172.13L357.68 172.31L358.05 172.14C359.985 171.222 361.693 169.887 363.05 168.23C365 165.46 364.23 162.43 361.86 161.69Z" fill="#FFD084" stroke="#263238" stroke-width="1.14453" stroke-linecap="round" stroke-linejoin="round"/>
<path d="M378.85 168.64H371.58L370.84 161.46H379.59L378.85 168.64Z" fill="white" stroke="#263238" stroke-width="1.14453" stroke-linecap="round" stroke-linejoin="round"/>
<path d="M371.1 163.91H379.33" stroke="#263238" stroke-width="1.14453" stroke-linecap="round" stroke-linejoin="round"/>
<path d="M371.36 166.19H379.07" stroke="#263238" stroke-width="1.14453" stroke-linecap="round" stroke-linejoin="round"/>
<path d="M373.59 161.46L373.77 168.64" stroke="#263238" stroke-width="1.14453" stroke-linecap="round" stroke-linejoin="round"/>
<path d="M376.84 161.46L376.62 168.64" stroke="#263238" stroke-width="1.14453" stroke-linecap="round" stroke-linejoin="round"/>
<path d="M379.55 161.44L381.58 160.7" stroke="#263238" stroke-width="1.14453" stroke-linecap="round" stroke-linejoin="round"/>
<path d="M380.78 172.12C380.78 172.304 380.725 172.484 380.623 172.637C380.521 172.79 380.376 172.909 380.206 172.98C380.036 173.05 379.849 173.068 379.669 173.033C379.488 172.997 379.322 172.908 379.192 172.778C379.062 172.648 378.974 172.482 378.938 172.302C378.902 172.121 378.92 171.934 378.991 171.765C379.061 171.595 379.18 171.449 379.333 171.347C379.486 171.245 379.666 171.19 379.85 171.19C380.097 171.19 380.333 171.288 380.508 171.463C380.682 171.637 380.78 171.874 380.78 172.12Z" fill="white" stroke="#263238" stroke-width="1.14453" stroke-linecap="round" stroke-linejoin="round"/>
<path d="M371.3 172.12C371.3 172.304 371.245 172.484 371.143 172.637C371.041 172.79 370.896 172.909 370.726 172.98C370.556 173.05 370.369 173.068 370.189 173.033C370.008 172.997 369.842 172.908 369.712 172.778C369.582 172.648 369.494 172.482 369.458 172.302C369.422 172.121 369.44 171.934 369.511 171.765C369.581 171.595 369.7 171.449 369.853 171.347C370.006 171.245 370.186 171.19 370.37 171.19C370.617 171.19 370.853 171.288 371.028 171.463C371.202 171.637 371.3 171.874 371.3 172.12Z" fill="white" stroke="#263238" stroke-width="1.14453" stroke-linecap="round" stroke-linejoin="round"/>
<path d="M370.61 169.91H379.85" stroke="#263238" stroke-width="1.14453" stroke-linecap="round" stroke-linejoin="round"/>
<path d="M258 145.91L261 163H281L284.88 145.91C284.88 145.91 281.44 142.44 281.58 134.28L279.14 133.42C279.14 133.42 279.86 140.42 271.24 140.42C262.62 140.42 262.34 134.11 262.34 134.11L259.9 135.05C259.9 135.05 261.44 142 258 145.91Z" fill="#FFD084" stroke="#263238" stroke-width="1.14453" stroke-linecap="round" stroke-linejoin="round"/>
<path d="M277.15 147C275.626 146.86 274.093 146.86 272.57 147L271.42 144.42L270.52 147.09C268.21 147.2 266.17 147.32 266.17 147.32L269.69 149.56C269.08 151.32 268.49 152.99 268.22 153.56C268.22 153.56 269.97 152.35 271.92 150.97L275.33 153.13L273.77 149.65C274.979 148.876 276.11 147.989 277.15 147V147Z" fill="#FFD084" stroke="#263238" stroke-width="1.14453" stroke-linecap="round" stroke-linejoin="round"/>
<path opacity="0.2" d="M382.27 168.64H239.46V175.91C239.46 176.811 239.818 177.676 240.456 178.314C241.093 178.951 241.958 179.31 242.86 179.31H385.55V171.92C385.55 171.489 385.465 171.062 385.3 170.664C385.135 170.266 384.894 169.905 384.589 169.6C384.285 169.296 383.923 169.054 383.525 168.889C383.127 168.724 382.701 168.64 382.27 168.64V168.64Z" fill="black"/>
<path d="M386.37 119.109H242.86C240.982 119.109 239.46 120.632 239.46 122.509V175.909C239.46 177.787 240.982 179.309 242.86 179.309H386.37C388.248 179.309 389.77 177.787 389.77 175.909V122.509C389.77 120.632 388.248 119.109 386.37 119.109Z" stroke="#263238" stroke-width="1.14453" stroke-linecap="round" stroke-linejoin="round"/>
<path d="M389.77 248.7V302.12C389.769 302.565 389.68 303.005 389.508 303.416C389.336 303.827 389.086 304.2 388.77 304.514C388.454 304.828 388.08 305.076 387.668 305.245C387.256 305.415 386.815 305.501 386.37 305.5H242.86C242.415 305.501 241.974 305.415 241.562 305.245C241.15 305.076 240.776 304.828 240.46 304.514C240.144 304.2 239.893 303.827 239.722 303.416C239.55 303.005 239.461 302.565 239.46 302.12V248.7C239.463 247.8 239.822 246.937 240.459 246.302C241.097 245.666 241.96 245.31 242.86 245.31H386.37C387.27 245.31 388.133 245.666 388.771 246.302C389.408 246.937 389.767 247.8 389.77 248.7Z" fill="white"/>
<path d="M295.64 252.319H246.76V298.489H295.64V252.319Z" fill="white" stroke="#263238" stroke-width="1.14453" stroke-linecap="round" stroke-linejoin="round"/>
<path d="M350 256.38H306.26C305.73 256.38 305.221 256.169 304.846 255.794C304.471 255.419 304.26 254.91 304.26 254.38C304.26 253.849 304.471 253.341 304.846 252.966C305.221 252.591 305.73 252.38 306.26 252.38H350C350.53 252.38 351.039 252.591 351.414 252.966C351.789 253.341 352 253.849 352 254.38C352 254.91 351.789 255.419 351.414 255.794C351.039 256.169 350.53 256.38 350 256.38Z" fill="#263238"/>
<path d="M324.52 261.279H306C305.022 261.279 304.23 262.072 304.23 263.049V263.569C304.23 264.547 305.022 265.339 306 265.339H324.52C325.498 265.339 326.29 264.547 326.29 263.569V263.049C326.29 262.072 325.498 261.279 324.52 261.279Z" fill="#263238"/>
<path d="M361.86 287.889C361.104 287.637 360.284 287.65 359.536 287.924C358.788 288.198 358.154 288.718 357.74 289.399C357.336 288.712 356.71 288.182 355.965 287.897C355.22 287.612 354.4 287.588 353.64 287.829C351.26 288.539 350.42 291.559 352.39 294.329C353.709 296.011 355.386 297.377 357.3 298.329L357.68 298.519L358.05 298.339C359.985 297.421 361.693 296.086 363.05 294.429C365 291.669 364.23 288.639 361.86 287.889Z" fill="#FFD084" stroke="#263238" stroke-width="1.14453" stroke-linecap="round" stroke-linejoin="round"/>
<path d="M378.85 294.84H371.58L370.84 287.67H379.59L378.85 294.84Z" fill="white" stroke="#263238" stroke-width="1.14453" stroke-linecap="round" stroke-linejoin="round"/>
<path d="M371.1 290.109H379.33" stroke="#263238" stroke-width="1.14453" stroke-linecap="round" stroke-linejoin="round"/>
<path d="M371.36 292.39H379.07" stroke="#263238" stroke-width="1.14453" stroke-linecap="round" stroke-linejoin="round"/>
<path d="M373.59 287.67L373.77 294.84" stroke="#263238" stroke-width="1.14453" stroke-linecap="round" stroke-linejoin="round"/>
<path d="M376.84 287.67L376.62 294.84" stroke="#263238" stroke-width="1.14453" stroke-linecap="round" stroke-linejoin="round"/>
<path d="M379.55 287.639L381.58 286.899" stroke="#263238" stroke-width="1.14453" stroke-linecap="round" stroke-linejoin="round"/>
<path d="M380.78 298.32C380.78 298.504 380.725 298.683 380.623 298.836C380.521 298.989 380.376 299.108 380.206 299.179C380.036 299.249 379.849 299.268 379.669 299.232C379.488 299.196 379.322 299.107 379.192 298.977C379.062 298.847 378.974 298.681 378.938 298.501C378.902 298.321 378.92 298.134 378.991 297.964C379.061 297.794 379.18 297.649 379.333 297.546C379.486 297.444 379.666 297.39 379.85 297.39C380.097 297.39 380.333 297.488 380.508 297.662C380.682 297.836 380.78 298.073 380.78 298.32Z" fill="white" stroke="#263238" stroke-width="1.14453" stroke-linecap="round" stroke-linejoin="round"/>
<path d="M371.3 298.32C371.3 298.504 371.245 298.683 371.143 298.836C371.041 298.989 370.896 299.108 370.726 299.179C370.556 299.249 370.369 299.268 370.189 299.232C370.008 299.196 369.842 299.107 369.712 298.977C369.582 298.847 369.494 298.681 369.458 298.501C369.422 298.321 369.44 298.134 369.511 297.964C369.581 297.794 369.7 297.649 369.853 297.546C370.006 297.444 370.186 297.39 370.37 297.39C370.617 297.39 370.853 297.488 371.028 297.662C371.202 297.836 371.3 298.073 371.3 298.32Z" fill="white" stroke="#263238" stroke-width="1.14453" stroke-linecap="round" stroke-linejoin="round"/>
<path d="M370.61 296.109H379.85" stroke="#263238" stroke-width="1.14453" stroke-linecap="round" stroke-linejoin="round"/>
<path d="M259.28 289.33V291.25H270.77C270.77 291.25 274.25 287.14 276.19 287.64C278.13 288.14 277.91 291.25 277.91 291.25H280.82L281.82 289.33L281 278.77L259.28 289.33Z" fill="white" stroke="#263238" stroke-width="1.14453" stroke-linecap="round" stroke-linejoin="round"/>
<path d="M259.28 289.329H270.11C270.11 289.329 273.5 286.209 276.11 285.329C278.72 284.449 279.34 289.329 279.34 289.329H281.82C281.82 289.329 283.82 283.939 283.82 283.329C283.82 282.719 281.88 273.42 281.88 267.39C281.88 267.39 275.31 267.28 274.45 268.39C274.45 268.39 273.05 266.339 272.18 266.559C272.673 269.003 272.854 271.5 272.72 273.989C272.4 277.219 267.98 282.389 263.78 283.899C261.05 284.829 259.93 285.879 259.28 289.329Z" fill="#FFD084" stroke="#263238" stroke-width="1.14453" stroke-linecap="round" stroke-linejoin="round"/>
<path d="M274.47 268.329C274.47 268.329 274.68 274.679 274.47 275.969C274.26 277.259 268.54 283.619 268 283.839" stroke="#263238" stroke-width="1.14453" stroke-linecap="round" stroke-linejoin="round"/>
<path d="M272.76 270.779H275.54" stroke="#263238" stroke-width="1.14453" stroke-linecap="round" stroke-linejoin="round"/>
<path d="M272.74 273.93L275.54 273.5" stroke="#263238" stroke-width="1.14453" stroke-linecap="round" stroke-linejoin="round"/>
<path d="M271.96 276.079L275.54 276.509" stroke="#263238" stroke-width="1.14453" stroke-linecap="round" stroke-linejoin="round"/>
<path d="M270.77 277.899L274.15 278.769" stroke="#263238" stroke-width="1.14453" stroke-linecap="round" stroke-linejoin="round"/>
<path d="M269.25 279.8L271.96 281.36" stroke="#263238" stroke-width="1.14453" stroke-linecap="round" stroke-linejoin="round"/>
<path d="M263.8 283.84C264.797 284.372 265.634 285.162 266.221 286.128C266.809 287.094 267.126 288.199 267.14 289.33H259.28C259.474 288.094 259.996 286.934 260.791 285.968C261.586 285.003 262.625 284.268 263.8 283.84V283.84Z" fill="white" stroke="#263238" stroke-width="1.14453" stroke-linecap="round" stroke-linejoin="round"/>
<path d="M280.2 281.16C280.2 281.429 280.12 281.692 279.971 281.915C279.821 282.139 279.609 282.313 279.36 282.416C279.112 282.519 278.838 282.546 278.575 282.494C278.311 282.441 278.069 282.312 277.878 282.121C277.688 281.931 277.559 281.689 277.506 281.425C277.454 281.161 277.481 280.888 277.584 280.639C277.686 280.391 277.861 280.178 278.084 280.029C278.308 279.88 278.571 279.8 278.84 279.8C279.201 279.8 279.547 279.943 279.802 280.198C280.057 280.453 280.2 280.799 280.2 281.16Z" fill="white" stroke="#263238" stroke-width="1.14453" stroke-linecap="round" stroke-linejoin="round"/>
<path opacity="0.2" d="M385.55 245.31H242.86C241.96 245.31 241.097 245.666 240.459 246.302C239.822 246.937 239.463 247.8 239.46 248.7V269H382.27C383.14 269 383.974 268.654 384.589 268.039C385.204 267.424 385.55 266.589 385.55 265.72V245.31Z" fill="black"/>
<path d="M389.77 248.7V302.12C389.769 302.565 389.68 303.005 389.508 303.416C389.336 303.827 389.086 304.2 388.77 304.514C388.454 304.828 388.08 305.076 387.668 305.245C387.256 305.415 386.815 305.501 386.37 305.5H242.86C242.415 305.501 241.974 305.415 241.562 305.245C241.15 305.076 240.776 304.828 240.46 304.514C240.144 304.2 239.893 303.827 239.722 303.416C239.55 303.005 239.461 302.565 239.46 302.12V248.7C239.463 247.8 239.822 246.937 240.459 246.302C241.097 245.666 241.96 245.31 242.86 245.31H386.37C387.27 245.31 388.133 245.666 388.771 246.302C389.408 246.937 389.767 247.8 389.77 248.7Z" stroke="#263238" stroke-width="1.14453" stroke-linecap="round" stroke-linejoin="round"/>
<path d="M386.8 308.41H242.43C240.79 308.41 239.46 309.74 239.46 311.38V365.64C239.46 367.28 240.79 368.61 242.43 368.61H386.8C388.44 368.61 389.77 367.28 389.77 365.64V311.38C389.77 309.74 388.44 308.41 386.8 308.41Z" fill="white" stroke="#263238" stroke-width="1.14453" stroke-linecap="round" stroke-linejoin="round"/>
<path d="M295.64 315.42H246.76V361.59H295.64V315.42Z" fill="white" stroke="#263238" stroke-width="1.14453" stroke-linecap="round" stroke-linejoin="round"/>
<path d="M350 319.489H306.26C305.73 319.489 305.221 319.279 304.846 318.903C304.471 318.528 304.26 318.02 304.26 317.489C304.26 316.959 304.471 316.45 304.846 316.075C305.221 315.7 305.73 315.489 306.26 315.489H350C350.53 315.489 351.039 315.7 351.414 316.075C351.789 316.45 352 316.959 352 317.489C352 318.02 351.789 318.528 351.414 318.903C351.039 319.279 350.53 319.489 350 319.489Z" fill="#263238"/>
<path d="M324.26 328.449H306.26C305.73 328.449 305.221 328.239 304.846 327.863C304.471 327.488 304.26 326.98 304.26 326.449C304.26 325.919 304.471 325.41 304.846 325.035C305.221 324.66 305.73 324.449 306.26 324.449H324.26C324.79 324.449 325.299 324.66 325.674 325.035C326.049 325.41 326.26 325.919 326.26 326.449C326.26 326.98 326.049 327.488 325.674 327.863C325.299 328.239 324.79 328.449 324.26 328.449Z" fill="#263238"/>
<path d="M361.86 351C361.104 350.748 360.284 350.76 359.536 351.034C358.788 351.308 358.154 351.829 357.74 352.51C357.336 351.822 356.71 351.292 355.965 351.007C355.22 350.722 354.4 350.698 353.64 350.94C351.26 351.65 350.42 354.67 352.39 357.44C353.709 359.121 355.386 360.488 357.3 361.44L357.68 361.63L358.05 361.45C359.989 360.539 361.698 359.202 363.05 357.54C365 354.77 364.23 351.74 361.86 351Z" fill="#FFD084" stroke="#263238" stroke-width="1.14453" stroke-linecap="round" stroke-linejoin="round"/>
<path d="M378.85 357.94H371.58L370.84 350.77H379.59L378.85 357.94Z" fill="white" stroke="#263238" stroke-width="1.14453" stroke-linecap="round" stroke-linejoin="round"/>
<path d="M371.1 353.22H379.33" stroke="#263238" stroke-width="1.14453" stroke-linecap="round" stroke-linejoin="round"/>
<path d="M371.36 355.489H379.07" stroke="#263238" stroke-width="1.14453" stroke-linecap="round" stroke-linejoin="round"/>
<path d="M373.59 350.77L373.77 357.94" stroke="#263238" stroke-width="1.14453" stroke-linecap="round" stroke-linejoin="round"/>
<path d="M376.84 350.77L376.62 357.94" stroke="#263238" stroke-width="1.14453" stroke-linecap="round" stroke-linejoin="round"/>
<path d="M379.55 350.74L381.58 350" stroke="#263238" stroke-width="1.14453" stroke-linecap="round" stroke-linejoin="round"/>
<path d="M380.78 361.419C380.78 361.603 380.725 361.783 380.623 361.936C380.521 362.089 380.376 362.208 380.206 362.278C380.036 362.349 379.849 362.367 379.669 362.331C379.488 362.296 379.322 362.207 379.192 362.077C379.062 361.947 378.974 361.781 378.938 361.601C378.902 361.42 378.92 361.233 378.991 361.063C379.061 360.893 379.18 360.748 379.333 360.646C379.486 360.544 379.666 360.489 379.85 360.489C380.097 360.489 380.333 360.587 380.508 360.762C380.682 360.936 380.78 361.173 380.78 361.419Z" fill="white" stroke="#263238" stroke-width="1.14453" stroke-linecap="round" stroke-linejoin="round"/>
<path d="M371.3 361.419C371.3 361.603 371.245 361.783 371.143 361.936C371.041 362.089 370.896 362.208 370.726 362.278C370.556 362.349 370.369 362.367 370.189 362.331C370.008 362.296 369.842 362.207 369.712 362.077C369.582 361.947 369.494 361.781 369.458 361.601C369.422 361.42 369.44 361.233 369.511 361.063C369.581 360.893 369.7 360.748 369.853 360.646C370.006 360.544 370.186 360.489 370.37 360.489C370.617 360.489 370.853 360.587 371.028 360.762C371.202 360.936 371.3 361.173 371.3 361.419Z" fill="white" stroke="#263238" stroke-width="1.14453" stroke-linecap="round" stroke-linejoin="round"/>
<path d="M370.61 359.21H379.85" stroke="#263238" stroke-width="1.14453" stroke-linecap="round" stroke-linejoin="round"/>
<path d="M275.54 330.149C275.54 330.149 277.29 320.989 281.47 324.389C288.58 330.149 282.83 347.099 282.83 347.099" stroke="#263238" stroke-width="1.14453" stroke-linecap="round" stroke-linejoin="round"/>
<path d="M266.17 330.15C266.17 330.15 264.54 323.9 260.62 324.22C256.7 324.54 253.25 337.33 257.99 348.81" stroke="#263238" stroke-width="1.14453" stroke-linecap="round" stroke-linejoin="round"/>
<path d="M267.14 327.19C267.342 326.415 267.787 325.725 268.41 325.221C269.032 324.717 269.8 324.426 270.6 324.39C271.373 324.404 272.115 324.694 272.692 325.207C273.27 325.721 273.645 326.424 273.75 327.19" stroke="#263238" stroke-width="1.14453" stroke-linecap="round" stroke-linejoin="round"/>
<path d="M262.15 327.269L278.84 326.989V330.809C278.84 330.809 286.21 347.709 284.2 351.399C282.19 355.089 258.13 356.119 257.13 350.739C256.13 345.359 262.58 331.579 262.58 331.579L262.15 327.269Z" fill="#FFD084" stroke="#263238" stroke-width="1.14453" stroke-linecap="round" stroke-linejoin="round"/>
<path d="M262.58 331.58C262.58 331.58 262.15 338.47 264.58 339.77C267.01 341.07 276.29 341.2 277.47 339.19C278.65 337.18 278.83 330.81 278.83 330.81" stroke="#263238" stroke-width="1.14453" stroke-linecap="round" stroke-linejoin="round"/>
<path d="M262.55 342.64C262.55 342.64 267.86 344.07 270.55 343.64C270.55 343.64 269.92 351.54 268.63 351.54C267.34 351.54 261.16 351.79 260.73 350.37C260.3 348.95 261.45 343.93 261.45 343.93" stroke="#263238" stroke-width="1.14453" stroke-linecap="round" stroke-linejoin="round"/>
<path d="M280.2 342.64C277.772 343.307 275.276 343.693 272.76 343.79C272.76 343.79 272.71 349.56 273.76 350.79C274.81 352.02 280.4 351.36 281.26 350.02C282.12 348.68 280.21 344.24 280.21 344.24" stroke="#263238" stroke-width="1.14453" stroke-linecap="round" stroke-linejoin="round"/>
<path d="M272.3 337.8C272.3 338.055 272.224 338.304 272.083 338.516C271.941 338.729 271.739 338.894 271.504 338.992C271.268 339.089 271.009 339.115 270.758 339.065C270.508 339.015 270.278 338.892 270.098 338.712C269.917 338.532 269.795 338.302 269.745 338.051C269.695 337.801 269.721 337.542 269.818 337.306C269.916 337.07 270.081 336.869 270.293 336.727C270.505 336.585 270.755 336.51 271.01 336.51C271.18 336.508 271.348 336.541 271.505 336.605C271.662 336.67 271.805 336.765 271.925 336.885C272.045 337.005 272.14 337.147 272.205 337.305C272.269 337.462 272.301 337.63 272.3 337.8Z" stroke="#263238" stroke-width="1.14453" stroke-linecap="round" stroke-linejoin="round"/>
<path d="M377.65 171.359H192.18C190.54 171.359 189.21 172.689 189.21 174.329V245.049C189.21 246.69 190.54 248.019 192.18 248.019H377.65C379.29 248.019 380.62 246.69 380.62 245.049V174.329C380.62 172.689 379.29 171.359 377.65 171.359Z" fill="white" stroke="#263238" stroke-width="1.14453" stroke-linecap="round" stroke-linejoin="round"/>
<path d="M260.74 180.29H198.5V239.09H260.74V180.29Z" fill="white" stroke="#263238" stroke-width="1.14453" stroke-linecap="round" stroke-linejoin="round"/>
<path d="M330.69 180.29H273.54C272.513 180.29 271.68 181.123 271.68 182.15V183.6C271.68 184.627 272.513 185.46 273.54 185.46H330.69C331.717 185.46 332.55 184.627 332.55 183.6V182.15C332.55 181.123 331.717 180.29 330.69 180.29Z" fill="#263238"/>
<path d="M273.54 191.699H297.91C298.154 191.699 298.396 191.747 298.622 191.841C298.847 191.934 299.052 192.071 299.225 192.244C299.398 192.417 299.535 192.622 299.628 192.847C299.722 193.073 299.77 193.315 299.77 193.559V194.999C299.77 195.495 299.573 195.971 299.222 196.322C298.872 196.672 298.396 196.869 297.9 196.869H273.54C273.044 196.869 272.568 196.672 272.218 196.322C271.867 195.971 271.67 195.495 271.67 194.999V193.559C271.67 193.314 271.718 193.071 271.812 192.845C271.907 192.619 272.044 192.413 272.218 192.24C272.392 192.068 272.598 191.931 272.825 191.838C273.052 191.745 273.295 191.698 273.54 191.699Z" fill="#263238"/>
<path d="M345.08 225.579C344.117 225.261 343.074 225.277 342.121 225.625C341.168 225.974 340.36 226.634 339.83 227.499C339.31 226.627 338.511 225.955 337.562 225.592C336.613 225.229 335.57 225.197 334.6 225.499C331.6 226.409 330.5 230.249 333.01 233.789C334.695 235.919 336.829 237.65 339.26 238.859L339.74 239.089L340.22 238.859C342.675 237.688 344.835 235.979 346.54 233.859C349.12 230.389 348.09 226.529 345.08 225.579Z" fill="#FFD084" stroke="#263238" stroke-width="1.14453" stroke-linecap="round" stroke-linejoin="round"/>
<path d="M366.71 234.44H357.44L356.5 225.3H367.65L366.71 234.44Z" fill="white" stroke="#263238" stroke-width="1.14453" stroke-linecap="round" stroke-linejoin="round"/>
<path d="M356.84 228.42H367.32" stroke="#263238" stroke-width="1.14453" stroke-linecap="round" stroke-linejoin="round"/>
<path d="M357.17 231.319H366.98" stroke="#263238" stroke-width="1.14453" stroke-linecap="round" stroke-linejoin="round"/>
<path d="M360.01 225.3L360.24 234.43" stroke="#263238" stroke-width="1.14453" stroke-linecap="round" stroke-linejoin="round"/>
<path d="M364.14 225.3L363.87 234.43" stroke="#263238" stroke-width="1.14453" stroke-linecap="round" stroke-linejoin="round"/>
<path d="M367.6 225.27L370.19 224.33" stroke="#263238" stroke-width="1.14453" stroke-linecap="round" stroke-linejoin="round"/>
<path d="M367.98 240.04C368.632 240.04 369.16 239.511 369.16 238.86C369.16 238.208 368.632 237.68 367.98 237.68C367.328 237.68 366.8 238.208 366.8 238.86C366.8 239.511 367.328 240.04 367.98 240.04Z" fill="white" stroke="#263238" stroke-width="1.14453" stroke-linecap="round" stroke-linejoin="round"/>
<path d="M355.91 240.04C356.562 240.04 357.09 239.511 357.09 238.86C357.09 238.208 356.562 237.68 355.91 237.68C355.258 237.68 354.73 238.208 354.73 238.86C354.73 239.511 355.258 240.04 355.91 240.04Z" fill="white" stroke="#263238" stroke-width="1.14453" stroke-linecap="round" stroke-linejoin="round"/>
<path d="M356.22 236.05H367.98" stroke="#263238" stroke-width="1.14453" stroke-linecap="round" stroke-linejoin="round"/>
<path d="M219.82 189.06H239.11L239.57 193.06L254.2 221.06C254.2 221.06 252.92 228.17 249.45 225.71C245.98 223.25 244.14 231.96 239.39 229.8C234.64 227.64 232.23 232.67 226.85 231.25C221.47 229.83 219.85 230.25 217.08 231.51C214.31 232.77 211.96 226.27 209.76 226.68C207.56 227.09 205.39 223.26 205.39 223.26L218.91 194.73L219.82 189.06Z" fill="#FFD084" stroke="#263238" stroke-width="1.14453" stroke-linecap="round" stroke-linejoin="round"/>
<path d="M221.28 193.09H237.19" stroke="#263238" stroke-width="1.14453" stroke-linecap="round" stroke-linejoin="round"/>
<path d="M229.89 191C229.89 191.172 229.821 191.337 229.699 191.459C229.578 191.581 229.412 191.65 229.24 191.65C229.067 191.65 228.902 191.581 228.78 191.459C228.658 191.337 228.59 191.172 228.59 191C228.59 190.827 228.658 190.662 228.78 190.54C228.902 190.418 229.067 190.35 229.24 190.35C229.412 190.35 229.578 190.418 229.699 190.54C229.821 190.662 229.89 190.827 229.89 191V191Z" fill="#263238"/>
<path d="M212.3 223C212.3 223 217.1 210.66 217.86 207.85" stroke="#263238" stroke-width="1.14453" stroke-linecap="round" stroke-linejoin="round"/>
<path d="M227.41 219.79C227.48 214.98 227.53 209.79 227.53 209.79L227.33 219.79H227.41Z" fill="white" stroke="#263238" stroke-width="1.14453" stroke-linecap="round" stroke-linejoin="round"/>
<path d="M227.28 222.84L227.18 227.76C227.25 227.3 227.31 225.33 227.35 222.86L227.28 222.84Z" fill="white" stroke="#263238" stroke-width="1.14453" stroke-linecap="round" stroke-linejoin="round"/>
<path d="M240.76 225.43C240.76 225.15 236.3 209.66 236.17 207.81Z" fill="white"/>
<path d="M240.76 225.43C240.76 225.15 236.3 209.66 236.17 207.81" stroke="#263238" stroke-width="1.14453" stroke-linecap="round" stroke-linejoin="round"/>
<path d="M243.89 207.799L242.27 203.899Z" fill="white"/>
<path d="M243.89 207.799L242.27 203.899" stroke="#263238" stroke-width="1.14453" stroke-linecap="round" stroke-linejoin="round"/>
<path d="M249.54 221.45C248.113 218.01 246.687 214.567 245.26 211.12Z" fill="white"/>
<path d="M249.54 221.45C248.113 218.01 246.687 214.567 245.26 211.12" stroke="#263238" stroke-width="1.14453" stroke-linecap="round" stroke-linejoin="round"/>
<path d="M218.88 205.129L219.78 203.069" stroke="#263238" stroke-width="1.14453" stroke-linecap="round" stroke-linejoin="round"/>
<path d="M399.58 369.68C399.071 369.68 398.582 369.477 398.222 369.117C397.862 368.757 397.66 368.269 397.66 367.76V125.93C397.66 125.421 397.862 124.932 398.222 124.572C398.582 124.212 399.071 124.01 399.58 124.01C400.089 124.01 400.577 124.212 400.938 124.572C401.298 124.932 401.5 125.421 401.5 125.93V367.76C401.5 368.269 401.298 368.757 400.938 369.117C400.577 369.477 400.089 369.68 399.58 369.68V369.68Z" fill="#263238"/>
<path d="M399.58 143.049C399.075 143.051 398.574 142.952 398.107 142.76C397.64 142.568 397.216 142.285 396.858 141.928C396.501 141.572 396.217 141.148 396.023 140.681C395.83 140.215 395.73 139.715 395.73 139.209V122.999C395.73 121.978 396.136 120.999 396.858 120.277C397.58 119.555 398.559 119.149 399.58 119.149V119.149C400.086 119.149 400.586 119.249 401.053 119.442C401.52 119.636 401.945 119.92 402.302 120.277C402.66 120.635 402.943 121.059 403.137 121.526C403.33 121.993 403.43 122.494 403.43 122.999V139.249C403.417 140.262 403.005 141.228 402.285 141.94C401.564 142.651 400.592 143.05 399.58 143.049V143.049Z" fill="white" stroke="#263238" stroke-width="1.14453" stroke-linecap="round" stroke-linejoin="round"/>
<g opacity="0.6">
<path opacity="0.6" d="M330.36 89.8799L329.81 94.9999H327.74L326.67 85.3799H328.14L329 92.9999L329.72 85.4199H331.18L331.94 93.0599L332.72 85.4199H334L332.92 94.9999H330.92L330.36 89.8799Z" fill="black"/>
<path opacity="0.6" d="M334.74 85.3896H336.25V94.9996H334.74V85.3896Z" fill="black"/>
<path opacity="0.6" d="M337.16 87.6996C337.112 87.0535 337.313 86.4135 337.72 85.9096C338.18 85.5047 338.772 85.2812 339.385 85.2812C339.998 85.2813 340.59 85.5047 341.05 85.9096C341.454 86.4154 341.653 87.054 341.61 87.6996V87.9996H340.18V87.5996C340.203 87.3401 340.132 87.0809 339.98 86.8696C339.908 86.7979 339.822 86.742 339.727 86.7059C339.633 86.6697 339.531 86.6539 339.43 86.6596C339.327 86.6531 339.224 86.6685 339.127 86.7047C339.031 86.7409 338.943 86.7971 338.87 86.8696C338.717 87.0809 338.646 87.3401 338.67 87.5996C338.663 87.9074 338.739 88.2113 338.89 88.4796C339.043 88.738 339.228 88.9765 339.44 89.1896C339.66 89.4096 339.9 89.6396 340.15 89.8596C340.401 90.089 340.635 90.3363 340.85 90.5996C341.077 90.8707 341.262 91.174 341.4 91.4996C341.555 91.8804 341.629 92.2888 341.62 92.6996C341.663 93.3469 341.459 93.9863 341.05 94.4896C340.585 94.8968 339.988 95.1213 339.37 95.1213C338.752 95.1213 338.155 94.8968 337.69 94.4896C337.281 93.9863 337.077 93.3469 337.12 92.6996V92.1096H338.55V92.7896C338.521 93.0511 338.597 93.3134 338.76 93.5196C338.919 93.6549 339.121 93.7292 339.33 93.7292C339.539 93.7292 339.741 93.6549 339.9 93.5196C340.063 93.3134 340.139 93.0511 340.11 92.7896C340.118 92.4849 340.042 92.1839 339.89 91.9196C339.74 91.6591 339.555 91.4202 339.34 91.2096C339.12 90.9796 338.89 90.7596 338.64 90.5396C338.383 90.313 338.146 90.0655 337.93 89.7996C337.704 89.5241 337.519 89.2176 337.38 88.8896C337.223 88.5131 337.148 88.1074 337.16 87.6996V87.6996Z" fill="black"/>
<path opacity="0.6" d="M344 94.9996H342.49V85.3896H344V89.5097H345.72V85.3896H347.25V94.9996H345.72V90.8896H344V94.9996Z" fill="black"/>
<path opacity="0.6" d="M348.35 85.3896H349.86V93.6296H352.35V94.9996H348.35V85.3896Z" fill="black"/>
<path opacity="0.6" d="M353 85.3896H354.51V94.9996H353V85.3896Z" fill="black"/>
<path opacity="0.6" d="M355.42 87.6997C355.376 87.0541 355.576 86.4155 355.98 85.9098C356.442 85.504 357.035 85.2803 357.65 85.2803C358.264 85.2803 358.858 85.504 359.32 85.9098C359.724 86.4155 359.923 87.0541 359.88 87.6997V87.9997H358.45V87.5997C358.473 87.3403 358.402 87.081 358.25 86.8698C358.177 86.7972 358.089 86.741 357.992 86.7048C357.896 86.6686 357.793 86.6532 357.69 86.6598C357.587 86.6545 357.484 86.6704 357.388 86.7065C357.292 86.7426 357.204 86.7982 357.13 86.8698C356.981 87.0823 356.913 87.3415 356.94 87.5997C356.933 87.9075 357.009 88.2114 357.16 88.4798C357.31 88.7379 357.491 88.9764 357.7 89.1898C357.93 89.4098 358.16 89.6397 358.41 89.8597C358.664 90.089 358.901 90.3363 359.12 90.5997C359.343 90.8732 359.528 91.1761 359.67 91.4997C359.825 91.8805 359.899 92.2889 359.89 92.6997C359.933 93.347 359.729 93.9864 359.32 94.4897C358.852 94.8957 358.254 95.1192 357.635 95.1192C357.016 95.1192 356.417 94.8957 355.95 94.4897C355.541 93.9864 355.337 93.347 355.38 92.6997V92.1097H356.81V92.7897C356.784 93.0526 356.863 93.315 357.03 93.5197C357.106 93.5916 357.195 93.6472 357.293 93.6833C357.391 93.7194 357.496 93.7352 357.6 93.7298C357.81 93.7374 358.015 93.662 358.17 93.5197C358.333 93.3135 358.409 93.0512 358.38 92.7897C358.388 92.4851 358.312 92.184 358.16 91.9197C358.006 91.6614 357.822 91.4229 357.61 91.2097C357.39 90.9797 357.15 90.7597 356.9 90.5397C356.646 90.3105 356.408 90.0632 356.19 89.7998C355.964 89.5263 355.782 89.2193 355.65 88.8897C355.489 88.514 355.411 88.1083 355.42 87.6997V87.6997Z" fill="black"/>
<path opacity="0.6" d="M360.31 85.3896H365V86.7696H363.43V94.9996H361.91V86.7696H360.33L360.31 85.3896Z" fill="black"/>
</g>
<path d="M55.3901 109C54.6601 88.1095 74.3101 70.4795 99.2701 69.6095C124.23 68.7395 145.06 84.9995 145.78 105.86C146.46 125.1 129.83 141.57 107.69 144.73C105.94 156.15 111.34 161.46 111.34 161.46C107.627 159.973 104.256 157.747 101.43 154.918C98.6035 152.088 96.382 148.714 94.9001 145C73.1601 143 56.0501 127.91 55.3901 109Z" fill="white" stroke="#263238" stroke-width="1.14453" stroke-linecap="round" stroke-linejoin="round"/>
<path d="M89.1301 93.6496C95.3601 91.8696 99.0401 95.7496 100.68 98.2396C102.42 95.8196 106.26 92.0796 112.41 94.0996C119.09 96.2996 121.26 104.9 115.41 112.61C111.23 118.15 104.6 121.87 101.21 123.51C100.81 123.71 100.44 123.87 100.14 124.01L99.0801 123.47C95.7601 121.7 89.2801 117.73 85.3301 112.03C79.8601 104.11 82.3701 95.5896 89.1301 93.6496Z" fill="#FFD084"/>
<path d="M86 294.54C86 294.54 56.61 323.17 47.44 342.64C38.27 362.11 43.44 361.27 52.44 367.43C70.44 379.81 108.95 395.74 108.95 395.74C108.95 395.74 109.71 408.3 116.2 412.5C122.69 416.7 141.02 392.75 138.35 388.69C135.68 384.63 117.35 385.92 117.35 385.92C117.35 385.92 108.17 382.25 95.19 371.6C85.92 364.204 76.2378 357.339 66.19 351.04C66.19 351.04 82.19 328.77 90.67 322.69C99.15 316.61 112.77 307.89 112.77 307.89" fill="white"/>
<path d="M86 294.54C86 294.54 56.61 323.17 47.44 342.64C38.27 362.11 43.44 361.27 52.44 367.43C70.44 379.81 108.95 395.74 108.95 395.74C108.95 395.74 109.71 408.3 116.2 412.5C122.69 416.7 141.02 392.75 138.35 388.69C135.68 384.63 117.35 385.92 117.35 385.92C117.35 385.92 108.17 382.25 95.19 371.6C85.92 364.204 76.2378 357.339 66.19 351.04C66.19 351.04 82.19 328.77 90.67 322.69C99.15 316.61 112.77 307.89 112.77 307.89" stroke="#263238" stroke-width="1.14453" stroke-linecap="round" stroke-linejoin="round"/>
<path d="M211 459.77C193.58 465.61 176.89 469.87 162.39 470.99C161.32 471.07 160.25 471.14 159.2 471.19C159.01 467.71 158.7 461.19 158.35 459.19C158.005 457.207 157.022 455.392 155.55 454.02L149.44 457.27L147.74 471.2C121.09 470.8 104.18 463.2 104.18 463.2L106.59 448.66C105.356 444.288 104.812 439.75 104.98 435.21C105.72 408.07 126.39 376.88 126.39 376.88C126.39 376.88 173.88 343.37 189.61 370.54C205.34 397.71 211 459.77 211 459.77Z" fill="#BFBFBF"/>
<path opacity="0.2" d="M187.57 457.631C187.27 460.341 169.57 463.981 162.4 457.691C163.08 458.331 169.1 464.091 167.51 466.081C165.92 468.071 162.34 466.081 162.34 466.081C162.808 467.684 162.808 469.387 162.34 470.991C161.27 471.071 160.2 471.141 159.15 471.191C158.96 467.711 158.65 461.191 158.3 459.191C157.955 457.208 156.972 455.393 155.5 454.021L149.39 457.271L147.69 471.201C121.04 470.801 104.13 463.201 104.13 463.201L106.54 448.661C105.306 444.289 104.763 439.75 104.93 435.211C107.84 440.211 112.93 446.771 119.93 447.861C131.61 449.651 140.79 441.331 140.79 441.331C140.79 441.331 138.08 433.801 140.79 426.391C140.79 426.391 139.49 445.251 162.31 447.861C184.55 450.401 189.31 445.501 189.52 445.281C189.16 445.791 183.52 454.021 180.15 454.911C180.18 454.921 187.88 454.921 187.57 457.631Z" fill="black"/>
<path d="M211 459.77C211 459.77 205.33 397.77 189.61 370.55C173.89 343.33 126.39 376.89 126.39 376.89C126.39 376.89 98.0001 419.7 106.54 448.68L104.13 463.2" stroke="#263238" stroke-width="1.14453" stroke-linecap="round" stroke-linejoin="round"/>
<path d="M109.69 448.28C121.16 452.2 134.45 450.69 143.2 445.28" stroke="#263238" stroke-width="1.14453" stroke-linecap="round" stroke-linejoin="round"/>
<path d="M144.63 398.17C144.63 398.17 136.03 431.22 144.63 441.17C153.23 451.12 178.37 451.84 185.16 450.47C191.95 449.1 194.21 444.34 194.21 444.34" stroke="#263238" stroke-width="1.14453" stroke-linecap="round" stroke-linejoin="round"/>
<path d="M157.54 403C157.54 403 155.16 419.9 157.78 428.05L170.14 432.58L180.14 425.94C180.14 425.94 179.03 410.24 179.21 403C179.24 403 166.76 400.88 157.54 403Z" stroke="#263238" stroke-width="1.14453" stroke-linecap="round" stroke-linejoin="round"/>
<path d="M156.55 420.81C156.55 420.81 163.98 418 168.36 424.43C168.36 424.43 169.1 417.79 179.24 419" stroke="#263238" stroke-width="1.14453" stroke-linecap="round" stroke-linejoin="round"/>
<path d="M159.12 405.87C159.12 405.87 174.23 404.87 179.24 406.87" stroke="#263238" stroke-width="1.14453" stroke-linecap="round" stroke-linejoin="round"/>
<path d="M115.93 405.931C115.93 405.931 110 421.001 110.21 428.861L120.21 433.291L131 426.141C131 426.141 132.76 411.051 134.1 404.631C134.05 404.631 123.87 403.611 115.93 405.931Z" stroke="#263238" stroke-width="1.14453" stroke-linecap="round" stroke-linejoin="round"/>
<path d="M111 421.83C111 421.83 118 418.91 120.44 424.97C120.44 424.97 122.52 418.5 131.36 419.25" stroke="#263238" stroke-width="1.14453" stroke-linecap="round" stroke-linejoin="round"/>
<path d="M116.59 408.26C116.59 408.26 129.43 406.56 133.43 407.99" stroke="#263238" stroke-width="1.14453" stroke-linecap="round" stroke-linejoin="round"/>
<path d="M117.92 395.741C117.92 395.741 131.73 393.271 143.73 402.061C158.788 393.845 176.104 390.733 193.08 393.191" stroke="#263238" stroke-width="1.14453" stroke-linecap="round" stroke-linejoin="round"/>
<path d="M196.61 392.32C202.734 414.562 206.337 437.423 207.35 460.47" stroke="#263238" stroke-width="1.14453" stroke-linecap="round" stroke-linejoin="round"/>
<path d="M127.88 456.121C127.88 456.121 143.27 450.461 148.03 446.391C148.03 446.391 159.19 456.581 174.78 456.121" stroke="#263238" stroke-width="1.14453" stroke-linecap="round" stroke-linejoin="round"/>
<path d="M159.15 471.19C159.15 471.19 159.36 459.29 157.54 457.71C155.72 456.13 155.26 451.26 155.26 451.26" stroke="#263238" stroke-width="1.14453" stroke-linecap="round" stroke-linejoin="round"/>
<path d="M155.5 452.87C153.761 454.709 151.687 456.199 149.39 457.26L147.69 471.19" stroke="#263238" stroke-width="1.14453" stroke-linecap="round" stroke-linejoin="round"/>
<path d="M189.5 278.561C192.73 286.771 223.79 327.491 226.33 339.201C228.87 350.911 228.62 361.091 214.33 357.531C200.04 353.971 194.06 310.471 178.27 287.281" fill="white"/>
<path d="M189.5 278.561C192.73 286.771 223.79 327.491 226.33 339.201C228.87 350.911 228.62 361.091 214.33 357.531C200.04 353.971 194.06 310.471 178.27 287.281" stroke="#263238" stroke-width="1.14453" stroke-linecap="round" stroke-linejoin="round"/>
<path d="M188.05 283.4C188.726 282.6 189.194 281.646 189.412 280.622C189.63 279.598 189.592 278.535 189.3 277.53C188.568 273.402 187.156 269.424 185.12 265.76C182.05 260.76 184.28 255.92 182.22 256.02C180.16 256.12 179.73 260.64 179.73 260.64C179.73 260.64 175.73 256.15 173.25 254.82C172.12 254.21 165.03 251.3 165.03 251.3L157.78 251.65C157.78 251.65 157.72 255.08 164.38 254.65L168.82 258.17C168.82 258.17 164.63 259.41 164.41 261.29C164.19 263.17 161.91 263.29 162.15 265.84C162.39 268.39 161.21 268.73 163.31 271.98C165.82 275.88 168.38 274.6 168.38 274.6C168.38 274.6 170.51 285.6 172.82 287.76C174 288.85 176.44 289.02 179.11 288.46" fill="white"/>
<path d="M188.05 283.4C188.726 282.6 189.194 281.646 189.412 280.622C189.63 279.598 189.592 278.535 189.3 277.53C188.568 273.402 187.156 269.424 185.12 265.76C182.05 260.76 184.28 255.92 182.22 256.02C180.16 256.12 179.73 260.64 179.73 260.64C179.73 260.64 175.73 256.15 173.25 254.82C172.12 254.21 165.03 251.3 165.03 251.3L157.78 251.65C157.78 251.65 157.72 255.08 164.38 254.65L168.82 258.17C168.82 258.17 164.63 259.41 164.41 261.29C164.19 263.17 161.91 263.29 162.15 265.84C162.39 268.39 161.21 268.73 163.31 271.98C165.82 275.88 168.38 274.6 168.38 274.6C168.38 274.6 170.51 285.6 172.82 287.76C174 288.85 176.44 289.02 179.11 288.46" stroke="#263238" stroke-width="1.14453" stroke-linecap="round" stroke-linejoin="round"/>
<path d="M164.41 261.33C164.41 261.33 166.98 267.19 168.5 268.73C170.02 270.27 172.74 268.64 173.78 268.51C175.12 268.35 176.05 268.51 175.84 267.96C174.7 264.96 171.45 265.72 171.45 265.72C171.45 265.72 170.45 262.49 168.57 261.17" stroke="#263238" stroke-width="1.14453" stroke-linecap="round" stroke-linejoin="round"/>
<path d="M179.73 260.641C179.666 262.147 179.814 263.655 180.17 265.121C180.17 265.121 177.97 270.221 178.36 272.631" stroke="#263238" stroke-width="1.14453" stroke-linecap="round" stroke-linejoin="round"/>
<path d="M162.15 266.311C163.15 268.481 165.29 271.411 167.15 271.861C169.01 272.311 175.29 270.551 174.79 268.431" stroke="#263238" stroke-width="1.14453" stroke-linecap="round" stroke-linejoin="round"/>
<path d="M169.82 262.421C169.82 262.421 171.14 262.421 171.14 260.311" stroke="#263238" stroke-width="1.14453" stroke-linecap="round" stroke-linejoin="round"/>
<path d="M168.82 258.21C168.82 258.21 171.42 259.13 172.6 257.08" stroke="#263238" stroke-width="1.14453" stroke-linecap="round" stroke-linejoin="round"/>
<path d="M103.65 199C109.79 177.94 147.43 178.43 156.08 195.31C164.73 212.19 161.17 208.42 161.68 214.38C162.19 220.34 166.77 224.71 165.76 234.99C164.75 245.27 165.25 249.18 162.7 251.81C160.15 254.44 141.47 251.5 137.58 249.15C137.58 249.15 93.0001 235.69 103.65 199Z" fill="white" stroke="#263238" stroke-width="1.14453" stroke-linecap="round" stroke-linejoin="round"/>
<path d="M116.62 237.851C119.43 243.761 120.35 268.441 114.55 274.301C114.55 274.301 129.87 280.921 151.76 273.031C151.76 273.031 145.14 264.631 145.14 257.371C145.14 250.111 153.54 249.101 153.54 249.101" fill="white"/>
<path d="M116.62 237.851C119.43 243.761 120.35 268.441 114.55 274.301C114.55 274.301 129.87 280.921 151.76 273.031C151.76 273.031 145.14 264.631 145.14 257.371C145.14 250.111 153.54 249.101 153.54 249.101" stroke="#263238" stroke-width="1.14453" stroke-linecap="round" stroke-linejoin="round"/>
<path d="M161.36 209.1C162.26 209.66 160.04 213.97 157.17 215.72H159.26C159.26 215.72 158.12 219.72 157.17 220.08C156.22 220.44 153.54 210.4 147.05 215.72C147.05 215.72 149.34 201.56 161.36 209.1Z" fill="#FFD084" stroke="#263238" stroke-width="1.14453" stroke-linecap="round" stroke-linejoin="round"/>
<path d="M142.08 179.19C142.08 179.19 158.88 181.91 163.08 192.6C167.28 203.29 159.64 214.34 153.54 215.72C143.99 217.88 144.76 228.51 148.19 237.85C151.62 247.19 157.19 253.85 155.7 263.42C155.7 263.42 149.77 256.42 145.57 260.82C141.37 265.22 136.64 265.69 127.57 263.63C118.5 261.57 118.74 264.78 114.57 267.43C110.4 270.08 101.45 261.76 100.68 268.19C99.9099 274.62 97.4399 275.24 97.4399 275.24C97.4399 275.24 85.5999 267.91 89.0399 257.37C92.4799 246.83 95.9099 244.23 94.3799 235.37C92.8499 226.51 90.5399 211 93.9999 195.31C97.4599 179.62 125.69 172 142.08 179.19Z" fill="#FFD084" stroke="#263238" stroke-width="1.14453" stroke-linecap="round" stroke-linejoin="round"/>
<path d="M154.94 220.34C154.94 220.34 153.54 212.83 152.01 212.83C150.48 212.83 149.85 217.83 149.85 217.83C149.85 217.83 148.04 219.83 147.94 224.36C147.84 228.89 150.87 230.47 150.87 230.47C150.87 230.47 152.27 234.8 154.94 233.91C157.61 233.02 152.39 229.58 152.52 218.91" fill="white"/>
<path d="M154.94 220.34C154.94 220.34 153.54 212.83 152.01 212.83C150.48 212.83 149.85 217.83 149.85 217.83C149.85 217.83 148.04 219.83 147.94 224.36C147.84 228.89 150.87 230.47 150.87 230.47C150.87 230.47 152.27 234.8 154.94 233.91C157.61 233.02 152.39 229.58 152.52 218.91" stroke="#263238" stroke-width="1.14453" stroke-linecap="round" stroke-linejoin="round"/>
<path d="M155.07 238.891C155.07 238.891 155.64 245.951 160.07 250.531Z" fill="white"/>
<path d="M155.07 238.891C155.07 238.891 155.64 245.951 160.07 250.531" stroke="#263238" stroke-width="1.14453" stroke-linecap="round" stroke-linejoin="round"/>
<path d="M159.51 198.25C157.64 202.1 154.51 204.57 151.22 207.15C141.8 214.53 127.78 221.7 127.56 235.52C127.555 238.355 128.127 241.162 129.24 243.77" stroke="#263238" stroke-width="1.14453" stroke-linecap="round" stroke-linejoin="round"/>
<path d="M143.75 247.49C144.05 249.27 144.36 251.06 144.63 252.85" stroke="#263238" stroke-width="1.14453" stroke-linecap="round" stroke-linejoin="round"/>
<path d="M147.94 219.11C140.69 224.48 141.94 235.71 143.11 243.49" stroke="#263238" stroke-width="1.14453" stroke-linecap="round" stroke-linejoin="round"/>
<path d="M115 209.9C116.93 225.06 119.22 241.08 112.23 255.84" stroke="#263238" stroke-width="1.14453" stroke-linecap="round" stroke-linejoin="round"/>
<path d="M140 180.08C135.252 179.727 130.493 180.587 126.17 182.58C117.56 186.78 115.69 196.74 115.17 205.48" stroke="#263238" stroke-width="1.14453" stroke-linecap="round" stroke-linejoin="round"/>
<path d="M98.8301 255.7C98.3514 257.546 98.1791 259.458 98.3201 261.36" stroke="#263238" stroke-width="1.14453" stroke-linecap="round" stroke-linejoin="round"/>
<path d="M98.7401 199.46C97.9501 208.46 98.7401 217.58 99.9601 226.55C100.56 231.04 101.24 235.55 101.86 240.01C102.48 244.47 101.23 248.24 99.8601 252.36" stroke="#263238" stroke-width="1.14453" stroke-linecap="round" stroke-linejoin="round"/>
<path d="M102 186.87C100.21 189.45 99.6299 192.87 99.1799 195.94" stroke="#263238" stroke-width="1.14453" stroke-linecap="round" stroke-linejoin="round"/>
<path d="M145 256.44C146.098 255.869 147.346 255.653 148.572 255.819C149.799 255.986 150.944 256.527 151.85 257.37" stroke="#263238" stroke-width="1.14453" stroke-linecap="round" stroke-linejoin="round"/>
<path d="M120.78 257.26C124.6 256.67 127.85 259.1 131.31 260.26C135.18 261.52 138.25 260.65 141.57 258.47" stroke="#263238" stroke-width="1.14453" stroke-linecap="round" stroke-linejoin="round"/>
<path d="M94.6001 269C96.7301 269.68 97.2301 266.67 97.8601 265.3C99.0701 262.68 99.9301 262.17 102.78 262.82C109.41 264.34 113.6 265.82 117.78 259.54" stroke="#263238" stroke-width="1.14453" stroke-linecap="round" stroke-linejoin="round"/>
<path d="M91.6901 282.84C91.6901 282.84 105.43 271.96 130.25 269.89C155.07 267.82 171.48 269.34 177.59 275.45C183.7 281.56 194.16 302.91 194.26 313.24C194.33 319.74 186.55 338.06 186.55 338.06L198.17 391.27C198.17 391.27 164.44 388.7 134.04 391.38C118.6 392.73 114.55 395.74 114.55 395.74C114.55 395.74 121.09 372.65 122.23 367C123.37 361.35 86.0001 302.84 91.6901 282.84Z" fill="#263238"/>
<path d="M226.91 353.4C224.55 365.67 220.22 363.13 212.08 359.31C203.94 355.49 190.16 341.75 174.78 321.89L192.43 299.8C192.43 299.8 206.22 319.35 212.08 325.71C217.94 332.07 221.24 341.71 221.24 341.71" fill="white"/>
<path d="M226.91 353.4C224.55 365.67 220.22 363.13 212.08 359.31C203.94 355.49 190.16 341.75 174.78 321.89L192.43 299.8C192.43 299.8 206.22 319.35 212.08 325.71C217.94 332.07 221.24 341.71 221.24 341.71" stroke="#263238" stroke-width="1.14453" stroke-linecap="round" stroke-linejoin="round"/>
<path d="M153.54 269.39C153.54 269.39 168.4 267.85 175.87 274.04C183.34 280.23 191.87 295.85 196.61 303.04C196.61 303.04 186.69 321.4 175.08 324.46C175.08 324.46 170.08 316.31 165.9 313.77C161.72 311.23 157.78 305.11 157.78 305.11" fill="#263238"/>
<path d="M102.22 276.9C89.7801 280.79 77.5601 300.26 70.3101 306.75C70.3101 306.75 75.4001 320.98 90.5901 326.2C90.5901 326.2 98.2401 319.73 102.22 321.26C106.2 322.79 102.22 276.9 102.22 276.9Z" fill="#263238"/>
<path d="M160 189.44C160.08 191.16 160.19 192.88 160.14 194.6" stroke="#263238" stroke-width="1.14453" stroke-linecap="round" stroke-linejoin="round"/>
<path d="M66.1102 351C66.1102 351 62.0002 356.7 55.6602 356.47" stroke="#263238" stroke-width="1.14453" stroke-linecap="round" stroke-linejoin="round"/>
<path d="M174.78 321.891C174.78 321.891 168.84 311.041 165.9 311.231C162.96 311.421 157.46 292.011 168.82 278.561" stroke="white" stroke-width="1.14453" stroke-linecap="round" stroke-linejoin="round"/>
<path d="M112.26 275.24C112.26 275.24 119.26 280.92 145.08 272.63" stroke="white" stroke-width="1.14453" stroke-linecap="round" stroke-linejoin="round"/>
<path d="M112.26 286.781C112.26 286.781 131.48 286.341 140.81 278.561" stroke="white" stroke-width="1.14453" stroke-linecap="round" stroke-linejoin="round"/>
<path d="M90.5599 290.71C90.5599 290.71 88.62 312.6 102 318.41" stroke="white" stroke-width="1.14453" stroke-linecap="round" stroke-linejoin="round"/>
<path d="M87.1501 311.23C87.1501 311.23 90.1501 318.94 100.23 318.41" stroke="white" stroke-width="1.14453" stroke-linecap="round" stroke-linejoin="round"/>
<path d="M155.5 303.08C155.5 303.08 156.83 312.21 169.18 313.53" stroke="white" stroke-width="1.14453" stroke-linecap="round" stroke-linejoin="round"/>
<path d="M126.34 362.45C126.34 362.45 156.66 356.81 161.55 347.16" stroke="white" stroke-width="1.14453" stroke-linecap="round" stroke-linejoin="round"/>
<path d="M133.43 370.4C133.43 370.4 144.19 384.89 161.96 381.57" stroke="white" stroke-width="1.14453" stroke-linecap="round" stroke-linejoin="round"/>
</svg>
